<?xml version="1.0" encoding="utf-8"?>
<!-- Generator: Adobe Illustrator 27.2.0, SVG Export Plug-In . SVG Version: 6.00 Build 0)  -->
<svg version="1.1" id="Layer_1" xmlns="http://www.w3.org/2000/svg" xmlns:xlink="http://www.w3.org/1999/xlink" x="0px" y="0px"
	 viewBox="0 0 1000 1250" style="enable-background:new 0 0 1000 1250;" xml:space="preserve">
<g>
	<path d="M916.9,517.1c-29.6,0-57,19.8-61.4,54.6l0,0l-3.8,6.1c-54.8,0-69.8,44-70.1,70.1h-565c0-55.2-45.8-70-70.1-70.1l-1.8-6.1
		h-0.1c-4.4-34.8-31.8-54.6-61.4-54.6c-26,0-59.5,14.9-59.5,55.9c0,44.6,40.9,49.6,47.2,49.6c11.2,0,40.9-7.4,40.9-39.7
		c0-27.3-19.9-31-24.8-31c-12.6-0.1-20,6.1-20,16.1c0,8.7,6.2,13.6,13.7,13.6c6.2,0,9.9-6.2,11.2-8.7c5,2.5,6.2,8.7,6.2,13.6
		c0,10-7.4,23.6-26,23.6c-28.5,0-33.5-26-33.5-37.2c0-17.4,11.2-41,44.6-41c32.5,0,45.7,21.8,52,39.8l0,0v24.6l11.3,0.1
		c5.3,0,51.6,1.7,51.6,51.5v18.5h602l0.1-18.4c0-5.3,1.9-51.7,51.6-51.7h13.6v-24.7H865c6.5-18.4,20.1-41,51.9-41
		c33.5,0,44.6,24.8,44.6,42.2c0,11.2-4.9,37.3-33.5,37.3c-18.6,0-26-13.7-26-23.6c0-5,1.2-11.2,6.2-14.9c1.3,3.7,5,9.9,11.2,9.9
		c7.4,0,13.7-5,13.7-14.9c0-8.7-7.5-14.9-19.9-14.9c-5,0-24.8,3.7-24.8,31c0,32.2,29.8,39.7,40.9,39.7c6.2,0,47.2-5,47.2-49.7
		C976.4,532,942.9,517.1,916.9,517.1z"/>
	<path d="M83.1,477.4c27.6,0,53.4-17.3,60.3-47.9l0,0l3.1-7.3c55.2,0,70-45.8,70.1-70.1h565c0,55.2,45.8,70,70.1,70.1l5,7.3l0,0
		c6.8,30.7,32.6,47.9,60.3,47.9c26,0,59.5-14.9,59.5-55.9c0-44.6-40.9-49.6-47.2-49.6c-11.2,0-40.9,7.4-40.9,39.7
		c0,27.3,19.9,31,24.8,31c12.4,0,19.9-6.2,19.9-16.1c0-8.7-6.2-13.6-13.7-13.6c-6.2,0-9.9,6.2-11.2,8.7c-5-2.5-6.2-8.7-6.2-13.6
		c0-10,7.4-23.6,26-23.6c28.5,0,33.5,26,33.5,37.2c0,17.4-11.2,41-44.6,41c-28.6,0-42.3-16.9-49.4-33.2v-25.6l-15.7-0.1
		c-5.3,0-51.6-1.7-51.6-51.5v-18.5h-602L198,352c0,5.3-1.7,51.6-51.5,51.6h-14.3v25.9h0.1c-7.4,16.8-21.2,34.3-49.2,34.3
		c-33.5,0-44.6-24.8-44.6-42.2c0-11.2,4.9-37.3,33.5-37.3c18.6,0,26,13.7,26,23.6c0,5-1.2,11.2-6.2,14.9c-1.3-3.7-5-9.9-11.2-9.9
		c-7.4,0-13.7,5-13.7,14.9c0,8.7,7.5,14.9,19.9,14.9c5,0,24.8-3.7,24.8-31c0-32.2-29.8-39.7-40.9-39.7c-6.2,0-47.2,5-47.2,49.7
		C23.6,462.5,57.1,477.4,83.1,477.4z"/>
</g>
</svg>
