<?xml version="1.0" encoding="utf-8"?>
<!-- Generator: Adobe Illustrator 27.2.0, SVG Export Plug-In . SVG Version: 6.00 Build 0)  -->
<svg version="1.1" id="Layer_1" xmlns="http://www.w3.org/2000/svg" xmlns:xlink="http://www.w3.org/1999/xlink" x="0px" y="0px"
	 viewBox="0 0 975.2 1075" style="enable-background:new 0 0 975.2 1075;" xml:space="preserve">
<style type="text/css">
	.st0{fill:#000002;}
	.st1{fill:#000002;stroke:#000000;stroke-miterlimit:10;}
</style>
<g id="Background">
</g>
<g id="Object">
	<g>
		<path class="st0" d="M4.7,970.1c1.4,3.2,3.4,6.1,5.7,8.7c-2.8,5.8-3.2,12.7-1.2,18.8c0.8,2.5,2,4.7,3.4,6.7
			c-11.7,8.1-17.6,27.7-7.5,38.2c9,9.3,26.2,10,28.7-5.7c0.9-5.6-1.6-10.2-8-9.8c-5.7,0.4-6.8,5.3-7,10.1c-0.1,2.3,3.5,2,3.6-0.4
			c7.3-3,9.5-1.8,6.6,3.5c-4,5.1-8.6,6.7-13.8,4.6c-3.3-1.1-6.8-3.5-8.8-6.2c-5.9-7.9-2.1-21.1,4.2-28c1.3-1.4,2.7-2.6,4.3-3.6
			c4.2,4.2,9.8,6.9,15.9,8.5c8.8,2.4,17.5,2.4,25.9-0.5c0.5,0.3,1.6,1.3,2.1,1.9l0.6,0.6l0,0c0,0,0.5,0.5,0.8,1.1
			c-2.7,8.5-2.9,16.8-0.4,25.6c1.7,6.1,4.3,11.5,8.5,15.7c-1,1.6-2.2,3-3.6,4.3c-6.8,6.3-20,10.2-28,4.5c-2.8-2-5.2-5.5-6.3-8.8
			c-2.1-5.1-0.7-9.7,4.4-13.8c5.3-2.9,6.5-0.7,3.5,6.6c-2.3,0.1-2.7,3.7-0.3,3.6c4.8-0.2,9.7-1.4,10-7.1c0.4-6.3-4.3-8.8-9.9-7.8
			c-4.2,0.7-7.3,2.5-9.2,4.9c-5.3,6.5-3,17.4,3.9,23.8c10.6,9.9,30.2,3.8,38.1-8c2,1.4,4.2,2.5,6.7,3.3c6.2,1.9,13.1,1.5,18.8-1.4
			c2.6,2.3,5.5,4.2,8.8,5.6c15.6,6.8,44.5-4.6,43.4-24.8c-0.2-4.6-2.5-12.3-8.5-10.9c-5.7,1.4-5.3,8.5-0.1,9.7
			c1.3,0.3,2.4-0.3,3-1.1c-0.1,3.5-1,8.2-1.4,9.1c-1.3,2.7-3.1,4.8-5.3,6.8c-4.3,3.9-10.4,6.7-16.1,7.7c-6.7,1.2-13.8-0.9-19.4-4.9
			c1.9-1.6,3.6-3.5,5-5.8c4.9-8.4-2.8-17.5-11.6-17.7c-0.7,0-2.2,0.2-4,0.6c1.1-21.4,23.4-18.8,21.7-3.2c-0.3,2.9-2.1,5.4,0.5,7.8
			c5,4.6,9.8-1.7,10.7-6.3c1.5-7.9-0.9-4.8,4.3-3.9c1.4,0.3,3.1,0.2,4.5-0.3c2.7-1,4.4-3,5.2-5.7c0.9-3.2-0.1-7.1-1.9-9.7
			c-1.6-2.3-3.3-2.9-5.2-3.5c0.6-0.3,1.2-0.5,1.4-0.6c1.7-0.9,2.2-3.7,0.4-4.7c-6-3.5-13.7-4.7-21.1-3.8c0.7-4.6-1.8-7.3-5.2-8.9
			c-1-7.8-1-15.8-1.9-23.5c0-0.4-0.4-0.9-0.4-0.9c-0.2-0.2-0.5-0.4-0.9-0.4c-7.8-0.8-15.8-0.8-23.6-1.7c-1.6-3.4-4.3-5.9-8.9-5.1
			c0.9-7.5-0.5-15.1-4-21.1c-1.1-1.8-3.8-1.3-4.7,0.5c-0.1,0.2-0.3,0.8-0.6,1.4c-0.6-1.9-1.3-3.6-3.6-5.2c-2.7-1.8-6.5-2.7-9.7-1.8
			c-2.7,0.8-4.7,2.5-5.7,5.3c-0.5,1.4-0.5,3.1-0.3,4.6c1,5.1,4.1,2.7-3.8,4.3c-4.6,0.9-10.8,5.8-6.1,10.8c2.5,2.6,4.9,0.8,7.8,0.4
			c15.5-1.8,18.5,20.4-3,21.7c0.4-1.8,0.5-3.4,0.5-4c-0.3-8.8-9.4-16.4-17.8-11.4c-2.3,1.4-4.2,3.1-5.8,5
			c-4.1-5.6-6.2-12.6-5.2-19.4c0.9-5.6,3.6-11.8,7.5-16.2c2-2.2,4.1-4.1,6.7-5.4c0.9-0.5,5.6-1.4,9.1-1.5c-0.9,0.7-1.4,1.7-1.1,3
			c1.3,5.2,8.4,5.5,9.7-0.2c1.4-6-6.3-8.2-11-8.4C8.7,925.6-2.3,954.6,4.7,970.1z M44.3,1012.1c-7.8,0.1-17.7-2.2-24-7.4
			c4.8-1.5,10-1.7,14.8-1.1c3.4,0.5,11,3.7,16.9,7.5C49.5,1011.7,46.9,1012,44.3,1012.1z M62.9,1030.5c0-2.6,0.3-5.2,0.9-7.8
			c3.9,5.9,7.2,13.4,7.7,16.8c0.7,4.8,0.6,10.1-0.9,14.8C65.3,1048.2,62.9,1038.4,62.9,1030.5z M97.6,1042c1.6,1.3,6.2,6.1,2.3,11
			c-0.6,1.9-1.6,3.4-3.1,4.7c-3.3-3.4-5.6-7.6-6.2-12.1c-0.2-1.4-0.3-2.7-0.4-4C93.5,1041.2,96.6,1041.3,97.6,1042z M84.4,1043.1
			c0.5,2.6,1.3,5.2,2.4,7.6c-1.1,0.2-2.3,0.2-2.9-0.1c-2.3-0.8-1.6-4.4-0.8-6.3C83.3,1043.9,83.8,1043.4,84.4,1043.1z M104.8,1004
			c0.1,0.2,0,1-0.2,1.8c-7.3,2.3-13.7,6.9-17.1,13.8c-3.3,6.7-4.3,13.9-3.4,20.8c-0.3,0.2-0.5,0.3-0.7,0.5c-2.1,2-3.4,6.2-2.7,9
			c0.8,2.9,4.3,3.4,7,2.5c1.4,2.8,3.1,5.3,5,7.7c-6.1,2.4-13.8,1.1-18.8-2.6c-0.1-0.1-0.2-0.1-0.3-0.2c2.9-7.6,2.5-16.6,0.3-24.1
			c-1.2-3.9-4.2-11.5-8-16.7c3.5-7.9,9.9-14.2,18.9-16.2c4.2-0.9,9.8-2.1,14.1-1C105.5,1000.7,104.8,1004,104.8,1004z M100.3,974.2
			c0.8,6.8,0.8,13.5,1.5,20.2c-2.2-0.5-4.5-0.6-6.5-0.6c-6.3,0-12.7,0.8-17.8,3.5c2.3-5.4,3.3-11.6,3.2-17.9c0-2-0.2-4.3-0.7-6.5
			C86.7,973.5,93.6,973.6,100.3,974.2z M54.9,987.5c6.9-3.5,11.4-10,13.6-17.3c0.8-0.2,1.6-0.3,1.8-0.2c0,0,3.3-0.8,4.8,5.8
			c1.2,4.3,0,9.9-0.9,14.1c-1.9,9-8.1,15.5-15.9,19.1c-5.2-3.7-12.8-6.6-16.8-7.8c-7.5-2.1-16.4-2.4-24.1,0.6
			c-0.1-0.1-0.2-0.2-0.2-0.3c-3.8-5-5.1-12.7-2.8-18.8c2.4,1.9,4.9,3.6,7.7,4.9c-0.9,2.7-0.4,6.2,2.6,7c2.8,0.7,7-0.6,8.9-2.8
			c0.2-0.2,0.3-0.4,0.5-0.7C41.1,992,48.3,990.9,54.9,987.5z M31.5,990.7c-0.4,0.7-0.8,1.2-1.2,1.4c-1.9,0.8-5.5,1.5-6.3-0.8
			c-0.2-0.6-0.3-1.9-0.1-2.9C26.3,989.4,28.8,990.2,31.5,990.7z M21.3,975.4c4.8-3.9,9.7,0.6,11,2.2c0.7,0.9,0.9,4.1,0.6,7.3
			c-1.3,0-2.6-0.1-4-0.3c-4.5-0.6-8.7-2.8-12.2-6.1C17.9,977,19.4,976,21.3,975.4z"/>
		<path class="st0" d="M54.3,819.8c1.7,11.1,3,41-15.4,51.5c-5.9,3.4-13.2,4.7-15.8,8.2c-1.7,3-3,9.9-1.7,13c0.8,0.7,3.8-2,4.7-2.4
			c-2.3,10.6,3,26.8,15.9,23.8c-6.7-6-7.2-15.4-3.4-22.3C42.2,884.9,72.1,853.8,54.3,819.8z"/>
		<path class="st0" d="M28.8,786.2c0.2,0.1,0.4,0.2,0.7,0.3c12.8,5.6,21.9,23.3,23.1,26.7c5.7,15.8,6.3,40.5-10.8,49.6
			c-3.2,1.7-8.9,3.3-12.4,1.5c-2-1.1,0.1-2.6,2.1-3.8c-0.6,0.2-1.3,0.3-2,0.3c-1.8,0.1-3.6,0-5.4-0.4c-2.9-0.5-6-1.8-7.8-4.2
			c-1.7-2.2-2.7-5.5-2-8.3c0.3-1.1,0.9-2.5,1.9-3.2c1-0.8,1.8-0.6,2.8-0.4c0.6-2.8,1.9-6.5,5.5-5.2c0.2,0.1,0.3,0.3,0.3,0.4
			c0.6,3.5-0.2,7.3,2.1,10.4c2.7,3.6,7.3,3.5,11.3,2.8c0.9-0.2,2.2,0.5,3.1,0.3c0.3-0.1,0.6-0.2,0.9-0.1c-1-0.7-1.9-1.7-2-2.8
			c0-0.3,0-1,0.3-1c3.9-0.3,6.6-1.6,8.5-5.3c0.6-1.2,3.5-8.8,3-16.4c-0.2-2.5-1.9-15.9-8.1-25.1c-4.6-6.9-11.2-12.1-15.5-15.2
			C28.5,786.7,28.6,786.5,28.8,786.2z"/>
		<path class="st0" d="M73.8,854c2-2.4,3.4-5.5,4.4-8.5c0.6-1.8,2.2-4.8,1.5-6.8c-0.1-0.3-0.5-0.4-0.8-0.2c-1.8,1.6-3.4,3.2-5.3,4.7
			c-2.6,2-4.9,2-8,2c-1,0-1.9,0.2-2.6-0.4c-0.9-0.8-0.3-1.7-0.1-2.9c0.2-1.9-0.1-3.8-0.4-5.8c-0.8-4.8-3.2-8.4-6.2-12.1
			c-1.5-1.9-3.1-3.5-5-5c-1.2-0.9-2.5-2-4.1-1.9c-0.4,0-0.5,0.5-0.3,0.8c2.6,3.1,3.9,6.2,4.5,10.2c0.6,3.6,0.4,7.5,0.3,11.1
			c-0.1,3.5-1,6.8-1.3,10.2c-0.4,3.6-1.9,7.1-3.4,10.4c-2.9,6.3-6,12.7-7.1,19.5c-0.5,3.1-0.7,6.3-0.2,9.5c0.2,1.5,0.2,4,1.2,5.4
			c-0.1,0.2-0.1,0.3,0.1,0.5c0.1,0.1,0.2,0.2,0.3,0.4c0.2,0.3,0.7,0.3,0.9-0.1c0.8-2.5,0-5.1,0.1-7.7c0.1-3.8,1.4-7.6,2.9-11.1
			s4.6-7.1,7.7-9.4c1.8-1.4,3.7-2.4,6.1-2.5c2.5-0.1,3.9,0.7,5.6,2.5c0.3,0.3,0.7,0.2,0.9-0.1c1.2-2.3,0.5-6-0.8-8.2
			c-0.7-1.2-1.7-1.9-2.9-2.6c-1-0.5-2-0.6-3-0.9c2.7-1.4,6.5,2.3,9.1,2.4C70.1,857.4,72.3,855.8,73.8,854z"/>
		<path class="st0" d="M72.9,945.1c0.1-0.2,0.1-0.6-0.2-0.7c-5.2-2.8-9.7-5.2-15.6-5.3c-5.2-0.1-9.5,1.6-13.7,4.6
			c-3.7,2.7-6.6,6.8-6.5,11.5c0,3.3,1.7,6.6,4.1,8.9c0.5,0.8,1,1.5,1.7,2.1c2.4,2.2,6.6,3,9.5,1.4c2.2-1.3,3.1-4.2,0.9-5.9
			c-1.3-1-2.7-0.7-2.8,0.5c-0.9-1.2-1.1-4.1-1.1-5.1c-0.1-2.2,0.6-3.9,2-5.6c2.2-2.7,5.8-5.2,9.3-5.9c5.5-2.8,11.6-1,16.8,2.6
			C76,947,74.4,946,72.9,945.1z M65.6,941.9c-1.8-0.4-3.6-0.6-5.6-0.4c-8.8,0.8-18.7,4.7-20.8,14.3c-0.3,1.6-0.2,3.4,0.3,5.2
			c-1.3-2.1-2-4.6-1.7-7.1c0.7-5.1,3.9-10.1,8.7-11c7.9-1.4,9.9-2.8,13.5-2.5C62.1,940.4,63.9,941.1,65.6,941.9z"/>
		<path class="st0" d="M86.4,873.2c0-0.1,0-0.2-0.1-0.3c-0.4-0.4-0.9-0.8-1.4-1.2c-0.5-0.5-1-1-1.6-1.4c-1.3-1-2.6-1.7-4-2.1
			c-3.9-1.8-8.2-2.5-12.5-1.5c-1.3,0.3-2.5,0.8-3.7,1.4c-1.4-0.5-3,0.8-4.1,1.5c-3.5,2.2-6.5,5.1-9.1,8.3c-5.1,5.9-8.7,13.2-9.1,21
			c-0.4,7.4,1,14.5,4.1,21.3c1.5,3.4,3.3,7.1,5.6,10.1c1.1,1.5,2.5,2.6,4,3.5c2,1.1,3.7,2.2,5.6,3.6c0.4,0.3,0.8-0.1,0.8-0.4
			c6,5.7,24.8,13.4,32.3,27.2c1.6,3,1.6,6.8,0.7,10.1c-1.1,3.9-5.9,4.5-8.2,1c-1.1-1.7-1.3-3.9-1.4-5.9c0-0.1,0-0.3-0.1-0.4
			c0.1-0.8,0.5-1.4,1.5-1.9c0.8-0.4,1.6-0.4,2.4,0c0.6,0.3,1.5,1.3,0.8,1.9c-1,0.8,0.2,2.5,1.2,1.6c2.6-2.3-0.1-5.8-3-5.8
			c-1.5,0-3.1,0.8-4,2c-0.8,1.1-0.9,2.2-0.8,3.4l0,0c0,0.2,0,0.4-0.1,0.5l0,0c0,0,0,0.1,0,0.2c0,0.4,0,0.7-0.1,1.1
			c0.1,0.6,0.1,1.2,0.1,1.7c0,0.2,0,0.4,0.1,0.5c1,3.3,3.1,6.1,6.8,7c5,1.3,7.4-3.6,8.1-7.8c1.1-6-0.9-12.1-4.4-17.2
			c-0.5-0.5-1-1-1.5-1.4c-3.2-3-6.7-5.4-10.1-7.9c-2-1.1-3.8-2.2-5.5-3.7c-20.5-13.3-24.6-30.2-18-47.6
			c7.9-20.9,17.6-17.2,21.8-15.3s4.1,7.1,1.8,6c-2.3-1.1-3.6,1.1-3.6,1.1c-5,3.8-1.5,13.5,7.7,10.6
			C93.5,895.4,94.5,882.3,86.4,873.2z M61,869.3c-1.1,0.7-2.1,1.5-3,2.2c-9.3,7.4-12.2,21.2-12.1,22.1c-2.5,11-1.6,24.9,10,38
			c1.2,1.4,2.5,2.7,3.7,3.9c-0.8-0.6-1.7-1.3-2.6-1.8c-1.9-1-3.7-1.9-5.2-3.6c-2.2-2.6-3.8-6-5.3-9.1c-3-6.2-4.7-12.6-4.7-19.5
			c0-7.3,2.1-13.5,6.1-19.5c2.1-3.2,4.8-6.1,7.6-8.7C56.2,872.8,58.9,870.3,61,869.3z"/>
		<path class="st0" d="M68.1,944.4L68.1,944.4c-0.3-0.3-0.4-0.6-0.6-0.8c-1.3-1.3-3.5-2.3-4.6-2.9c-2.2-1.2-4.7-2.4-7.3-2.4
			s-5.4,0.4-7.8,1.4c-2,0.8-4.4,3-4.8,5.3l0,0c-0.4,0.2-0.9,0.4-1.2,0.7l0,0c-0.7-3.1-0.3-6.1,2-8.5c2.1-2.2,5.1-3,8-2.8
			c3.4,0.3,7.4,0.7,10.4,2.5c1.6,0.9,2.9,2.2,4.2,3.5c0.7,0.7,1.2,1.5,1.6,2.3c0.7,0.6,1.3,1.3,1.6,2.1
			C69,944.5,68.5,944.4,68.1,944.4z"/>
		<path class="st0" d="M59.3,946.3c-0.7,0.2-1.3,0.4-1.9,0.7c-1.1,0.4-2.1,1.2-2.7,2.3c1.1,2.3,2,2.9,3,1.7c0.3-0.3,0.7-0.1,0.8,0.2
			c0.3,0.5,0.3,1,0.1,1.4c0,0.1,0,0.2-0.1,0.4l-0.1,0.1c-0.5,0.9-1.4,1.6-2.1,2c-2.5,1.4-4.5,0.4-6.4-1.3c-0.1,0.1-0.3,0.1-0.5-0.1
			c-0.9-0.8-1-3.5,0.7-3.2c0.3,0.1,0.6,0.5,0.8,0.6c0.4,0.4,0.9,0.7,1.4,1c1.5,0.8,3.7,1.6,5,0.5c0.1-0.1,0.2-0.2,0.3-0.4l0,0
			c-1.6,1-4.1,0.7-4.3-1.7c-0.3-3.6,4-4.8,6.7-5.6c0.4-0.1,0.7,0.2,0.7,0.5C60.3,945.8,59.8,946,59.3,946.3z"/>
		<path class="st0" d="M183.2,1039.1c-6.9,3.6-16.4,2.9-22.2-3.9c-3.2,12.8,12.8,18.4,23.5,16.4c-0.4,0.9-3.1,3.8-2.5,4.6
			c3.1,1.4,10,0.3,13-1.4c3.5-2.5,5-9.8,8.5-15.6c10.9-18.2,40.7-16.2,51.8-14.2C221.7,1006.4,189.9,1035.7,183.2,1039.1z"/>
		<path class="st0" d="M288.2,1051c-0.1-0.2-0.1-0.2-0.2-0.5c-5.3-12.9-22.8-22.4-26.1-23.7c-15.7-6.1-40.4-7.2-49.8,9.7
			c-1.8,3.2-3.5,8.8-1.7,12.4c1,2,2.6,0,3.8-2c-0.2,0.6-0.3,1.3-0.3,2c-0.1,1.8,0,3.6,0.3,5.4c0.5,2.9,1.7,6,4,7.9
			c2.2,1.7,5.5,2.8,8.2,2.2c1.1-0.3,2.5-0.8,3.3-1.8s0.7-1.8,0.5-2.8c2.8-0.6,6.5-1.7,5.3-5.4c-0.1-0.2-0.2-0.3-0.4-0.3
			c-3.5-0.7-7.3,0-10.4-2.4c-3.5-2.7-3.4-7.4-2.6-11.4c0.2-0.9-0.5-2.2-0.2-3.1c0.1-0.3,0.2-0.6,0.1-0.9c0.6,1,1.7,1.9,2.8,2.1
			c0.3,0,1,0,1.1-0.3c0.4-3.9,1.8-6.5,5.5-8.4c1.2-0.6,8.9-3.3,16.4-2.6c2.5,0.2,15.9,2.3,25,8.6c6.8,4.8,11.8,11.2,14.7,15.6
			C287.7,1051.3,288,1051.2,288.2,1051z"/>
		<path class="st0" d="M218.1,1010.8c0.1,2.6,3.6,6.5,2.2,9.1c-0.3-1-0.3-2.1-0.8-3c-0.6-1.2-1.3-2.2-2.5-3c-2.1-1.3-5.8-2.2-8.1-1
			c-0.4,0.2-0.4,0.6-0.2,0.9c1.7,1.7,2.5,3.1,2.3,5.6c-0.1,2.3-1.2,4.2-2.6,6c-2.3,3-6,6-9.6,7.4c-3.5,1.4-7.4,2.6-11.2,2.7
			c-2.6,0-5.2-0.8-7.7,0c-0.4,0.1-0.4,0.6-0.2,0.9c0.1,0.1,0.2,0.2,0.4,0.3c0.2,0.2,0.4,0.2,0.5,0.1c1.3,1,3.8,1.1,5.3,1.3
			c3.1,0.6,6.3,0.4,9.5,0c6.9-0.9,13.4-3.9,19.7-6.6c3.3-1.4,6.8-2.9,10.5-3.2c3.4-0.3,6.8-1,10.2-1.1c3.6,0,7.5-0.1,11.1,0.5
			c4,0.7,7,2.1,10,4.8c0.3,0.2,0.8,0.1,0.8-0.3c0.1-1.5-1-2.9-1.8-4.1c-1.4-2-3-3.6-4.9-5.1c-3.7-3.1-7.2-5.6-12-6.5
			c-1.9-0.3-3.8-0.7-5.7-0.5c-1.2,0.1-2.1,0.7-2.9-0.2c-0.6-0.7-0.4-1.7-0.4-2.6c0.1-3.1,0.1-5.4,2.1-8c1.5-1.9,3.1-3.5,4.8-5.2
			c0.2-0.2,0.1-0.7-0.2-0.8c-1.9-0.7-5,0.8-6.8,1.4c-3,1-6.1,2.3-8.6,4.2C219.7,1006.2,218.1,1008.3,218.1,1010.8z"/>
		<path class="st0" d="M127.5,999c3.5,5.3,5.1,11.5,2.2,16.9c-0.8,3.5-3.3,7-6.1,9.2c-1.7,1.4-3.4,2-5.7,1.9c-1.1-0.1-4-0.3-5.1-1.2
			c1.2-0.1,1.5-1.5,0.5-2.8c-1.7-2.2-4.6-1.4-5.9,0.8c-1.7,2.9-1,7.1,1.2,9.6c0.6,0.6,1.3,1.2,2.1,1.7c2.3,2.5,5.5,4.2,8.8,4.3
			c4.7,0.1,8.9-2.6,11.7-6.3c3.1-4.1,4.9-8.4,4.9-13.6c0-6-2.3-10.5-5-15.8c-0.1-0.3-0.5-0.3-0.7-0.3
			C129.6,1002.1,128.6,1000.5,127.5,999z M135,1016.4c0.2,3.7-1.2,5.6-2.8,13.5c-1,4.8-6.1,7.9-11.2,8.5c-2.5,0.3-5-0.5-7.1-1.8
			c1.8,0.5,3.6,0.7,5.1,0.4c9.6-1.8,13.7-11.7,14.7-20.4c0.2-2,0.1-3.8-0.3-5.6C134.2,1012.7,134.9,1014.5,135,1016.4z"/>
		<path class="st0" d="M177.8,992.3c-3,9.2,6.5,12.8,10.5,7.9c0,0,2.2-1.2,1.2-3.6c-1-2.3,4.2-2.3,5.9,1.9s5.3,14-15.8,21.5
			c-17.6,6.2-34.3,1.7-47.2-19.1c-1.5-1.7-2.5-3.6-3.6-5.6c-2.4-3.4-4.7-7-7.7-10.3c-0.5-0.5-0.9-1-1.4-1.5
			c-5.1-3.6-11.1-5.7-17.1-4.8c-4.2,0.7-9.1,3-8,8c0.9,3.7,3.7,5.8,6.9,6.9c0.2,0,0.4,0,0.5,0.1c0.6,0,1.2,0.1,1.7,0.2
			c0.3-0.1,0.7-0.1,1.1-0.1c0.1,0,0.2,0,0.2,0l0,0c0.2,0,0.4,0,0.5,0l0,0c1.2,0.1,2.3,0.1,3.4-0.7c1.2-0.9,2.1-2.4,2.1-4
			c0-2.9-3.3-5.7-5.7-3.2c-0.9,0.9,0.7,2.2,1.6,1.2c0.7-0.7,1.6,0.2,1.9,0.8c0.4,0.8,0.3,1.6-0.1,2.4c-0.5,0.9-1.1,1.3-1.9,1.4
			c-0.1,0-0.2-0.1-0.4-0.1c-2-0.2-4.2-0.4-5.9-1.6c-3.5-2.3-2.8-7.1,1.2-8.1c3.3-0.9,7.1-0.8,10.1,0.9c13.6,7.7,20.9,26.7,26.5,32.9
			c-0.3,0-0.7,0.4-0.4,0.8c1.3,1.9,2.3,3.6,3.4,5.6c0.9,1.6,2,3,3.4,4.1c3,2.3,6.6,4.2,10,5.8c6.7,3.2,13.8,4.8,21.2,4.5
			c7.8-0.2,15.2-3.7,21.2-8.6c3.2-2.6,6.1-5.5,8.5-8.9c0.8-1.1,2.1-2.7,1.6-4.1c0.6-1.2,1.2-2.4,1.5-3.6c1.1-4.2,0.5-8.6-1.2-12.5
			c-0.4-1.4-1.1-2.8-2.1-4c-0.4-0.6-0.9-1.1-1.4-1.6c-0.4-0.5-0.8-1-1.2-1.4c-0.1-0.1-0.2-0.1-0.3-0.1
			C193.7,983.4,180.6,984.1,177.8,992.3z M201.7,1022.6c-2.6,2.8-5.6,5.4-8.8,7.4c-6.1,3.9-12.4,5.9-19.7,5.7
			c-6.9-0.2-13.3-2.1-19.4-5.2c-3-1.5-6.5-3.2-9-5.5c-1.6-1.5-2.5-3.3-3.5-5.2c-0.5-1-1.1-1.8-1.7-2.7c1.2,1.3,2.5,2.5,3.9,3.8
			c12.9,11.8,26.7,13.1,37.8,10.8c0.9,0.1,14.8-2.5,22.4-11.6c0.8-0.9,1.6-1.9,2.3-3C205,1019.2,202.3,1021.9,201.7,1022.6z"/>
		<path class="st0" d="M131.1,1008.4l0.1,0.1c0.2,0.2,0.5,0.4,0.7,0.5c1.3,1.3,2.3,3.5,2.8,4.7c1.1,2.3,2.3,4.7,2.3,7.3
			s-0.6,5.4-1.6,7.8c-0.9,2-3.1,4.3-5.4,4.7l0,0c-0.2,0.4-0.4,0.8-0.7,1.2l0,0c3.1,0.7,6.1,0.5,8.5-1.8c2.2-2.1,3.2-5,3-8
			c-0.2-3.4-0.5-7.4-2.2-10.4c-0.9-1.6-2.1-3-3.4-4.3c-0.7-0.7-1.5-1.2-2.3-1.7c-0.6-0.7-1.3-1.3-2-1.6
			C130.9,1007.5,131,1007.9,131.1,1008.4z"/>
		<path class="st0" d="M128.9,1017.1c-0.2,0.7-0.5,1.3-0.8,1.9c-0.4,1.1-1.2,2-2.4,2.7c-2.3-1.1-2.8-2.1-1.6-3
			c0.3-0.3,0.1-0.7-0.2-0.8c-0.5-0.3-1-0.3-1.4-0.1c-0.1,0-0.2,0-0.4,0.1l-0.1,0.1c-0.9,0.4-1.6,1.3-2.1,2c-1.4,2.4-0.5,4.5,1.2,6.4
			c-0.1,0.1-0.1,0.3,0.1,0.5c0.7,0.9,3.5,1.1,3.2-0.6c-0.1-0.3-0.4-0.6-0.6-0.8c-0.4-0.4-0.7-0.9-1-1.4c-0.8-1.5-1.5-3.7-0.4-5
			c0.1-0.1,0.2-0.2,0.4-0.3l0,0c-1,1.6-0.7,4.1,1.6,4.3c3.6,0.4,4.8-3.9,5.8-6.5c0.1-0.4-0.2-0.7-0.5-0.7
			C129.5,1016.2,129.2,1016.6,128.9,1017.1z"/>
	</g>
	<g>
		<g>
			<g>
				<path class="st1" d="M17.6,426.5c0,119.7,0.1,301.7,0.5,321.9l3.1-0.1c-0.5-28.9-0.6-388.9-0.4-424h-3.1
					C17.6,334.8,17.6,374.9,17.6,426.5z"/>
			</g>
		</g>
		<g>
			<g>
				<path class="st0" d="M37.7,289.8c0-0.1,0-0.2-0.1-0.2c-0.7,0-1.3,0-2-0.1c-0.9-0.1-1.4-0.6-2-1.2c-0.2-0.2-0.4-0.3-0.5-0.6
					c0-0.3,0.3-0.4,0.5-0.6c0.4-0.3,0.7-0.8,1-1.2c0.8-1.1,1-2.3,1.1-3.7c0.1-0.7,0.1-1.3,0-2c-0.1-0.4-0.1-0.9-0.4-1.2
					c-0.1-0.1-0.2,0-0.2,0.1c-0.1,1.1-0.4,2-1.1,2.9c-0.6,0.8-1.4,1.6-2.1,2.3c-0.7,0.7-1.5,1.2-2.3,1.8c-0.8,0.7-1.8,1.1-2.7,1.4
					c-1.8,0.7-3.7,1.4-5.2,2.6c-1.4,1.1-2.3,2.8-2.5,3.4c-0.3,0.2-0.6,0.4-0.9,0.7c-0.9,0.9-1.7,1.8-2.3,2.9c0-0.4,0-0.8,0-1.2
					c-0.1-2.4-1.4-4.2-3.4-5.4c-3.7-2.1-7.9,0.4-7.6,4.5c0.1,0.9,1.4,0.9,1.4,0c-0.1-2.4,2.9,0.1,3.5,1.1c1.5,2.3,1.9,4.2,1.9,6.5
					c-0.1,0-0.3,0-0.4,0c-0.8,0-1.3,0.4-1.8,0.9c-0.1,0.1-0.2,0.1-0.2,0.1s0,0,0,0.1c0,0,0,0.1-0.1,0.1c-1.2-0.1-2.4,0.2-3.3,1.1
					c-0.6,0.7-0.9,1.7-0.9,2.6C5,307.8,5,308,5,308.2c0.1,0.9,0.7,1.9,1.7,2.1c0.7,0.2,1.4-0.2,1.3-1c-0.1-0.5-0.4-0.7-0.7-0.4
					c0-0.4,0.6-1,0.8-1.3c0.3-0.3,0.5-0.5,0.8-0.6l0,0c0.1,0.7,0.3,1.3,1,1.5c0.2,0.1,0.5,0.1,0.8,0l0,0c0,0,0.1,0,0.1-0.1
					c0.1-0.1,0.2-0.2,0.3-0.3c0-0.1,0-0.2-0.1-0.2c-0.4,0.1-0.5-0.2-0.3-0.9c0.4-0.1,0.7-0.1,1,0.1c0.3,0.1,0.5,0.2,0.8,0.4l0,0
					c0,0,0,0,0.1,0c0.1,0.1,0.3,0.2,0.4,0.3c0.3,0.3,0.5,0.6,0.7,0.9c0.2,0.5,0.4,1,0.4,1.6c0,0.7,0.2,1.8-0.1,2.7
					c-0.5-0.2-1,0.3-0.7,0.8c0.5,0.7,1.7-0.6,1.9-1c0.4-0.9,0.2-2-0.1-3c0,0,0.1,0,0.1-0.1c1.3,5.1,4.1,8.2,4.6,10.2
					c0.4,1.6-0.8,1.9-1.8,1.8c-3.4-2.3-9.6-1.3-11.7,2c-0.9,1.4-1.4,3.9,0.6,4.7c1.8,0.8,3.9-0.2,4.9-1.9c0.2-0.3,0.1-0.6-0.1-0.8
					c-0.4-0.3-0.5-0.4-1-0.6c-0.8-0.3-1.1,0.9-0.5,1.3c-0.4,0.4-0.9,0.8-1.5,0.9c-2,0.3-2-2.1-1-3.2c0.9-0.9,2-1.7,3.3-1.9
					c1.7-0.3,4.1-0.3,5.9,0.5c0.3,0.4,0.7,0.8,1.3,0.9c0.1,0.1,0.2,0.1,0.3,0.1c2.1,0.5,4.9-1.1,0.6-7.8
					c-6.6-10.2-3.1-16.4,2.9-19.3c5.7-2.7,6.9,0,7.4,1.2s-0.5,2.2-0.8,1.6c-0.3-0.7-0.9-0.5-0.9-0.5c-1.7-0.2-2.9,2.4-0.5,3.6
					c2.2,1.1,4.9-1.3,5.1-4.8c0,0,0,0,0-0.1c0-0.2,0-0.3,0-0.5s0-0.4-0.1-0.6c-0.1-0.4-0.2-0.8-0.4-1.2c-0.4-1.1-1.2-2.1-2.2-2.7
					c-0.3-0.2-0.7-0.3-1-0.4c-0.2-0.4-0.7-0.4-1.1-0.5c-1.1-0.2-2.3-0.2-3.5-0.1c-1.5,0.1-3,0.6-4.3,1.3c0.3-0.3,0.5-0.6,0.8-0.9
					c0.8-0.7,1.8-1.3,2.8-1.7c1-0.4,2.3-0.5,3.4-0.4c0.6,0.1,1.2,0.2,1.7,0.7s0.6,0.9,0.6,1.6c0,0.1,0.1,0.2,0.2,0.1
					c0.7-0.2,1.3-1.1,1.4-1.8c0.1-0.4,0-0.7-0.1-1.1c-0.1-0.3-0.3-0.5-0.4-0.8c0.8,0.2,0.9,1.7,1.4,2.3c0.5,0.5,1.2,0.6,1.9,0.5
					c0.9-0.1,1.8-0.5,2.5-0.8C36.6,290.6,37.5,290.3,37.7,289.8z M10.3,305c-1.2-0.3-2.5-0.2-3.7,0.5c-0.4,0.2-0.7,0.6-0.9,1.1
					c0.2-0.7,0.5-1.3,1.1-1.8c0.9-0.7,1.9-0.8,3-0.7c0,0.1,0.1,0.2,0.2,0.3C10,304.7,10.1,304.9,10.3,305z M23,292.3
					c1.1-0.2,2.2-0.3,3.2-0.3c0.2,0,1.3,0,1.9,0.2c-0.4-0.1-0.7-0.1-1-0.1c-3.3-0.3-6.6,1.9-6.8,2.1c-2.7,1.7-5.2,4.7-5.4,9.6
					c0,0.5,0,1,0,1.5c0-0.3-0.1-0.6-0.2-0.9c-0.1-0.2,0.3-0.4,0.2-0.6c0.1-1-0.2-2.1,0.2-3.1s0.7-1.9,0.8-2.8c0.5-1,1.2-2,2-2.9
					C19.4,293.6,21.1,292.7,23,292.3z"/>
			</g>
		</g>
		<g>
			<g>
				<path class="st0" d="M36.1,781c-0.8-0.4-1.7-0.8-2.5-0.8c-0.7-0.1-1.4,0-1.9,0.5c-0.5,0.5-0.5,2-1.4,2.3
					c0.1-0.2,0.3-0.5,0.4-0.8c0.1-0.4,0.2-0.7,0.1-1.1c-0.2-0.7-0.7-1.6-1.4-1.8c-0.1,0-0.2,0-0.2,0.1c0,0.7-0.1,1.1-0.6,1.6
					c-0.5,0.4-1.1,0.6-1.7,0.7c-1.1,0.1-2.4,0-3.4-0.4s-2-0.9-2.8-1.7c-0.3-0.3-0.5-0.6-0.8-0.9c1.3,0.7,2.8,1.2,4.3,1.3
					c1.2,0.1,2.3,0.1,3.5-0.1c0.4-0.1,0.9-0.1,1.1-0.5c0.4-0.1,0.7-0.2,1-0.4c1.1-0.6,1.8-1.6,2.2-2.7c0.2-0.4,0.3-0.8,0.4-1.2
					c0-0.2,0-0.4,0.1-0.6c0-0.2,0-0.3,0-0.5v-0.1c-0.2-3.4-2.9-5.9-5.1-4.8c-2.4,1.2-1.2,3.8,0.5,3.6c0,0,0.7,0.2,0.9-0.5
					c0.3-0.7,1.3,0.4,0.8,1.6c-0.5,1.2-1.7,3.8-7.4,1.2c-6-2.8-9.6-9-2.9-19.3c4.3-6.6,1.6-8.3-0.6-7.8c-0.1,0-0.2,0-0.3,0.1
					c-0.6,0.2-1,0.5-1.3,0.9c-1.7,0.9-4.1,0.8-5.9,0.5c-1.3-0.2-2.4-1-3.3-1.9c-1.1-1.1-1-3.5,1-3.2c0.6,0.1,1.1,0.5,1.5,0.9
					c-0.7,0.4-0.3,1.6,0.5,1.3c0.5-0.2,0.6-0.3,1-0.6c0.2-0.2,0.3-0.6,0.1-0.8c-1-1.6-3-2.6-4.9-1.9c-2,0.8-1.5,3.3-0.6,4.7
					c2.2,3.3,8.3,4.3,11.7,2c1,0,2.2,0.2,1.8,1.8c-0.5,2-3.3,5-4.6,10.2c0,0,0-0.1-0.1-0.1c0.3-1,0.5-2.1,0.1-3
					c-0.2-0.4-1.4-1.7-1.9-1c-0.3,0.5,0.2,1,0.7,0.8c0.3,0.8,0.1,1.9,0.1,2.7c0,0.5-0.2,1.1-0.4,1.6c-0.2,0.3-0.4,0.6-0.7,0.9
					c-0.1,0.1-0.2,0.2-0.4,0.3c0,0,0,0-0.1,0l0,0c-0.3,0.1-0.5,0.3-0.8,0.4c-0.3,0.1-0.6,0.2-1,0.1c-0.2-0.7-0.1-1,0.3-0.9
					c0.1,0,0.1-0.1,0.1-0.2c0-0.1-0.1-0.2-0.3-0.3c0,0,0,0-0.1-0.1l0,0c-0.3-0.1-0.6-0.1-0.8,0c-0.8,0.2-1,0.8-1,1.5l0,0
					c-0.3-0.1-0.6-0.3-0.8-0.6c-0.2-0.2-0.7-0.8-0.8-1.3c0.3,0.2,0.6,0,0.7-0.4c0.1-0.8-0.6-1.2-1.3-1c-0.9,0.2-1.6,1.2-1.7,2.1
					c0,0.2,0,0.5,0.1,0.7c0,0.9,0.3,1.9,0.9,2.6c0.8,0.9,2.1,1.2,3.3,1.1c0,0,0,0.1,0.1,0.1v0.1c0,0,0,0.1,0.2,0.1
					c0.4,0.5,1,0.9,1.8,0.9c0.1,0,0.3,0,0.4,0c0,2.4-0.4,4.2-1.9,6.5c-0.6,0.9-3.6,3.5-3.5,1.1c0.1-0.9-1.3-0.9-1.4,0
					c-0.3,4.1,3.9,6.6,7.6,4.5c2-1.2,3.2-3,3.4-5.4c0-0.4,0-0.8,0-1.2c0.6,1.1,1.4,2,2.3,2.9c0.3,0.3,0.6,0.5,0.9,0.7
					c0.2,0.6,1.1,2.3,2.5,3.4c1.5,1.2,3.4,1.9,5.2,2.6c0.9,0.4,1.9,0.8,2.7,1.4c0.7,0.6,1.6,1.1,2.3,1.8c0.7,0.7,1.5,1.5,2.1,2.3
					c0.7,0.9,1,1.8,1.1,2.9c0,0.1,0.1,0.2,0.2,0.1c0.3-0.3,0.4-0.8,0.4-1.2c0.1-0.7,0.1-1.3,0-2c-0.1-1.3-0.3-2.5-1.1-3.7
					c-0.3-0.4-0.6-0.9-1-1.2c-0.3-0.2-0.6-0.3-0.5-0.6c0-0.3,0.3-0.4,0.5-0.6c0.6-0.6,1.1-1.1,2-1.2c0.7-0.1,1.3-0.1,2-0.1
					c0.1,0,0.2-0.1,0.1-0.2C37.5,781.6,36.6,781.3,36.1,781z M9.9,767.4c-0.1,0.1-0.1,0.2-0.2,0.3c-1,0.1-2.1,0-3-0.7
					c-0.6-0.4-0.9-1.1-1.1-1.8c0.2,0.5,0.6,0.9,0.9,1.1c1.2,0.8,2.4,0.9,3.7,0.5C10.1,767,10,767.2,9.9,767.4z M18,776.9
					c-0.8-0.9-1.5-1.8-2-2.9c-0.1-0.9-0.4-1.8-0.8-2.8c-0.4-0.9,0-2.1-0.2-3.1c0.1-0.2-0.3-0.4-0.2-0.6c0.1-0.3,0.1-0.6,0.2-0.9
					c0,0.5,0,1,0,1.5c0.2,4.9,2.7,7.9,5.4,9.6c0.1,0.2,3.4,2.4,6.8,2.1c0.3,0,0.7-0.1,1-0.1c-0.6,0.2-1.7,0.2-1.9,0.2
					c-1.1,0-2.2,0-3.2-0.3C21.1,779.2,19.4,778.3,18,776.9z"/>
			</g>
		</g>
	</g>
	<g>
		<path class="st0" d="M28.9,148.7c4.6-0.2,12.4-2.4,11-8.4c-1.3-5.7-8.4-5.4-9.7-0.2c-0.3,1.3,0.2,2.4,1.1,3
			c-3.5-0.1-8.2-1.1-9.1-1.5c-2.7-1.3-4.8-3.2-6.7-5.4c-3.8-4.3-6.6-10.5-7.5-16.2c-1.1-6.7,1.1-13.8,5.2-19.4
			c1.6,1.9,3.5,3.7,5.8,5c8.4,5,17.5-2.6,17.8-11.4c0-0.7-0.2-2.3-0.5-4c21.4,1.3,18.5,23.6,3,21.7c-2.9-0.3-5.3-2.2-7.8,0.4
			c-4.7,5,1.5,9.9,6.1,10.8c7.9,1.6,4.8-0.8,3.8,4.3c-0.3,1.4-0.2,3.1,0.3,4.6c0.9,2.7,3,4.5,5.7,5.3c3.2,0.9,7.1,0,9.7-1.8
			c2.3-1.5,3-3.3,3.6-5.2c0.3,0.6,0.5,1.2,0.6,1.4c0.9,1.8,3.6,2.2,4.7,0.5c3.5-5.9,4.9-13.6,4-21.1c4.6,0.7,7.3-1.7,8.9-5.1
			c7.8-0.9,15.8-0.9,23.6-1.7c0.4,0,0.7-0.2,0.9-0.4c0,0,0.3-0.5,0.4-0.9c0.9-7.8,0.9-15.7,1.9-23.5c3.5-1.5,5.9-4.3,5.2-8.9
			c7.4,1,15.1-0.3,21.1-3.8c1.8-1,1.3-3.8-0.4-4.7c-0.2-0.1-0.8-0.3-1.4-0.6c1.9-0.6,3.7-1.3,5.2-3.5c1.8-2.6,2.8-6.5,1.9-9.7
			c-0.8-2.7-2.5-4.8-5.2-5.7c-1.4-0.5-3.1-0.6-4.5-0.3c-5.1,0.9-2.8,4.1-4.3-3.9c-0.9-4.6-5.7-10.9-10.7-6.3
			c-2.7,2.4-0.9,4.9-0.5,7.8c1.7,15.5-20.6,18.2-21.7-3.2c1.8,0.4,3.4,0.6,4,0.6c8.8-0.2,16.5-9.2,11.6-17.7c-1.3-2.3-3-4.2-5-5.8
			c5.6-4,12.7-6.1,19.4-4.9c5.6,1,11.8,3.8,16.1,7.7c2.2,2,4,4.1,5.3,6.8c0.4,0.9,1.4,5.6,1.4,9.1c-0.6-0.9-1.7-1.4-3-1.1
			c-5.2,1.3-5.6,8.3,0.1,9.7c6,1.5,8.3-6.2,8.5-10.9C149.9,10,121-1.3,105.4,5.5c-3.2,1.4-6.2,3.3-8.8,5.6C90.9,8.2,84,7.8,77.8,9.7
			c-2.5,0.8-4.7,1.9-6.7,3.3C63.2,1.2,43.6-5,32.9,5C26,11.5,23.7,22.4,29,28.8c2,2.4,5,4.2,9.2,4.9c5.6,1,10.3-1.5,9.9-7.8
			c-0.3-5.7-5.2-6.9-10-7.1c-2.3-0.1-2,3.5,0.3,3.6c2.9,7.3,1.7,9.5-3.5,6.6c-5.1-4.1-6.5-8.7-4.4-13.8c1.2-3.3,3.6-6.8,6.3-8.8
			c8-5.8,21.2-1.9,28,4.5c1.4,1.3,2.6,2.7,3.6,4.3c-4.2,4.1-6.9,9.6-8.5,15.7c-2.5,8.8-2.3,17.2,0.4,25.6c-0.4,0.5-0.8,1.1-0.8,1.1
			l0,0l-0.6,0.5c-0.6,0.5-1.6,1.5-2.1,1.9c-8.4-2.8-17.1-2.8-25.9-0.5C24.8,61.1,19.2,63.8,15,68c-1.6-1-3-2.1-4.3-3.6
			c-6.3-6.9-10-20.1-4.2-28c2-2.8,5.5-5.1,8.8-6.2c5.1-2.1,9.7-0.6,13.8,4.6c2.9,5.3,0.7,6.5-6.6,3.5c-0.1-2.3-3.7-2.7-3.6-0.4
			c0.2,4.8,1.3,9.7,7,10.1c6.3,0.4,8.9-4.2,8-9.8c-2.5-15.7-19.8-15.1-28.7-5.7C-5,43.1,0.9,62.7,12.6,70.8
			c-1.4,1.9-2.6,4.2-3.4,6.7c-2,6.2-1.6,13,1.2,18.8c-2.3,2.6-4.2,5.5-5.7,8.7C-2.3,120.5,8.7,149.5,28.9,148.7z M52,64
			c-5.9,3.8-13.5,7.1-16.9,7.5C30.3,72.2,25,72,20.3,70.4c6.3-5.3,16.2-7.6,24-7.4C46.9,63.1,49.5,63.4,52,64z M70.7,20.6
			c1.5,4.8,1.6,10,0.9,14.8c-0.5,3.4-3.8,11-7.7,16.8c-0.6-2.5-0.9-5.1-0.9-7.8C62.9,36.7,65.3,26.9,70.7,20.6z M90.3,33.5
			c0.1-1.3,0.2-2.6,0.4-4c0.6-4.5,2.9-8.7,6.2-12.1c1.5,1.2,2.5,2.7,3.1,4.7c3.9,4.9-0.7,9.7-2.3,11C96.6,33.8,93.5,33.9,90.3,33.5z
			 M83.1,30.8c-0.8-1.9-1.4-5.5,0.8-6.3c0.6-0.2,1.9-0.3,2.9-0.1c-1.1,2.4-1.9,5-2.4,7.6C83.8,31.7,83.3,31.2,83.1,30.8z M98.9,75.8
			c-4.4,1.1-9.9-0.1-14.1-1c-9-2-15.4-8.3-18.9-16.2c3.8-5.2,6.8-12.7,8-16.7c2.2-7.5,2.6-16.4-0.3-24.1c0.1-0.1,0.2-0.1,0.3-0.2
			c5-3.7,12.7-5,18.8-2.6c-2,2.3-3.7,4.9-5,7.7c-2.7-0.9-6.2-0.4-7,2.5c-0.7,2.8,0.5,7,2.7,9c0.2,0.2,0.4,0.3,0.7,0.5
			c-0.9,6.9,0.1,14.1,3.4,20.8c3.5,6.9,9.9,11.5,17.1,13.8c0.2,0.8,0.3,1.6,0.2,1.8C104.8,71.1,105.5,74.4,98.9,75.8z M80,102.2
			c0.5-2.2,0.7-4.5,0.7-6.5c0-6.3-0.9-12.5-3.2-17.9c5.1,2.7,11.5,3.4,17.8,3.5c2,0,4.3-0.1,6.5-0.6c-0.7,6.7-0.7,13.4-1.5,20.2
			C93.6,101.5,86.7,101.6,80,102.2z M34.1,84c-0.2-0.3-0.3-0.5-0.5-0.7c-2-2.2-6.1-3.5-8.9-2.8c-3,0.7-3.5,4.3-2.6,7
			c-2.8,1.3-5.4,3-7.7,4.9c-2.3-6.1-1-13.8,2.8-18.8c0.1-0.1,0.1-0.2,0.2-0.3c7.6,3,16.5,2.7,24.1,0.6c3.9-1.1,11.5-4,16.8-7.8
			c7.8,3.6,14,10.1,15.9,19.1c0.9,4.3,2,9.8,0.9,14.1c-1.5,6.6-4.7,5.8-4.8,5.8c-0.2,0.1-1,0-1.8-0.2c-2.2-7.3-6.7-13.7-13.6-17.3
			C48.3,84.2,41.1,83.1,34.1,84z M23.8,86.7c-0.2-1.1-0.1-2.3,0.1-2.9c0.9-2.3,4.5-1.6,6.3-0.8c0.5,0.2,0.9,0.7,1.2,1.4
			C28.8,84.9,26.3,85.7,23.8,86.7z M16.7,96.6c3.5-3.2,7.7-5.5,12.2-6.1c1.4-0.2,2.7-0.3,4-0.3c0.3,3.2,0.2,6.4-0.6,7.3
			c-1.3,1.6-6.2,6.1-11,2.2C19.4,99.1,17.9,98.1,16.7,96.6z"/>
		<path class="st0" d="M54.3,255.3c1.7-11.1,3-41-15.4-51.5c-5.9-3.4-13.2-4.7-15.8-8.2c-1.7-3-3-9.9-1.7-13c0.8-0.7,3.8,2,4.7,2.4
			c-2.3-10.6,3-26.8,15.9-23.8c-6.7,6-7.2,15.4-3.4,22.3C42.2,190.2,72.1,221.3,54.3,255.3z"/>
		<path class="st0" d="M28.8,288.9c0.2-0.1,0.4-0.2,0.7-0.3c12.8-5.6,21.9-23.3,23.1-26.7c5.7-15.8,6.3-40.5-10.8-49.6
			c-3.2-1.7-8.9-3.3-12.4-1.5c-2,1.1,0.1,2.6,2.1,3.8c-0.6-0.2-1.3-0.3-2-0.3c-1.8-0.1-3.6,0-5.4,0.4c-2.9,0.5-6,1.8-7.8,4.2
			c-1.7,2.2-2.7,5.5-2,8.3c0.3,1.1,0.9,2.5,1.9,3.2c1,0.8,1.8,0.6,2.8,0.4c0.6,2.8,1.9,6.5,5.5,5.2c0.2-0.1,0.3-0.3,0.3-0.4
			c0.6-3.5-0.2-7.3,2.1-10.4c2.7-3.6,7.3-3.5,11.3-2.8c0.9,0.2,2.2-0.5,3.1-0.3c0.3,0.1,0.6,0.2,0.9,0.1c-1,0.7-1.9,1.7-2,2.8
			c0,0.3,0,1,0.3,1c3.9,0.3,6.6,1.6,8.5,5.3c0.6,1.2,3.5,8.8,3,16.4c-0.2,2.5-1.9,15.9-8.1,25.1c-4.6,6.9-11.2,12.1-15.5,15.2
			C28.5,288.4,28.6,288.6,28.8,288.9z"/>
		<path class="st0" d="M42.8,221.9c0.1,0,0.2-0.1,0.3-0.1H43L42.8,221.9z"/>
		<path class="st0" d="M73.8,221.1c2,2.4,3.4,5.5,4.4,8.5c0.6,1.8,2.2,4.8,1.5,6.8c-0.1,0.3-0.5,0.4-0.8,0.2
			c-1.8-1.6-3.4-3.2-5.3-4.7c-2.6-2-4.9-2-8-2c-1,0-1.9-0.2-2.6,0.4c-0.9,0.8-0.3,1.7-0.1,2.9c0.2,1.9-0.1,3.8-0.4,5.8
			c-0.8,4.8-3.2,8.4-6.2,12.1c-1.5,1.9-3.1,3.5-5,5c-1.2,0.9-2.5,2-4.1,1.9c-0.4,0-0.5-0.5-0.3-0.8c2.6-3.1,3.9-6.2,4.5-10.2
			c0.6-3.6,0.4-7.5,0.3-11.1c-0.1-3.5-1-6.8-1.3-10.2c-0.4-3.6-1.9-7.1-3.4-10.4c-2.9-6.3-6-12.7-7.1-19.5c-0.5-3.1-0.7-6.3-0.2-9.5
			c0.2-1.5,0.2-4,1.2-5.4c-0.1-0.2-0.1-0.3,0.1-0.5c0.1-0.1,0.2-0.2,0.3-0.4c0.2-0.3,0.7-0.3,0.9,0.1c0.8,2.5,0,5.1,0.1,7.7
			c0.1,3.8,1.4,7.6,2.9,11.1s4.6,7.1,7.7,9.4c1.8,1.4,3.7,2.4,6.1,2.5c2.5,0.1,3.9-0.7,5.6-2.5c0.3-0.3,0.7-0.2,0.9,0.1
			c1.2,2.3,0.5,6-0.8,8.2c-0.7,1.2-1.7,1.9-2.9,2.6c-1,0.5-2,0.6-3,0.9c2.7,1.4,6.5-2.3,9.1-2.4C70.1,217.7,72.3,219.3,73.8,221.1z"
			/>
		<path class="st0" d="M77.3,126.9c-5.3,3.6-11.4,5.4-16.8,2.6c-3.5-0.7-7.1-3.1-9.3-5.9c-1.4-1.7-2.1-3.4-2-5.6
			c0-1.1,0.2-4,1.1-5.1c0.1,1.2,1.5,1.5,2.8,0.5c2.2-1.7,1.3-4.6-0.9-5.9c-2.9-1.7-7.2-0.8-9.5,1.4c-0.6,0.6-1.2,1.3-1.7,2.1
			c-2.4,2.3-4.1,5.6-4.1,8.9c0,4.7,2.8,8.8,6.5,11.5c4.2,3,8.5,4.7,13.7,4.6c6-0.1,10.5-2.6,15.6-5.3c0.3-0.2,0.3-0.5,0.2-0.7
			C74.4,129.1,76,128.1,77.3,126.9z M60.2,134.8c-3.7,0.3-5.6-1.1-13.5-2.5c-4.8-0.9-8.1-5.9-8.7-11c-0.3-2.5,0.4-5,1.7-7.1
			c-0.5,1.8-0.6,3.6-0.3,5.2c2,9.5,12,13.4,20.8,14.3c2,0.2,3.8,0,5.6-0.4C63.9,134,62.1,134.7,60.2,134.8z"/>
		<path class="st0" d="M85.2,177.1c-9.2-2.8-12.7,6.8-7.7,10.6c0,0,1.3,2.2,3.6,1.1c2.3-1.1,2.4,4.1-1.8,6
			c-4.2,1.9-13.9,5.6-21.8-15.3c-6.6-17.4-2.5-34.3,18-47.6c1.6-1.5,3.5-2.6,5.5-3.7c3.4-2.5,6.9-4.9,10.1-7.9c0.5-0.5,1-1,1.5-1.4
			c3.5-5.1,5.5-11.2,4.4-17.2c-0.7-4.2-3.2-9.1-8.1-7.8c-3.7,1-5.7,3.8-6.8,7c0,0.2,0,0.4-0.1,0.5c0,0.6-0.1,1.2-0.1,1.7
			c0.1,0.3,0.1,0.7,0.1,1.1c0,0.1,0,0.2,0,0.2l0,0c0,0.2,0,0.4,0.1,0.5l0,0c-0.1,1.2,0,2.3,0.8,3.4c0.9,1.2,2.5,2,4,2
			c2.9,0,5.7-3.5,3-5.8c-1-0.9-2.1,0.8-1.2,1.6c0.7,0.7-0.2,1.6-0.8,1.9c-0.8,0.4-1.6,0.3-2.4,0c-1-0.5-1.3-1.1-1.5-1.9
			c0-0.1,0.1-0.2,0.1-0.4c0.1-2,0.3-4.2,1.4-5.9c2.2-3.5,7.1-2.9,8.2,1c0.9,3.3,0.9,7.1-0.7,10.1c-7.4,13.8-26.3,21.5-32.3,27.2
			c0-0.3-0.4-0.7-0.8-0.4c-1.8,1.3-3.6,2.4-5.6,3.6c-1.6,0.9-3,2-4,3.5c-2.3,3-4,6.7-5.6,10.1c-3,6.8-4.5,13.9-4.1,21.3
			c0.4,7.8,4.1,15.1,9.1,21c2.7,3.1,5.7,6,9.1,8.3c1.1,0.7,2.7,2,4.1,1.5c1.2,0.6,2.4,1.1,3.7,1.4c4.3,1,8.6,0.3,12.5-1.5
			c1.4-0.5,2.7-1.2,4-2.1c0.6-0.5,1.1-0.9,1.6-1.4c0.5-0.4,0.9-0.8,1.4-1.2c0.1-0.1,0.1-0.2,0.1-0.3
			C94.5,192.8,93.5,179.6,85.2,177.1z M55.5,201.7c-2.9-2.6-5.5-5.5-7.6-8.7c-4.1-6-6.2-12.2-6.1-19.5c0-6.9,1.8-13.3,4.7-19.5
			c1.5-3.1,3.1-6.5,5.3-9.1c1.4-1.6,3.3-2.6,5.2-3.6c1-0.5,1.8-1.1,2.6-1.8c-1.2,1.2-2.5,2.5-3.7,3.9c-11.5,13.1-12.5,27-10,38
			c-0.1,0.9,2.8,14.7,12.1,22.1c1,0.8,2,1.5,3,2.2C58.9,204.8,56.2,202.3,55.5,201.7z"/>
		<path class="st0" d="M68.1,130.7l-0.1,0.1c-0.2,0.2-0.3,0.5-0.5,0.7c-1.3,1.3-3.5,2.3-4.6,2.9c-2.2,1.2-4.7,2.4-7.3,2.4
			s-5.4-0.4-7.8-1.4c-2-0.8-4.4-3-4.8-5.3l0,0c-0.4-0.2-0.9-0.4-1.2-0.7l0,0c-0.7,3.1-0.3,6.1,2,8.5c2.1,2.2,5.1,3,8,2.8
			c3.4-0.3,7.4-0.7,10.4-2.5c1.6-0.9,2.9-2.2,4.2-3.5c0.7-0.7,1.2-1.5,1.6-2.3c0.7-0.6,1.3-1.3,1.6-2.1
			C69,130.6,68.5,130.7,68.1,130.7z"/>
		<path class="st0" d="M59.3,128.8c-0.7-0.2-1.3-0.4-1.9-0.7c-1.1-0.4-2.1-1.2-2.7-2.3c1.1-2.3,2-2.9,3-1.7c0.3,0.3,0.7,0.1,0.8-0.2
			c0.3-0.5,0.3-1,0.1-1.4c0-0.1,0-0.2-0.1-0.4l-0.1-0.1c-0.5-0.9-1.4-1.6-2.1-2c-2.5-1.4-4.5-0.4-6.4,1.3c-0.1-0.1-0.3-0.1-0.5,0.1
			c-0.9,0.8-1,3.5,0.7,3.2c0.3-0.1,0.6-0.5,0.8-0.6c0.4-0.4,0.9-0.7,1.4-1c1.5-0.8,3.7-1.6,5-0.5c0.1,0.1,0.2,0.2,0.3,0.4l0,0
			c-1.6-1-4.1-0.7-4.3,1.7c-0.3,3.6,4,4.8,6.7,5.6c0.4,0.1,0.7-0.2,0.7-0.5C60.3,129.3,59.8,129.1,59.3,128.8z"/>
		<path class="st0" d="M183.2,36c-6.9-3.6-16.4-2.9-22.2,3.9c-3.2-12.8,12.8-18.4,23.5-16.4c-0.4-0.9-3.1-3.8-2.5-4.6
			c3.1-1.4,10-0.3,13,1.4c3.5,2.5,5,9.8,8.5,15.6c10.9,18.2,40.7,16.2,51.8,14.2C221.7,68.7,189.9,39.4,183.2,36z"/>
		<path class="st0" d="M288.3,24.8c-0.1,0.2-0.2,0.4-0.3,0.7c-5.3,12.9-22.8,22.4-26.1,23.7c-15.7,6.1-40.4,7.2-49.8-9.7
			c-1.8-3.2-3.5-8.8-1.7-12.4c1-2,2.6,0,3.8,2c-0.2-0.6-0.3-1.3-0.3-2c-0.1-1.8,0-3.6,0.3-5.4c0.5-2.9,1.7-6,4-7.9
			c2.2-1.7,5.5-2.8,8.2-2.2c1.1,0.3,2.5,0.8,3.3,1.8s0.7,1.8,0.5,2.8c2.8,0.6,6.5,1.7,5.3,5.4c-0.1,0.2-0.2,0.3-0.4,0.3
			c-3.5,0.7-7.3,0-10.4,2.4c-3.5,2.7-3.4,7.4-2.6,11.4c0.2,0.9-0.5,2.2-0.2,3.1c0.1,0.3,0.2,0.6,0.1,0.9c0.6-1,1.7-1.9,2.8-2.1
			c0.3,0,1,0,1.1,0.3c0.4,3.9,1.8,6.5,5.5,8.4c1.2,0.6,8.9,3.3,16.4,2.6c2.5-0.2,15.9-2.3,25-8.6c6.8-4.8,11.9-11.5,14.8-15.8
			C287.8,24.6,288.1,24.7,288.3,24.8z"/>
		<path class="st0" d="M218.1,64.3c0.1-2.6,3.6-6.5,2.2-9.1c-0.3,1-0.3,2.1-0.8,3c-0.6,1.2-1.3,2.2-2.5,3c-2.1,1.3-5.8,2.2-8.1,1
			c-0.4-0.2-0.4-0.6-0.2-0.9c1.7-1.7,2.5-3.1,2.3-5.6c-0.1-2.3-1.2-4.2-2.6-6c-2.3-3-6-6-9.6-7.4c-3.5-1.4-7.4-2.6-11.2-2.7
			c-2.6,0-5.2,0.8-7.7,0c-0.4-0.1-0.4-0.6-0.2-0.9c0.1-0.1,0.2-0.2,0.4-0.3c0.2-0.2,0.4-0.2,0.5-0.1c1.3-1,3.8-1.1,5.3-1.3
			c3.1-0.6,6.3-0.4,9.5,0c6.9,0.9,13.4,3.9,19.7,6.6c3.3,1.4,6.8,2.9,10.5,3.2c3.4,0.3,6.8,1,10.2,1.1c3.6,0,7.5,0.1,11.1-0.5
			c4-0.7,7-2.1,10-4.8c0.3-0.2,0.8-0.1,0.8,0.3c0.1,1.5-1,2.9-1.8,4.1c-1.4,2-3,3.6-4.9,5.1c-3.7,3.1-7.2,5.6-12,6.5
			c-1.9,0.3-3.8,0.7-5.7,0.5c-1.2-0.1-2.1-0.7-2.9,0.2c-0.6,0.7-0.4,1.7-0.4,2.6c0.1,3.1,0.1,5.4,2.1,8c1.5,1.9,3.1,3.5,4.8,5.2
			c0.2,0.2,0.1,0.7-0.2,0.8c-1.9,0.7-5-0.8-6.8-1.4c-3-1-6.1-2.3-8.6-4.2C219.7,68.9,218.1,66.8,218.1,64.3z"/>
		<path class="st0" d="M130.5,71.5c0.2,0.1,0.6,0,0.7-0.3c2.6-5.2,4.9-9.8,5-15.8c0-5.2-1.8-9.5-4.9-13.6c-2.8-3.6-7-6.4-11.7-6.3
			c-3.3,0.1-6.6,1.9-8.8,4.3c-0.8,0.5-1.5,1.1-2.1,1.7c-2.1,2.4-2.9,6.7-1.2,9.6c1.3,2.2,4.2,3,5.9,0.8c1-1.3,0.7-2.7-0.5-2.8
			c1.2-1,4.1-1.2,5.1-1.2c2.2-0.1,3.9,0.5,5.7,1.9c2.8,2.2,5.3,5.7,6.1,9.2c2.9,5.4,1.3,11.5-2.2,16.9
			C128.6,74.6,129.6,73,130.5,71.5z M133.5,64.2c0.4-1.8,0.5-3.6,0.3-5.6c-1-8.7-5.1-18.6-14.7-20.4c-1.6-0.3-3.4-0.1-5.1,0.4
			c2.1-1.4,4.6-2.1,7.1-1.8c5.1,0.6,10.2,3.7,11.2,8.5c1.6,7.9,3,9.8,2.8,13.5C134.9,60.6,134.2,62.4,133.5,64.2z"/>
		<path class="st0" d="M202.7,83.4c0.1,0,0.2,0,0.3-0.1c0.4-0.4,0.8-0.9,1.2-1.4c0.5-0.5,0.9-1.1,1.4-1.6c1-1.3,1.6-2.6,2.1-4
			c1.7-3.9,2.3-8.3,1.2-12.5c-0.3-1.3-0.8-2.5-1.5-3.6c0.5-1.4-0.8-3-1.6-4.1c-2.3-3.4-5.3-6.3-8.5-8.9c-6-4.9-13.4-8.4-21.2-8.6
			c-7.4-0.2-14.5,1.4-21.2,4.5c-3.4,1.6-7,3.5-10,5.8c-1.4,1.1-2.5,2.5-3.4,4.1c-1.1,2-2.1,3.8-3.4,5.6c-0.3,0.4,0.1,0.8,0.4,0.8
			c-5.6,6.1-12.9,25.1-26.5,32.9c-2.9,1.7-6.7,1.7-10.1,0.9c-3.9-1-4.6-5.8-1.2-8.1c1.7-1.1,3.9-1.4,5.9-1.6c0.1,0,0.3,0,0.4-0.1
			c0.8,0.1,1.4,0.5,1.9,1.4c0.4,0.7,0.5,1.6,0.1,2.4c-0.3,0.6-1.2,1.6-1.9,0.8c-0.9-0.9-2.5,0.3-1.6,1.2c2.4,2.6,5.8-0.2,5.7-3.2
			c0-1.5-0.8-3.1-2.1-4c-1.1-0.8-2.2-0.8-3.4-0.7l0,0c-0.2,0-0.4,0-0.5,0l0,0c0,0-0.1,0-0.2,0c-0.4,0-0.7,0-1.1-0.1
			c-0.6,0.1-1.2,0.2-1.7,0.2c-0.2,0-0.4,0-0.5,0.1c-3.2,1.1-6,3.2-6.9,6.9c-1.2,5,3.8,7.3,8,8c6,0.9,12-1.1,17.1-4.8
			c0.5-0.5,1-1,1.4-1.5c2.9-3.3,5.2-6.9,7.7-10.3c1.1-2,2.1-3.9,3.6-5.6c12.8-20.8,29.6-25.3,47.2-19.1c21,7.4,17.6,17.2,15.8,21.5
			c-1.8,4.3-7,4.3-5.9,1.9c1-2.3-1.2-3.6-1.2-3.6c-3.9-4.9-13.5-1.2-10.5,7.9C180.6,91,193.7,91.7,202.7,83.4z M206,57.9
			c-0.7-1.1-1.5-2.1-2.3-3c-7.6-9.1-21.5-11.7-22.4-11.6c-11-2.3-24.9-1-37.8,10.8c-1.4,1.3-2.6,2.5-3.9,3.8
			c0.6-0.9,1.2-1.7,1.7-2.7c0.9-1.9,1.9-3.8,3.5-5.2c2.5-2.3,6-4,9-5.5c6.1-3.1,12.5-5,19.4-5.2c7.3-0.2,13.5,1.8,19.7,5.7
			c3.2,2.1,6.2,4.6,8.8,7.5C202.3,53.2,205,55.9,206,57.9z"/>
		<path class="st0" d="M131.1,66.7l0.1-0.1c0.2-0.2,0.5-0.4,0.7-0.5c1.3-1.3,2.3-3.5,2.8-4.7c1.1-2.3,2.3-4.7,2.3-7.3
			s-0.6-5.4-1.6-7.8c-0.9-2-3.1-4.3-5.4-4.7l0,0c-0.2-0.4-0.4-0.8-0.7-1.2l0,0c3.1-0.7,6.1-0.5,8.5,1.8c2.2,2.1,3.2,5,3,8
			c-0.2,3.4-0.5,7.4-2.2,10.4c-0.9,1.6-2.1,3-3.4,4.3c-0.7,0.7-1.5,1.2-2.3,1.7c-0.6,0.7-1.3,1.3-2,1.6
			C130.9,67.6,131,67.2,131.1,66.7z"/>
		<path class="st0" d="M128.9,58c-0.2-0.7-0.5-1.3-0.8-1.9c-0.4-1.1-1.2-2-2.4-2.7c-2.3,1.1-2.8,2.1-1.6,3c0.3,0.3,0.1,0.7-0.2,0.8
			c-0.5,0.3-1,0.3-1.4,0.1c-0.1,0-0.2,0-0.4-0.1l-0.1-0.1c-0.9-0.4-1.6-1.3-2.1-2c-1.4-2.4-0.5-4.5,1.2-6.4
			c-0.1-0.1-0.1-0.3,0.1-0.5c0.7-0.9,3.5-1.1,3.2,0.6c-0.1,0.3-0.4,0.6-0.6,0.8c-0.4,0.4-0.7,0.9-1,1.4c-0.8,1.5-1.5,3.7-0.4,5
			c0.1,0.1,0.2,0.2,0.4,0.3l0,0c-1-1.6-0.7-4.1,1.6-4.3c3.6-0.4,4.8,3.9,5.8,6.5c0.1,0.4-0.2,0.7-0.5,0.7
			C129.5,58.9,129.2,58.5,128.9,58z"/>
	</g>
	<g>
		<path class="st0" d="M946.1,926.4c-4.6,0.2-12.4,2.4-11,8.4c1.3,5.7,8.4,5.4,9.7,0.2c0.3-1.3-0.2-2.4-1.1-3
			c3.5,0.1,8.2,1.1,9.1,1.5c2.7,1.3,4.8,3.2,6.7,5.4c3.8,4.3,6.6,10.5,7.5,16.2c1.1,6.7-1.1,13.8-5.2,19.4c-1.6-1.9-3.5-3.7-5.8-5
			c-8.4-5-17.5,2.6-17.8,11.4c0,0.7,0.2,2.3,0.5,4c-21.4-1.3-18.5-23.6-3-21.7c2.9,0.3,5.3,2.2,7.8-0.4c4.7-5-1.5-9.9-6.1-10.8
			c-7.9-1.6-4.8,0.8-3.8-4.3c0.3-1.4,0.2-3.1-0.3-4.6c-0.9-2.7-3-4.5-5.7-5.3c-3.2-0.9-7.1,0-9.7,1.8c-2.3,1.5-3,3.3-3.6,5.2
			c-0.3-0.6-0.5-1.2-0.6-1.4c-0.9-1.8-3.6-2.2-4.7-0.5c-3.5,5.9-4.9,13.6-4,21.1c-4.6-0.7-7.3,1.7-8.9,5.1
			c-7.8,0.9-15.8,0.9-23.6,1.7c-0.4,0-0.7,0.2-0.9,0.4c0,0-0.3,0.5-0.4,0.9c-0.9,7.8-0.9,15.7-1.9,23.5c-3.5,1.5-5.9,4.3-5.2,8.9
			c-7.4-1-15.1,0.3-21.1,3.8c-1.8,1-1.3,3.8,0.4,4.7c0.2,0.1,0.8,0.3,1.4,0.6c-1.9,0.6-3.7,1.3-5.2,3.5c-1.8,2.6-2.8,6.5-1.9,9.7
			c0.8,2.7,2.5,4.8,5.2,5.7c1.4,0.5,3.1,0.6,4.5,0.3c5.1-0.9,2.8-4.1,4.3,3.9c0.9,4.6,5.7,10.9,10.7,6.3c2.7-2.4,0.9-4.9,0.5-7.8
			c-1.7-15.5,20.6-18.2,21.7,3.2c-1.8-0.4-3.4-0.6-4-0.6c-8.8,0.2-16.5,9.2-11.6,17.7c1.3,2.3,3,4.2,5,5.8c-5.6,4-12.7,6.1-19.4,4.9
			c-5.6-1-11.8-3.8-16.1-7.7c-2.2-2-4-4.1-5.3-6.8c-0.4-0.9-1.4-5.6-1.4-9.1c0.6,0.9,1.7,1.4,3,1.1c5.2-1.3,5.6-8.3-0.1-9.7
			c-6-1.5-8.3,6.2-8.5,10.9c-1.1,20.2,27.8,31.5,43.4,24.8c3.2-1.4,6.2-3.3,8.8-5.6c5.7,2.9,12.6,3.3,18.8,1.4
			c2.5-0.8,4.7-1.9,6.7-3.3c7.9,11.8,27.5,17.9,38.1,8c6.9-6.4,9.2-17.4,3.9-23.8c-2-2.4-5-4.2-9.2-4.9c-5.6-1-10.3,1.5-9.9,7.8
			c0.3,5.7,5.2,6.9,10,7.1c2.3,0.1,2-3.5-0.3-3.6c-2.9-7.3-1.7-9.5,3.5-6.6c5.1,4.1,6.5,8.7,4.4,13.8c-1.2,3.3-3.6,6.8-6.3,8.8
			c-8,5.8-21.2,1.9-28-4.5c-1.4-1.3-2.6-2.7-3.6-4.3c4.2-4.1,6.9-9.6,8.5-15.7c2.5-8.8,2.3-17.2-0.4-25.6c0.4-0.5,0.8-1.1,0.8-1.1
			l0,0l0.6-0.6c0.6-0.5,1.6-1.5,2.1-1.9c8.4,2.8,17.1,2.8,25.9,0.5c6.1-1.6,11.7-4.3,15.9-8.5c1.6,1,3,2.1,4.3,3.6
			c6.3,6.9,10,20.1,4.2,28c-2,2.8-5.5,5.1-8.8,6.2c-5.1,2.1-9.7,0.6-13.8-4.6c-2.9-5.3-0.7-6.5,6.6-3.5c0.1,2.3,3.7,2.7,3.6,0.4
			c-0.2-4.8-1.3-9.7-7-10.1c-6.3-0.4-8.9,4.2-8,9.8c2.5,15.7,19.8,15.1,28.7,5.7c10.1-10.5,4.1-30.2-7.5-38.2
			c1.4-1.9,2.6-4.2,3.4-6.7c2-6.2,1.6-13-1.2-18.8c2.3-2.6,4.2-5.5,5.7-8.7C977.3,954.6,966.3,925.6,946.1,926.4z M923.1,1011.1
			c5.9-3.8,13.5-7.1,16.9-7.5c4.8-0.7,10.1-0.5,14.8,1.1c-6.3,5.3-16.2,7.6-24,7.4C928.2,1012,925.6,1011.7,923.1,1011.1z
			 M904.4,1054.5c-1.5-4.8-1.6-10-0.9-14.8c0.5-3.4,3.8-11,7.7-16.8c0.6,2.5,0.9,5.1,0.9,7.8
			C912.1,1038.4,909.7,1048.2,904.4,1054.5z M884.8,1041.5c-0.1,1.3-0.2,2.6-0.4,4c-0.6,4.5-2.9,8.7-6.2,12.1
			c-1.5-1.2-2.5-2.7-3.1-4.7c-3.9-4.9,0.7-9.7,2.3-11C878.4,1041.3,881.6,1041.2,884.8,1041.5z M892,1044.3c0.8,1.9,1.4,5.5-0.8,6.3
			c-0.6,0.2-1.9,0.3-2.9,0.1c1.1-2.4,1.9-5,2.4-7.6C891.3,1043.4,891.8,1043.9,892,1044.3z M876.1,999.3c4.4-1.1,9.9,0.1,14.1,1
			c9,2,15.4,8.3,18.9,16.2c-3.8,5.2-6.8,12.7-8,16.7c-2.2,7.5-2.6,16.4,0.3,24.1c-0.1,0.1-0.2,0.1-0.3,0.2c-5,3.7-12.7,5-18.8,2.6
			c2-2.3,3.7-4.9,5-7.7c2.7,0.9,6.2,0.4,7-2.5c0.7-2.8-0.5-7-2.7-9c-0.2-0.2-0.4-0.3-0.7-0.5c0.9-6.9-0.1-14.1-3.4-20.8
			c-3.5-6.9-9.9-11.5-17.1-13.8c-0.2-0.8-0.3-1.6-0.2-1.8C870.3,1004,869.5,1000.7,876.1,999.3z M895.1,972.9
			c-0.5,2.2-0.7,4.5-0.7,6.5c0,6.3,0.9,12.5,3.2,17.9c-5.1-2.7-11.5-3.4-17.8-3.5c-2,0-4.3,0.1-6.5,0.6c0.7-6.7,0.7-13.4,1.5-20.2
			C881.5,973.6,888.3,973.5,895.1,972.9z M940.9,991.1c0.2,0.3,0.3,0.5,0.5,0.7c2,2.2,6.1,3.5,8.9,2.8c3-0.7,3.5-4.3,2.6-7
			c2.8-1.3,5.4-3,7.7-4.9c2.3,6.1,1,13.8-2.8,18.8c-0.1,0.1-0.1,0.2-0.2,0.3c-7.6-3-16.5-2.7-24.1-0.6c-3.9,1.1-11.5,4-16.8,7.8
			c-7.8-3.6-14-10.1-15.9-19.1c-0.9-4.3-2-9.8-0.9-14.1c1.5-6.6,4.7-5.8,4.8-5.8c0.2-0.1,1,0,1.8,0.2c2.2,7.3,6.7,13.7,13.6,17.3
			C926.8,990.9,934,992,940.9,991.1z M951.2,988.4c0.2,1.1,0.1,2.3-0.1,2.9c-0.9,2.3-4.5,1.6-6.3,0.8c-0.5-0.2-0.9-0.7-1.2-1.4
			C946.2,990.2,948.8,989.4,951.2,988.4z M958.3,978.5c-3.5,3.2-7.7,5.5-12.2,6.1c-1.4,0.2-2.7,0.3-4,0.3c-0.3-3.2-0.2-6.4,0.6-7.3
			c1.3-1.6,6.2-6.1,11-2.2C955.6,976,957.1,977,958.3,978.5z"/>
		<path class="st0" d="M920.8,819.8c-1.7,11.1-3,41,15.4,51.5c5.9,3.4,13.2,4.7,15.8,8.2c1.7,3,3,9.9,1.7,13c-0.8,0.7-3.8-2-4.7-2.4
			c2.3,10.6-3,26.8-15.9,23.8c6.7-6,7.2-15.4,3.4-22.3C932.9,884.9,902.9,853.8,920.8,819.8z"/>
		<path class="st0" d="M946.3,786.2c-0.2,0.1-0.4,0.2-0.7,0.3c-12.8,5.6-21.9,23.3-23.1,26.7c-5.7,15.8-6.3,40.5,10.8,49.6
			c3.2,1.7,8.9,3.3,12.4,1.5c2-1.1-0.1-2.6-2.1-3.8c0.6,0.2,1.3,0.3,2,0.3c1.8,0.1,3.6,0,5.4-0.4c2.9-0.5,6-1.8,7.8-4.2
			c1.7-2.2,2.7-5.5,2-8.3c-0.3-1.1-0.9-2.5-1.9-3.2c-1-0.8-1.8-0.6-2.8-0.4c-0.6-2.8-1.9-6.5-5.5-5.2c-0.2,0.1-0.3,0.3-0.3,0.4
			c-0.6,3.5,0.2,7.3-2.1,10.4c-2.7,3.6-7.3,3.5-11.3,2.8c-0.9-0.2-2.2,0.5-3.1,0.3c-0.3-0.1-0.6-0.2-0.9-0.1c1-0.7,1.9-1.7,2-2.8
			c0-0.3,0-1-0.3-1c-3.9-0.3-6.6-1.6-8.5-5.3c-0.6-1.2-3.5-8.8-3-16.4c0.2-2.5,1.9-15.9,8.1-25.1c4.6-6.9,11.2-12.1,15.5-15.2
			C946.6,786.7,946.4,786.5,946.3,786.2z"/>
		<path class="st0" d="M901.3,854c-2-2.4-3.4-5.5-4.4-8.5c-0.6-1.8-2.2-4.8-1.5-6.8c0.1-0.3,0.5-0.4,0.8-0.2
			c1.8,1.6,3.4,3.2,5.3,4.7c2.6,2,4.9,2,8,2c1,0,1.9,0.2,2.6-0.4c0.9-0.8,0.3-1.7,0.1-2.9c-0.2-1.9,0.1-3.8,0.4-5.8
			c0.8-4.8,3.2-8.4,6.2-12.1c1.5-1.9,3.1-3.5,5-5c1.2-0.9,2.5-2,4.1-1.9c0.4,0,0.5,0.5,0.3,0.8c-2.6,3.1-3.9,6.2-4.5,10.2
			c-0.6,3.6-0.4,7.5-0.3,11.1c0.1,3.5,1,6.8,1.3,10.2c0.4,3.6,1.9,7.1,3.4,10.4c2.9,6.3,6,12.7,7.1,19.5c0.5,3.1,0.7,6.3,0.2,9.5
			c-0.2,1.5-0.2,4-1.2,5.4c0.1,0.2,0.1,0.3-0.1,0.5c-0.1,0.1-0.2,0.2-0.3,0.4c-0.2,0.3-0.7,0.3-0.9-0.1c-0.8-2.5,0-5.1-0.1-7.7
			c-0.1-3.8-1.4-7.6-2.9-11.1s-4.6-7.1-7.7-9.4c-1.8-1.4-3.7-2.4-6.1-2.5c-2.5-0.1-3.9,0.7-5.6,2.5c-0.3,0.3-0.7,0.2-0.9-0.1
			c-1.2-2.3-0.5-6,0.8-8.2c0.7-1.2,1.7-1.9,2.9-2.6c1-0.5,2-0.6,3-0.9c-2.7-1.4-6.5,2.3-9.1,2.4C904.9,857.4,902.8,855.8,901.3,854z
			"/>
		<path class="st0" d="M897.7,948.2c5.3-3.6,11.4-5.4,16.8-2.6c3.5,0.7,7.1,3.1,9.3,5.9c1.4,1.7,2.1,3.4,2,5.6c0,1.1-0.2,4-1.1,5.1
			c-0.1-1.2-1.5-1.5-2.8-0.5c-2.2,1.7-1.3,4.6,0.9,5.9c2.9,1.7,7.2,0.8,9.5-1.4c0.6-0.6,1.2-1.3,1.7-2.1c2.4-2.3,4.1-5.6,4.1-8.9
			c0-4.7-2.8-8.8-6.5-11.5c-4.2-3-8.5-4.7-13.7-4.6c-6,0.1-10.5,2.6-15.6,5.3c-0.3,0.2-0.3,0.5-0.2,0.7
			C900.7,946,899.1,947,897.7,948.2z M914.9,940.3c3.7-0.3,5.6,1.1,13.5,2.5c4.8,0.9,8.1,5.9,8.7,11c0.3,2.5-0.4,5-1.7,7.1
			c0.5-1.8,0.6-3.6,0.3-5.2c-2-9.5-12-13.4-20.8-14.3c-2-0.2-3.8,0-5.6,0.4C911.2,941.1,912.9,940.4,914.9,940.3z"/>
		<path class="st0" d="M889.9,898c9.2,2.8,12.7-6.8,7.7-10.6c0,0-1.3-2.2-3.6-1.1c-2.3,1.1-2.4-4.1,1.8-6s13.9-5.6,21.8,15.3
			c6.6,17.4,2.5,34.3-18,47.6c-1.6,1.5-3.5,2.6-5.5,3.7c-3.4,2.5-6.9,4.9-10.1,7.9c-0.5,0.5-1,1-1.5,1.4c-3.5,5.1-5.5,11.2-4.4,17.2
			c0.7,4.2,3.2,9.1,8.1,7.8c3.7-1,5.7-3.8,6.8-7c0-0.2,0-0.4,0.1-0.5c0-0.6,0.1-1.2,0.1-1.7c-0.1-0.3-0.1-0.7-0.1-1.1
			c0-0.1,0-0.2,0-0.2l0,0c0-0.2,0-0.4-0.1-0.5l0,0c0.1-1.2,0-2.3-0.8-3.4c-0.9-1.2-2.5-2-4-2c-2.9,0-5.7,3.5-3,5.8
			c1,0.9,2.1-0.8,1.2-1.6c-0.7-0.7,0.2-1.6,0.8-1.9c0.8-0.4,1.6-0.3,2.4,0c1,0.5,1.3,1.1,1.5,1.9c0,0.1-0.1,0.2-0.1,0.4
			c-0.1,2-0.3,4.2-1.4,5.9c-2.2,3.5-7.1,2.9-8.2-1c-0.9-3.3-0.9-7.1,0.7-10.1c7.4-13.8,26.3-21.5,32.3-27.2c0,0.3,0.4,0.7,0.8,0.4
			c1.8-1.3,3.6-2.4,5.6-3.6c1.6-0.9,3-2,4-3.5c2.3-3,4-6.7,5.6-10.1c3-6.8,4.5-13.9,4.1-21.3c-0.4-7.8-4.1-15.1-9.1-21
			c-2.7-3.1-5.7-6-9.1-8.3c-1.1-0.7-2.7-2-4.1-1.5c-1.2-0.6-2.4-1.1-3.7-1.4c-4.3-1-8.6-0.3-12.5,1.5c-1.4,0.5-2.7,1.2-4,2.1
			c-0.6,0.5-1.1,0.9-1.6,1.4c-0.5,0.4-0.9,0.8-1.4,1.2c-0.1,0.1-0.1,0.2-0.1,0.3C880.5,882.3,881.6,895.4,889.9,898z M919.5,873.4
			c2.9,2.6,5.5,5.5,7.6,8.7c4.1,6,6.2,12.2,6.1,19.5c0,6.9-1.8,13.3-4.7,19.5c-1.5,3.1-3.1,6.5-5.3,9.1c-1.4,1.6-3.3,2.6-5.2,3.6
			c-1,0.5-1.8,1.1-2.6,1.8c1.2-1.2,2.5-2.5,3.7-3.9c11.5-13.1,12.5-27,10-38c0.1-0.9-2.8-14.7-12.1-22.1c-1-0.8-2-1.5-3-2.2
			C916.1,870.3,918.9,872.8,919.5,873.4z"/>
		<path class="st0" d="M907,944.4L907,944.4c0.3-0.3,0.4-0.6,0.6-0.8c1.3-1.3,3.5-2.3,4.6-2.9c2.2-1.2,4.7-2.4,7.3-2.4
			s5.4,0.4,7.8,1.4c2,0.8,4.4,3,4.8,5.3l0,0c0.4,0.2,0.9,0.4,1.2,0.7l0,0c0.7-3.1,0.3-6.1-2-8.5c-2.1-2.2-5.1-3-8-2.8
			c-3.4,0.3-7.4,0.7-10.4,2.5c-1.6,0.9-2.9,2.2-4.2,3.5c-0.7,0.7-1.2,1.5-1.6,2.3c-0.7,0.6-1.3,1.3-1.6,2.1
			C906,944.5,906.5,944.4,907,944.4z"/>
		<path class="st0" d="M915.7,946.3c0.7,0.2,1.3,0.4,1.9,0.7c1.1,0.4,2.1,1.2,2.7,2.3c-1.1,2.3-2,2.9-3,1.7
			c-0.3-0.3-0.7-0.1-0.8,0.2c-0.3,0.5-0.3,1-0.1,1.4c0,0.1,0,0.2,0.1,0.4l0.1,0.1c0.5,0.9,1.4,1.6,2.1,2c2.5,1.4,4.5,0.4,6.4-1.3
			c0.1,0.1,0.3,0.1,0.5-0.1c0.9-0.8,1-3.5-0.7-3.2c-0.3,0.1-0.6,0.5-0.8,0.6c-0.4,0.4-0.9,0.7-1.4,1c-1.5,0.8-3.7,1.6-5,0.5
			c-0.1-0.1-0.2-0.2-0.3-0.4l0,0c1.6,1,4.1,0.7,4.3-1.7c0.3-3.6-4-4.8-6.7-5.6c-0.4-0.1-0.7,0.2-0.7,0.5
			C914.8,945.8,915.2,946,915.7,946.3z"/>
		<path class="st0" d="M791.8,1039.1c6.9,3.6,16.4,2.9,22.2-3.9c3.2,12.8-12.8,18.4-23.5,16.4c0.4,0.9,3.1,3.8,2.5,4.6
			c-3.1,1.4-10,0.3-13-1.4c-3.5-2.5-5-9.8-8.5-15.6c-10.9-18.2-40.7-16.2-51.8-14.2C753.4,1006.4,785.1,1035.7,791.8,1039.1z"/>
		<path class="st0" d="M685.7,1051.2c0.1-0.2,1.2-0.4,1.3-0.6c5.3-12.9,22.8-22.4,26.1-23.7c15.7-6.1,40.4-7.2,49.8,9.7
			c1.8,3.2,3.5,8.8,1.7,12.4c-1,2-2.6,0-3.8-2c0.2,0.6,0.3,1.3,0.3,2c0.1,1.8,0,3.6-0.3,5.4c-0.5,2.9-1.7,6-4,7.9
			c-2.2,1.7-5.5,2.8-8.2,2.2c-1.1-0.3-2.5-0.8-3.3-1.8s-0.7-1.8-0.5-2.8c-2.8-0.6-6.5-1.7-5.3-5.4c0.1-0.2,0.2-0.3,0.4-0.3
			c3.5-0.7,7.3,0,10.4-2.4c3.5-2.7,3.4-7.4,2.6-11.4c-0.2-0.9,0.5-2.2,0.2-3.1c-0.1-0.3-0.2-0.6-0.1-0.9c-0.6,1-1.7,1.9-2.8,2.1
			c-0.3,0-1,0-1.1-0.3c-0.4-3.9-1.8-6.5-5.5-8.4c-1.2-0.6-8.9-3.3-16.4-2.6c-2.5,0.2-15.9,2.3-25,8.6c-6.8,4.8-12.7,11.7-15.7,16.1
			C686.4,1051.8,686,1051.3,685.7,1051.2z"/>
		<path class="st0" d="M753.5,1035.5L753.5,1035.5c0,0-0.1,0.1-0.1,0.2L753.5,1035.5z"/>
		<path class="st0" d="M756.9,1010.8c-0.1,2.6-3.6,6.5-2.2,9.1c0.3-1,0.3-2.1,0.8-3c0.6-1.2,1.3-2.2,2.5-3c2.1-1.3,5.8-2.2,8.1-1
			c0.4,0.2,0.4,0.6,0.2,0.9c-1.7,1.7-2.5,3.1-2.3,5.6c0.1,2.3,1.2,4.2,2.6,6c2.3,3,6,6,9.6,7.4c3.5,1.4,7.4,2.6,11.2,2.7
			c2.6,0,5.2-0.8,7.7,0c0.4,0.1,0.4,0.6,0.2,0.9c-0.1,0.1-0.2,0.2-0.4,0.3c-0.2,0.2-0.4,0.2-0.5,0.1c-1.3,1-3.8,1.1-5.3,1.3
			c-3.1,0.6-6.3,0.4-9.5,0c-6.9-0.9-13.4-3.9-19.7-6.6c-3.3-1.4-6.8-2.9-10.5-3.2c-3.4-0.3-6.8-1-10.2-1.1c-3.6,0-7.5-0.1-11.1,0.5
			c-4,0.7-7,2.1-10,4.8c-0.3,0.2-0.8,0.1-0.8-0.3c-0.1-1.5,1-2.9,1.8-4.1c1.4-2,3-3.6,4.9-5.1c3.7-3.1,7.2-5.6,12-6.5
			c1.9-0.3,3.8-0.7,5.7-0.5c1.2,0.1,2.1,0.7,2.9-0.2c0.6-0.7,0.4-1.7,0.4-2.6c-0.1-3.1-0.1-5.4-2.1-8c-1.5-1.9-3.1-3.5-4.8-5.2
			c-0.2-0.2-0.1-0.7,0.2-0.8c1.9-0.7,5,0.8,6.8,1.4c3,1,6.1,2.3,8.6,4.2C755.4,1006.2,757,1008.3,756.9,1010.8z"/>
		<path class="st0" d="M844.6,1003.6c-0.2-0.1-0.6,0-0.7,0.3c-2.6,5.2-4.9,9.8-5,15.8c0,5.2,1.8,9.5,4.9,13.6
			c2.8,3.6,7,6.4,11.7,6.3c3.3-0.1,6.6-1.9,8.8-4.3c0.8-0.5,1.5-1.1,2.1-1.7c2.1-2.4,2.9-6.7,1.2-9.6c-1.3-2.2-4.2-3-5.9-0.8
			c-1,1.3-0.7,2.7,0.5,2.8c-1.2,1-4.1,1.2-5.1,1.2c-2.2,0.1-3.9-0.5-5.7-1.9c-2.8-2.2-5.3-5.7-6.1-9.2c-2.9-5.4-1.3-11.5,2.2-16.9
			C846.4,1000.5,845.4,1002.1,844.6,1003.6z M841.5,1010.9c-0.4,1.8-0.5,3.6-0.3,5.6c1,8.7,5.1,18.6,14.7,20.4
			c1.6,0.3,3.4,0.1,5.1-0.4c-2.1,1.4-4.6,2.1-7.1,1.8c-5.1-0.6-10.2-3.7-11.2-8.5c-1.6-7.9-3-9.8-2.8-13.5
			C840.2,1014.5,840.8,1012.7,841.5,1010.9z"/>
		<path class="st0" d="M772.4,991.7c-0.1,0-0.2,0-0.3,0.1c-0.4,0.4-0.8,0.9-1.2,1.4c-0.5,0.5-0.9,1.1-1.4,1.6c-1,1.3-1.6,2.6-2.1,4
			c-1.7,3.9-2.3,8.3-1.2,12.5c0.3,1.3,0.8,2.5,1.5,3.6c-0.5,1.4,0.8,3,1.6,4.1c2.3,3.4,5.3,6.3,8.5,8.9c6,4.9,13.4,8.4,21.2,8.6
			c7.4,0.2,14.5-1.4,21.2-4.5c3.4-1.6,7-3.5,10-5.8c1.4-1.1,2.5-2.5,3.4-4.1c1.1-2,2.1-3.8,3.4-5.6c0.3-0.4-0.1-0.8-0.4-0.8
			c5.6-6.1,12.9-25.1,26.5-32.9c2.9-1.7,6.7-1.7,10.1-0.9c3.9,1,4.6,5.8,1.2,8.1c-1.7,1.1-3.9,1.4-5.9,1.6c-0.1,0-0.3,0-0.4,0.1
			c-0.8-0.1-1.4-0.5-1.9-1.4c-0.4-0.7-0.5-1.6-0.1-2.4c0.3-0.6,1.2-1.6,1.9-0.8c0.9,0.9,2.5-0.3,1.6-1.2c-2.4-2.6-5.8,0.2-5.7,3.2
			c0,1.5,0.8,3.1,2.1,4c1.1,0.8,2.2,0.8,3.4,0.7l0,0c0.2,0,0.4,0,0.5,0l0,0c0,0,0.1,0,0.2,0c0.4,0,0.7,0,1.1,0.1
			c0.6-0.1,1.2-0.2,1.7-0.2c0.2,0,0.4,0,0.5-0.1c3.2-1.1,6-3.2,6.9-6.9c1.2-5-3.8-7.3-8-8c-6-0.9-12,1.1-17.1,4.8
			c-0.5,0.5-1,1-1.4,1.5c-2.9,3.3-5.2,6.9-7.7,10.3c-1.1,2-2.1,3.9-3.6,5.6c-12.8,20.8-29.6,25.3-47.2,19.1
			c-21-7.4-17.6-17.2-15.8-21.5s7-4.3,5.9-1.9c-1,2.3,1.2,3.6,1.2,3.6c3.9,4.9,13.5,1.2,10.5-7.9
			C794.5,984.1,781.4,983.4,772.4,991.7z M769,1017.2c0.7,1.1,1.5,2.1,2.3,3c7.6,9.1,21.5,11.7,22.4,11.6c11,2.3,24.9,1,37.8-10.8
			c1.4-1.3,2.6-2.5,3.9-3.8c-0.6,0.9-1.2,1.7-1.7,2.7c-0.9,1.9-1.9,3.8-3.5,5.2c-2.5,2.3-6,4-9,5.5c-6.1,3.1-12.5,5-19.4,5.2
			c-7.3,0.2-13.5-1.8-19.7-5.7c-3.2-2.1-6.2-4.6-8.8-7.4C772.7,1021.9,770.1,1019.2,769,1017.2z"/>
		<path class="st0" d="M844,1008.4L844,1008.4c-0.3,0.3-0.6,0.5-0.8,0.6c-1.3,1.3-2.3,3.5-2.8,4.7c-1.1,2.3-2.3,4.7-2.3,7.3
			s0.6,5.4,1.6,7.8c0.9,2,3.1,4.3,5.4,4.7l0,0c0.2,0.4,0.4,0.8,0.7,1.2l0,0c-3.1,0.7-6.1,0.5-8.5-1.8c-2.2-2.1-3.2-5-3-8
			c0.2-3.4,0.5-7.4,2.2-10.4c0.9-1.6,2.1-3,3.4-4.3c0.7-0.7,1.5-1.2,2.3-1.7c0.6-0.7,1.3-1.3,2-1.6
			C844.1,1007.5,844,1007.9,844,1008.4z"/>
		<path class="st0" d="M846.1,1017.1c0.2,0.7,0.5,1.3,0.8,1.9c0.4,1.1,1.2,2,2.4,2.7c2.3-1.1,2.8-2.1,1.6-3
			c-0.3-0.3-0.1-0.7,0.2-0.8c0.5-0.3,1-0.3,1.4-0.1c0.1,0,0.2,0,0.4,0.1l0.1,0.1c0.9,0.4,1.6,1.3,2.1,2c1.4,2.4,0.5,4.5-1.2,6.4
			c0.1,0.1,0.1,0.3-0.1,0.5c-0.7,0.9-3.5,1.1-3.2-0.6c0.1-0.3,0.4-0.6,0.6-0.8c0.4-0.4,0.7-0.9,1-1.4c0.8-1.5,1.5-3.7,0.4-5
			c-0.1-0.1-0.2-0.2-0.4-0.3l0,0c1,1.6,0.7,4.1-1.6,4.3c-3.6,0.4-4.8-3.9-5.8-6.5c-0.1-0.4,0.2-0.7,0.5-0.7
			C845.5,1016.2,845.8,1016.6,846.1,1017.1z"/>
	</g>
	<g>
		<g>
			<g>
				<path class="st1" d="M957.5,426.5c0,119.7-0.1,301.7-0.5,321.9l-3.1-0.1c0.5-28.9,0.6-388.9,0.4-424h3.1
					C957.4,334.8,957.5,374.9,957.5,426.5z"/>
			</g>
		</g>
		<g>
			<g>
				<path class="st0" d="M938.9,290.8c0.8,0.4,1.7,0.8,2.5,0.8c0.7,0.1,1.4,0,1.9-0.5s0.5-2,1.4-2.3c-0.1,0.2-0.3,0.5-0.4,0.8
					c-0.1,0.4-0.2,0.7-0.1,1.1c0.2,0.7,0.7,1.6,1.4,1.8c0.1,0,0.2,0,0.2-0.1c0-0.7,0.1-1.1,0.6-1.6c0.5-0.4,1.1-0.6,1.7-0.7
					c1.1-0.1,2.4,0,3.4,0.4s2,0.9,2.8,1.7c0.3,0.3,0.5,0.6,0.8,0.9c-1.3-0.7-2.8-1.2-4.3-1.3c-1.2-0.1-2.3-0.1-3.5,0.1
					c-0.4,0.1-0.9,0.1-1.1,0.5c-0.4,0.1-0.7,0.2-1,0.4c-1.1,0.6-1.8,1.6-2.2,2.7c-0.2,0.4-0.3,0.8-0.4,1.2c0,0.2,0,0.4-0.1,0.6
					c0,0.2,0,0.3,0,0.5v0.1c0.2,3.4,2.9,5.9,5.1,4.8c2.4-1.2,1.2-3.8-0.5-3.6c0,0-0.7-0.2-0.9,0.5c-0.3,0.7-1.3-0.4-0.8-1.6
					s1.7-3.8,7.4-1.2c6,2.8,9.6,9,2.9,19.3c-4.3,6.6-1.6,8.3,0.6,7.8c0.1,0,0.2,0,0.3-0.1c0.6-0.2,1-0.5,1.3-0.9
					c1.7-0.9,4.1-0.8,5.9-0.5c1.3,0.2,2.4,1,3.3,1.9c1.1,1.1,1,3.5-1,3.2c-0.6-0.1-1.1-0.5-1.5-0.9c0.7-0.4,0.3-1.6-0.5-1.3
					c-0.5,0.2-0.6,0.3-1,0.6c-0.2,0.2-0.3,0.6-0.1,0.8c1,1.6,3,2.6,4.9,1.9c2-0.8,1.5-3.3,0.6-4.7c-2.2-3.3-8.3-4.3-11.7-2
					c-1,0-2.2-0.2-1.8-1.8c0.5-2,3.3-5,4.6-10.2c0,0,0,0.1,0.1,0.1c-0.3,1-0.5,2.1-0.1,3c0.2,0.4,1.4,1.7,1.9,1
					c0.3-0.5-0.2-1-0.7-0.8c-0.3-0.8-0.1-1.9-0.1-2.7c0-0.5,0.2-1.1,0.4-1.6c0.2-0.3,0.4-0.6,0.7-0.9c0.1-0.1,0.2-0.2,0.4-0.3
					c0,0,0,0,0.1,0l0,0c0.3-0.1,0.5-0.3,0.8-0.4s0.6-0.2,1-0.1c0.2,0.7,0.1,1-0.3,0.9c-0.1,0-0.1,0.1-0.1,0.2s0.1,0.2,0.3,0.3
					c0,0,0,0,0.1,0.1l0,0c0.3,0.1,0.6,0.1,0.8,0c0.8-0.2,1-0.8,1-1.5l0,0c0.3,0.1,0.6,0.3,0.8,0.6c0.2,0.2,0.7,0.8,0.8,1.3
					c-0.3-0.2-0.6,0-0.7,0.4c-0.1,0.8,0.6,1.2,1.3,1c0.9-0.2,1.6-1.2,1.7-2.1c0-0.2,0-0.5-0.1-0.7c0-0.9-0.3-1.9-0.9-2.6
					c-0.8-0.9-2.1-1.2-3.3-1.1c0,0,0-0.1-0.1-0.1v-0.1c0,0,0-0.1-0.2-0.1c-0.4-0.5-1-0.9-1.8-0.9c-0.1,0-0.3,0-0.4,0
					c0-2.4,0.4-4.2,1.9-6.5c0.6-0.9,3.6-3.5,3.5-1.1c-0.1,0.9,1.3,0.9,1.4,0c0.3-4.1-3.9-6.6-7.6-4.5c-2,1.2-3.2,3-3.4,5.4
					c0,0.4,0,0.8,0,1.2c-0.6-1.1-1.4-2-2.3-2.9c-0.3-0.3-0.6-0.5-0.9-0.7c-0.2-0.6-1.1-2.3-2.5-3.4c-1.5-1.2-3.4-1.9-5.2-2.6
					c-0.9-0.4-1.9-0.8-2.7-1.4c-0.7-0.6-1.6-1.1-2.3-1.8c-0.7-0.7-1.5-1.5-2.1-2.3c-0.7-0.9-1-1.8-1.1-2.9c0-0.1-0.1-0.2-0.2-0.1
					c-0.3,0.3-0.4,0.8-0.4,1.2c-0.1,0.7-0.1,1.3,0,2c0.1,1.3,0.3,2.5,1.1,3.7c0.3,0.4,0.6,0.9,1,1.2c0.3,0.2,0.6,0.3,0.5,0.6
					c0,0.3-0.3,0.4-0.5,0.6c-0.6,0.6-1.1,1.1-2,1.2c-0.7,0.1-1.3,0.1-2,0.1c-0.1,0-0.2,0.1-0.1,0.2
					C937.5,290.3,938.5,290.6,938.9,290.8z M965.2,304.5c0.1-0.1,0.1-0.2,0.2-0.3c1-0.1,2.1,0,3,0.7c0.6,0.4,0.9,1.1,1.1,1.8
					c-0.2-0.5-0.6-0.9-0.9-1.1c-1.2-0.8-2.4-0.9-3.7-0.5C964.9,304.9,965.1,304.7,965.2,304.5z M957,295c0.8,0.9,1.5,1.8,2,2.9
					c0.1,0.9,0.4,1.8,0.8,2.8c0.4,0.9,0,2.1,0.2,3.1c-0.1,0.2,0.3,0.4,0.2,0.6c-0.1,0.3-0.1,0.6-0.2,0.9c0-0.5,0-1,0-1.5
					c-0.2-4.9-2.7-7.9-5.4-9.6c-0.1-0.2-3.4-2.4-6.8-2.1c-0.3,0-0.7,0.1-1,0.1c0.6-0.2,1.7-0.2,1.9-0.2c1.1,0,2.2,0,3.2,0.3
					C954,292.7,955.6,293.6,957,295z"/>
			</g>
		</g>
		<g>
			<g>
				<path class="st0" d="M937.3,782.1c0,0.1,0,0.2,0.1,0.2c0.7,0,1.3,0,2,0.1c0.9,0.1,1.4,0.6,2,1.2c0.2,0.2,0.4,0.3,0.5,0.6
					c0,0.3-0.3,0.4-0.5,0.6c-0.4,0.3-0.7,0.8-1,1.2c-0.8,1.1-1,2.3-1.1,3.7c-0.1,0.7-0.1,1.3,0,2c0.1,0.4,0.1,0.9,0.4,1.2
					c0.1,0.1,0.2,0,0.2-0.1c0.1-1.1,0.4-2,1.1-2.9c0.6-0.8,1.4-1.6,2.1-2.3s1.5-1.2,2.3-1.8c0.8-0.7,1.8-1.1,2.7-1.4
					c1.8-0.7,3.7-1.4,5.2-2.6c1.4-1.1,2.3-2.8,2.5-3.4c0.3-0.2,0.6-0.4,0.9-0.7c0.9-0.9,1.7-1.8,2.3-2.9c0,0.4,0,0.8,0,1.2
					c0.1,2.4,1.4,4.2,3.4,5.4c3.7,2.1,7.9-0.4,7.6-4.5c-0.1-0.9-1.4-0.9-1.4,0c0.1,2.4-2.9-0.1-3.5-1.1c-1.5-2.3-1.9-4.2-1.9-6.5
					c0.1,0,0.3,0,0.4,0c0.8,0,1.3-0.4,1.8-0.9c0.1-0.1,0.2-0.1,0.2-0.1s0,0,0-0.1c0,0,0-0.1,0.1-0.1c1.2,0.1,2.4-0.2,3.3-1.1
					c0.6-0.7,0.9-1.7,0.9-2.6c0.1-0.3,0.1-0.5,0.1-0.7c-0.1-0.9-0.7-1.9-1.7-2.1c-0.7-0.2-1.4,0.2-1.3,1c0.1,0.5,0.4,0.7,0.7,0.4
					c0,0.4-0.6,1-0.8,1.3c-0.3,0.3-0.5,0.5-0.8,0.6l0,0c-0.1-0.7-0.3-1.3-1-1.5c-0.2-0.1-0.5-0.1-0.8,0l0,0c0,0-0.1,0-0.1,0.1
					c-0.1,0.1-0.2,0.2-0.3,0.3c0,0.1,0,0.2,0.1,0.2c0.4-0.1,0.5,0.2,0.3,0.9c-0.4,0.1-0.7,0.1-1-0.1c-0.3-0.1-0.5-0.2-0.8-0.4l0,0
					c0,0,0,0-0.1,0c-0.1-0.1-0.3-0.2-0.4-0.3c-0.3-0.3-0.5-0.6-0.7-0.9c-0.2-0.5-0.4-1-0.4-1.6c0-0.7-0.2-1.8,0.1-2.7
					c0.5,0.2,1-0.3,0.7-0.8c-0.5-0.7-1.7,0.6-1.9,1c-0.4,0.9-0.2,2,0.1,3c0,0-0.1,0-0.1,0.1c-1.3-5.1-4.1-8.2-4.6-10.2
					c-0.4-1.6,0.8-1.9,1.8-1.8c3.4,2.3,9.6,1.3,11.7-2c0.9-1.4,1.4-3.9-0.6-4.7c-1.8-0.8-3.9,0.2-4.9,1.9c-0.2,0.3-0.1,0.6,0.1,0.8
					c0.4,0.3,0.5,0.4,1,0.6c0.8,0.3,1.1-0.9,0.5-1.3c0.4-0.4,0.9-0.8,1.5-0.9c2-0.3,2,2.1,1,3.2c-0.9,0.9-2,1.7-3.3,1.9
					c-1.7,0.3-4.1,0.3-5.9-0.5c-0.3-0.4-0.7-0.8-1.3-0.9c-0.1-0.1-0.2-0.1-0.3-0.1c-2.1-0.5-4.9,1.1-0.6,7.8
					c6.6,10.2,3.1,16.4-2.9,19.3c-5.7,2.7-6.9,0-7.4-1.2s0.5-2.2,0.8-1.6c0.3,0.7,0.9,0.5,0.9,0.5c1.7,0.2,2.9-2.4,0.5-3.6
					c-2.2-1.1-4.9,1.3-5.1,4.8c0,0,0,0,0,0.1c0,0.2,0,0.3,0,0.5s0,0.4,0.1,0.6c0.1,0.4,0.2,0.8,0.4,1.2c0.4,1.1,1.2,2.1,2.2,2.7
					c0.3,0.2,0.7,0.3,1,0.4c0.2,0.4,0.7,0.4,1.1,0.5c1.1,0.2,2.3,0.2,3.5,0.1c1.5-0.1,3-0.6,4.3-1.3c-0.3,0.3-0.5,0.6-0.8,0.9
					c-0.8,0.7-1.8,1.3-2.8,1.7s-2.3,0.5-3.4,0.4c-0.6-0.1-1.2-0.2-1.7-0.7s-0.6-0.9-0.6-1.6c0-0.1-0.1-0.2-0.2-0.1
					c-0.7,0.2-1.3,1.1-1.4,1.8c-0.1,0.4,0,0.7,0.1,1.1c0.1,0.3,0.3,0.5,0.4,0.8c-0.8-0.2-0.9-1.7-1.4-2.3c-0.5-0.5-1.2-0.6-1.9-0.5
					c-0.9,0.1-1.8,0.5-2.5,0.8C938.5,781.3,937.5,781.6,937.3,782.1z M964.7,766.8c1.2,0.3,2.5,0.2,3.7-0.5c0.4-0.2,0.7-0.6,0.9-1.1
					c-0.2,0.7-0.5,1.3-1.1,1.8c-0.9,0.7-1.9,0.8-3,0.7c0-0.1-0.1-0.2-0.2-0.3C965.1,767.2,964.9,767,964.7,766.8z M952,779.6
					c-1.1,0.2-2.2,0.3-3.2,0.3c-0.2,0-1.3,0-1.9-0.2c0.4,0.1,0.7,0.1,1,0.1c3.3,0.3,6.6-1.9,6.8-2.1c2.7-1.7,5.2-4.7,5.4-9.6
					c0-0.5,0-1,0-1.5c0,0.3,0.1,0.6,0.2,0.9c0.1,0.2-0.3,0.4-0.2,0.6c-0.1,1,0.2,2.1-0.2,3.1c-0.4,1-0.7,1.9-0.8,2.8
					c-0.5,1-1.2,2-2,2.9C955.6,778.3,954,779.2,952,779.6z"/>
			</g>
		</g>
	</g>
	<g>
		<path class="st0" d="M970.4,105c-1.4-3.2-3.4-6.1-5.7-8.7c2.8-5.8,3.2-12.7,1.2-18.8c-0.8-2.5-2-4.7-3.4-6.7
			c11.7-8.1,17.6-27.7,7.5-38.2c-9-9.3-26.2-10-28.7,5.7c-0.9,5.6,1.6,10.2,8,9.8c5.7-0.4,6.8-5.3,7-10.1c0.1-2.3-3.5-2-3.6,0.4
			c-7.3,3-9.5,1.8-6.6-3.5c4-5.1,8.6-6.7,13.8-4.6c3.3,1.1,6.8,3.5,8.8,6.2c5.9,7.9,2.1,21.1-4.2,28c-1.3,1.4-2.7,2.6-4.3,3.6
			c-4.2-4.2-9.8-6.9-15.9-8.5c-8.8-2.4-17.5-2.4-25.9,0.5c-0.5-0.3-1.6-1.3-2.1-1.9l-0.6-0.6l0,0c0,0-0.5-0.5-0.8-1.1
			c2.7-8.5,2.9-16.8,0.4-25.6c-1.7-6.1-4.3-11.5-8.5-15.7c1-1.6,2.2-3,3.6-4.3c6.8-6.3,20-10.2,28-4.5c2.8,2,5.2,5.5,6.3,8.8
			c2.1,5.1,0.7,9.7-4.4,13.8c-5.3,2.9-6.5,0.7-3.5-6.6c2.3-0.1,2.7-3.7,0.3-3.6c-4.8,0.2-9.7,1.4-10,7.1c-0.4,6.3,4.3,8.8,9.9,7.8
			c4.2-0.7,7.3-2.5,9.2-4.9c5.3-6.5,3-17.4-3.9-23.8c-10.6-9.9-30.2-3.8-38.1,8c-2-1.4-4.2-2.5-6.7-3.3c-6.2-1.9-13.1-1.5-18.8,1.4
			c-2.6-2.3-5.5-4.2-8.8-5.6c-15.6-6.8-44.5,4.6-43.4,24.8c0.2,4.6,2.5,12.3,8.5,10.9c5.7-1.4,5.3-8.5,0.1-9.7
			c-1.3-0.3-2.4,0.3-3,1.1c0.1-3.5,1-8.2,1.4-9.1c1.3-2.7,3.1-4.8,5.3-6.8c4.3-3.9,10.4-6.7,16.1-7.7c6.7-1.2,13.8,0.9,19.4,4.9
			c-1.9,1.6-3.6,3.5-5,5.8c-4.9,8.4,2.8,17.5,11.6,17.7c0.7,0,2.2-0.2,4-0.6c-1.1,21.4-23.4,18.8-21.7,3.2c0.3-2.9,2.1-5.4-0.5-7.8
			c-5-4.6-9.8,1.7-10.7,6.3c-1.5,7.9,0.9,4.8-4.3,3.9c-1.4-0.3-3.1-0.2-4.5,0.3c-2.7,1-4.4,3-5.2,5.7c-0.9,3.2,0.1,7.1,1.9,9.7
			c1.6,2.3,3.3,2.9,5.2,3.5c-0.6,0.3-1.2,0.5-1.4,0.6c-1.7,0.9-2.2,3.7-0.4,4.7c6,3.5,13.7,4.7,21.1,3.8c-0.7,4.6,1.8,7.3,5.2,8.9
			c1,7.8,1,15.8,1.9,23.5c0,0.4,0.4,0.9,0.4,0.9c0.2,0.2,0.5,0.4,0.9,0.4c7.8,0.8,15.8,0.8,23.6,1.7c1.6,3.4,4.3,5.9,8.9,5.1
			c-0.9,7.5,0.5,15.1,4,21.1c1.1,1.8,3.8,1.3,4.7-0.5c0.1-0.2,0.3-0.8,0.6-1.4c0.6,1.9,1.3,3.6,3.6,5.2c2.7,1.8,6.5,2.7,9.7,1.8
			c2.7-0.8,4.7-2.5,5.7-5.3c0.5-1.4,0.5-3.1,0.3-4.6c-1-5.1-4.1-2.7,3.8-4.3c4.6-0.9,10.8-5.8,6.1-10.8c-2.5-2.6-4.9-0.8-7.8-0.4
			c-15.5,1.8-18.5-20.4,3-21.7c-0.4,1.8-0.5,3.4-0.5,4c0.3,8.8,9.4,16.4,17.8,11.4c2.3-1.4,4.2-3.1,5.8-5c4.1,5.5,6.2,12.6,5.2,19.4
			c-0.9,5.6-3.6,11.8-7.5,16.2c-2,2.2-4.1,4.1-6.7,5.4c-0.9,0.5-5.6,1.4-9.1,1.5c0.9-0.7,1.4-1.7,1.1-3c-1.3-5.2-8.4-5.5-9.7,0.2
			c-1.4,6,6.3,8.2,11,8.4C966.3,149.5,977.3,120.5,970.4,105z M930.8,63c7.8-0.1,17.7,2.2,24,7.4c-4.8,1.5-10,1.7-14.8,1.1
			c-3.4-0.5-11-3.7-16.9-7.5C925.6,63.4,928.2,63.1,930.8,63z M912.1,44.6c0,2.6-0.3,5.2-0.9,7.8c-3.9-5.9-7.2-13.4-7.7-16.8
			c-0.7-4.8-0.6-10.1,0.9-14.8C909.7,26.9,912.1,36.7,912.1,44.6z M877.5,33.1c-1.6-1.3-6.2-6.1-2.3-11c0.6-1.9,1.6-3.4,3.1-4.7
			c3.3,3.4,5.6,7.6,6.2,12.1c0.2,1.4,0.3,2.7,0.4,4C881.6,33.9,878.4,33.8,877.5,33.1z M890.6,32c-0.5-2.6-1.3-5.2-2.4-7.6
			c1.1-0.2,2.3-0.2,2.9,0.1c2.3,0.8,1.6,4.4,0.8,6.3C891.8,31.2,891.3,31.7,890.6,32z M870.3,71.1c-0.1-0.2,0-1,0.2-1.8
			c7.3-2.3,13.7-6.9,17.1-13.8c3.3-6.7,4.3-13.9,3.4-20.8c0.3-0.2,0.5-0.3,0.7-0.5c2.1-2,3.4-6.2,2.7-9c-0.8-2.9-4.3-3.4-7-2.5
			c-1.4-2.8-3.1-5.3-5-7.7c6.1-2.4,13.8-1.1,18.8,2.6c0.1,0.1,0.2,0.1,0.3,0.2c-2.9,7.6-2.5,16.6-0.3,24.1c1.2,3.9,4.2,11.5,8,16.7
			c-3.5,7.9-9.9,14.2-18.9,16.2c-4.2,0.9-9.8,2.1-14.1,1C869.5,74.4,870.3,71.1,870.3,71.1z M874.7,100.9
			c-0.8-6.8-0.8-13.5-1.5-20.2c2.2,0.5,4.5,0.6,6.5,0.6c6.3,0,12.7-0.8,17.8-3.5c-2.3,5.4-3.3,11.6-3.2,17.9c0,2,0.2,4.3,0.7,6.5
			C888.3,101.6,881.5,101.5,874.7,100.9z M920.1,87.6c-6.9,3.5-11.4,10-13.6,17.3c-0.8,0.2-1.6,0.3-1.8,0.2c0,0-3.3,0.8-4.8-5.8
			c-1.2-4.3,0-9.9,0.9-14.1c1.9-9,8.1-15.5,15.9-19.1c5.2,3.7,12.8,6.6,16.8,7.8c7.5,2.1,16.4,2.4,24.1-0.6c0.1,0.1,0.2,0.2,0.2,0.3
			c3.8,5,5.1,12.7,2.8,18.8c-2.4-1.9-4.9-3.6-7.7-4.9c0.9-2.7,0.4-6.2-2.6-7c-2.8-0.7-7,0.6-8.9,2.8c-0.2,0.2-0.3,0.4-0.5,0.7
			C934,83.1,926.8,84.2,920.1,87.6z M943.6,84.4c0.4-0.7,0.8-1.2,1.2-1.4c1.9-0.8,5.5-1.5,6.3,0.8c0.2,0.6,0.3,1.9,0.1,2.9
			C948.8,85.7,946.2,84.9,943.6,84.4z M953.7,99.7c-4.8,3.9-9.7-0.6-11-2.2c-0.7-0.9-0.9-4.1-0.6-7.3c1.3,0,2.6,0.1,4,0.3
			c4.5,0.6,8.7,2.8,12.2,6.1C957.1,98.1,955.6,99.1,953.7,99.7z"/>
		<path class="st0" d="M920.8,255.3c-1.7-11.1-3-41,15.4-51.5c5.9-3.4,13.2-4.7,15.8-8.2c1.7-3,3-9.9,1.7-13c-0.8-0.7-3.8,2-4.7,2.4
			c2.3-10.6-3-26.8-15.9-23.8c6.7,6,7.2,15.4,3.4,22.3C932.9,190.2,902.9,221.3,920.8,255.3z"/>
		<path class="st0" d="M946.3,288.9c-0.2-0.1-0.4-0.2-0.7-0.3c-12.8-5.6-21.9-23.3-23.1-26.7c-5.7-15.8-6.3-40.5,10.8-49.6
			c3.2-1.7,8.9-3.3,12.4-1.5c2,1.1-0.1,2.6-2.1,3.8c0.6-0.2,1.3-0.3,2-0.3c1.8-0.1,3.6,0,5.4,0.4c2.9,0.5,6,1.8,7.8,4.2
			c1.7,2.2,2.7,5.5,2,8.3c-0.3,1.1-0.9,2.5-1.9,3.2c-1,0.8-1.8,0.6-2.8,0.4c-0.6,2.8-1.9,6.5-5.5,5.2c-0.2-0.1-0.3-0.3-0.3-0.4
			c-0.6-3.5,0.2-7.3-2.1-10.4c-2.7-3.6-7.3-3.5-11.3-2.8c-0.9,0.2-2.2-0.5-3.1-0.3c-0.3,0.1-0.6,0.2-0.9,0.1c1,0.7,1.9,1.7,2,2.8
			c0,0.3,0,1-0.3,1c-3.9,0.3-6.6,1.6-8.5,5.3c-0.6,1.2-3.5,8.8-3,16.4c0.2,2.5,1.9,15.9,8.1,25.1c4.6,6.9,11.2,12.1,15.5,15.2
			C946.6,288.4,946.4,288.6,946.3,288.9z"/>
		<path class="st0" d="M932.3,221.9c-0.1,0-0.2-0.1-0.3-0.1h0.1L932.3,221.9z"/>
		<path class="st0" d="M901.3,221.1c-2,2.4-3.4,5.5-4.4,8.5c-0.6,1.8-2.2,4.8-1.5,6.8c0.1,0.3,0.5,0.4,0.8,0.2
			c1.8-1.6,3.4-3.2,5.3-4.7c2.6-2,4.9-2,8-2c1,0,1.9-0.2,2.6,0.4c0.9,0.8,0.3,1.7,0.1,2.9c-0.2,1.9,0.1,3.8,0.4,5.8
			c0.8,4.8,3.2,8.4,6.2,12.1c1.5,1.9,3.1,3.5,5,5c1.2,0.9,2.5,2,4.1,1.9c0.4,0,0.5-0.5,0.3-0.8c-2.6-3.1-3.9-6.2-4.5-10.2
			c-0.6-3.6-0.4-7.5-0.3-11.1c0.1-3.5,1-6.8,1.3-10.2c0.4-3.6,1.9-7.1,3.4-10.4c2.9-6.3,6-12.7,7.1-19.5c0.5-3.1,0.7-6.3,0.2-9.5
			c-0.2-1.5-0.2-4-1.2-5.4c0.1-0.2,0.1-0.3-0.1-0.5c-0.1-0.1-0.2-0.2-0.3-0.4c-0.2-0.3-0.7-0.3-0.9,0.1c-0.8,2.5,0,5.1-0.1,7.7
			c-0.1,3.8-1.4,7.6-2.9,11.1s-4.6,7.1-7.7,9.4c-1.8,1.4-3.7,2.4-6.1,2.5c-2.5,0.1-3.9-0.7-5.6-2.5c-0.3-0.3-0.7-0.2-0.9,0.1
			c-1.2,2.3-0.5,6,0.8,8.2c0.7,1.2,1.7,1.9,2.9,2.6c1,0.5,2,0.6,3,0.9c-2.7,1.4-6.5-2.3-9.1-2.4
			C904.9,217.7,902.8,219.3,901.3,221.1z"/>
		<path class="st0" d="M902.2,130c-0.1,0.2-0.1,0.6,0.2,0.7c5.2,2.8,9.7,5.2,15.6,5.3c5.2,0.1,9.5-1.6,13.7-4.6
			c3.7-2.7,6.6-6.8,6.5-11.5c0-3.3-1.7-6.6-4.1-8.9c-0.5-0.8-1-1.5-1.7-2.1c-2.4-2.2-6.6-3-9.5-1.4c-2.2,1.3-3.1,4.2-0.9,5.9
			c1.3,1,2.7,0.7,2.8-0.5c0.9,1.2,1.1,4.1,1.1,5.1c0.1,2.2-0.6,3.9-2,5.6c-2.2,2.7-5.8,5.2-9.3,5.9c-5.5,2.8-11.6,1-16.8-2.6
			C899.1,128.1,900.7,129.1,902.2,130z M909.4,133.2c1.8,0.4,3.6,0.6,5.6,0.4c8.8-0.8,18.7-4.7,20.8-14.3c0.3-1.6,0.2-3.4-0.3-5.2
			c1.3,2.1,2,4.6,1.7,7.1c-0.7,5.1-3.9,10.1-8.7,11c-7.9,1.4-9.9,2.8-13.5,2.5C912.9,134.7,911.2,134,909.4,133.2z"/>
		<path class="st0" d="M888.6,201.9c0,0.1,0,0.2,0.1,0.3c0.4,0.4,0.9,0.8,1.4,1.2c0.5,0.5,1,1,1.6,1.4c1.3,1,2.6,1.7,4,2.1
			c3.9,1.8,8.2,2.5,12.5,1.5c1.3-0.3,2.5-0.8,3.7-1.4c1.4,0.5,3-0.8,4.1-1.5c3.5-2.2,6.5-5.1,9.1-8.3c5.1-5.9,8.7-13.2,9.1-21
			c0.4-7.4-1-14.5-4.1-21.3c-1.5-3.4-3.3-7.1-5.6-10.1c-1.1-1.5-2.5-2.6-4-3.5c-2-1.1-3.7-2.2-5.6-3.6c-0.4-0.3-0.8,0.1-0.8,0.4
			c-6-5.7-24.8-13.4-32.3-27.2c-1.6-3-1.6-6.8-0.7-10.1c1.1-3.9,5.9-4.5,8.2-1c1.1,1.7,1.3,3.9,1.4,5.9c0,0.1,0,0.3,0.1,0.4
			c-0.1,0.8-0.5,1.4-1.5,1.9c-0.8,0.4-1.6,0.4-2.4,0c-0.6-0.3-1.5-1.3-0.8-1.9c1-0.8-0.2-2.5-1.2-1.6c-2.6,2.3,0.1,5.8,3,5.8
			c1.5,0,3.1-0.8,4-2c0.8-1.1,0.9-2.2,0.8-3.4l0,0c0-0.2,0-0.4,0.1-0.5l0,0c0,0,0-0.1,0-0.2c0-0.4,0-0.7,0.1-1.1
			c-0.1-0.6-0.1-1.2-0.1-1.7c0-0.2,0-0.4-0.1-0.5c-1-3.3-3.1-6.1-6.8-7c-5-1.3-7.4,3.6-8.1,7.8c-1.1,6,0.9,12.1,4.4,17.2
			c0.5,0.5,1,1,1.5,1.4c3.2,3,6.7,5.4,10.1,7.9c2,1.1,3.8,2.2,5.5,3.7c20.5,13.3,24.6,30.2,18,47.6c-7.9,20.9-17.6,17.2-21.8,15.3
			s-4.1-7.1-1.8-6s3.6-1.1,3.6-1.1c5-3.8,1.5-13.5-7.7-10.6C881.6,179.6,880.5,192.8,888.6,201.9z M914,205.8c1.1-0.7,2.1-1.5,3-2.2
			c9.3-7.4,12.2-21.2,12.1-22.1c2.5-11,1.6-24.9-10-38c-1.2-1.4-2.5-2.7-3.7-3.9c0.8,0.6,1.7,1.3,2.6,1.8c1.9,1,3.7,1.9,5.2,3.6
			c2.2,2.6,3.8,6,5.3,9.1c3,6.2,4.7,12.6,4.7,19.5c0,7.3-2.1,13.5-6.1,19.5c-2.1,3.2-4.8,6.1-7.6,8.7
			C918.9,202.3,916.1,204.8,914,205.8z"/>
		<path class="st0" d="M907,130.7l0.1,0.1c0.2,0.2,0.3,0.5,0.5,0.7c1.3,1.3,3.5,2.3,4.6,2.9c2.2,1.2,4.7,2.4,7.3,2.4
			s5.4-0.4,7.8-1.4c2-0.8,4.4-3,4.8-5.3l0,0c0.4-0.2,0.9-0.4,1.2-0.7l0,0c0.7,3.1,0.3,6.1-2,8.5c-2.1,2.2-5.1,3-8,2.8
			c-3.4-0.3-7.4-0.7-10.4-2.5c-1.6-0.9-2.9-2.2-4.2-3.5c-0.7-0.7-1.2-1.5-1.6-2.3c-0.7-0.6-1.3-1.3-1.6-2.1
			C906,130.6,906.5,130.7,907,130.7z"/>
		<path class="st0" d="M915.7,128.8c0.7-0.2,1.3-0.4,1.9-0.7c1.1-0.4,2.1-1.2,2.7-2.3c-1.1-2.3-2-2.9-3-1.7
			c-0.3,0.3-0.7,0.1-0.8-0.2c-0.3-0.5-0.3-1-0.1-1.4c0-0.1,0-0.2,0.1-0.4l0.1-0.1c0.5-0.9,1.4-1.6,2.1-2c2.5-1.4,4.5-0.4,6.4,1.3
			c0.1-0.1,0.3-0.1,0.5,0.1c0.9,0.8,1,3.5-0.7,3.2c-0.3-0.1-0.6-0.5-0.8-0.6c-0.4-0.4-0.9-0.7-1.4-1c-1.5-0.8-3.7-1.6-5-0.5
			c-0.1,0.1-0.2,0.2-0.3,0.4l0,0c1.6-1,4.1-0.7,4.3,1.7c0.3,3.6-4,4.8-6.7,5.6c-0.4,0.1-0.7-0.2-0.7-0.5
			C914.8,129.3,915.2,129.1,915.7,128.8z"/>
		<path class="st0" d="M791.8,36c6.9-3.6,16.4-2.9,22.2,3.9c3.2-12.8-12.8-18.4-23.5-16.4c0.4-0.9,3.1-3.8,2.5-4.6
			c-3.1-1.4-10-0.3-13,1.4c-3.5,2.5-5,9.8-8.5,15.6c-10.9,18.2-40.7,16.2-51.8,14.2C753.4,68.7,785.1,39.4,791.8,36z"/>
		<path class="st0" d="M686.7,23.8c0.1,0.2,0.2,0.4,0.3,0.7c5.3,12.9,22.8,22.4,26.1,23.7c15.7,6.1,40.4,7.2,49.8-9.7
			c1.8-3.2,3.5-8.8,1.7-12.4c-1-2-2.6,0-3.8,2c0.2-0.6,0.3-1.3,0.3-2c0.1-1.8,0-3.6-0.3-5.4c-0.5-2.9-1.7-6-4-7.9
			c-2.2-1.7-5.5-2.8-8.2-2.2c-1.1,0.3-2.5,0.8-3.3,1.8s-0.7,1.8-0.5,2.8c-2.8,0.6-6.5,1.7-5.3,5.4c0.1,0.2,0.2,0.3,0.4,0.3
			c3.5,0.7,7.3,0,10.4,2.4c3.5,2.7,3.4,7.4,2.6,11.4c-0.2,0.9,0.5,2.2,0.2,3.1c-0.1,0.3-0.2,0.6-0.1,0.9c-0.6-1-1.7-1.9-2.8-2.1
			c-0.3,0-1,0-1.1,0.3c-0.4,3.9-1.8,6.5-5.5,8.4c-1.2,0.6-8.9,3.3-16.4,2.6c-2.5-0.2-15.9-2.3-25-8.6c-6.8-4.8-11.9-11.5-14.8-15.8
			C687.2,23.6,687,23.7,686.7,23.8z"/>
		<path class="st0" d="M756.9,64.3c-0.1-2.6-3.6-6.5-2.2-9.1c0.3,1,0.3,2.1,0.8,3c0.6,1.2,1.3,2.2,2.5,3c2.1,1.3,5.8,2.2,8.1,1
			c0.4-0.2,0.4-0.6,0.2-0.9c-1.7-1.7-2.5-3.1-2.3-5.6c0.1-2.3,1.2-4.2,2.6-6c2.3-3,6-6,9.6-7.4c3.5-1.4,7.4-2.6,11.2-2.7
			c2.6,0,5.2,0.8,7.7,0c0.4-0.1,0.4-0.6,0.2-0.9c-0.1-0.1-0.2-0.2-0.4-0.3c-0.2-0.2-0.4-0.2-0.5-0.1c-1.3-1-3.8-1.1-5.3-1.3
			c-3.1-0.6-6.3-0.4-9.5,0c-6.9,0.9-13.4,3.9-19.7,6.6c-3.3,1.4-6.8,2.9-10.5,3.2c-3.4,0.3-6.8,1-10.2,1.1c-3.6,0-7.5,0.1-11.1-0.5
			c-4-0.7-7-2.1-10-4.8c-0.3-0.2-0.8-0.1-0.8,0.3c-0.1,1.5,1,2.9,1.8,4.1c1.4,2,3,3.6,4.9,5.1c3.7,3.1,7.2,5.6,12,6.5
			c1.9,0.3,3.8,0.7,5.7,0.5c1.2-0.1,2.1-0.7,2.9,0.2c0.6,0.7,0.4,1.7,0.4,2.6c-0.1,3.1-0.1,5.4-2.1,8c-1.5,1.9-3.1,3.5-4.8,5.2
			c-0.2,0.2-0.1,0.7,0.2,0.8c1.9,0.7,5-0.8,6.8-1.4c3-1,6.1-2.3,8.6-4.2C755.4,68.9,757,66.8,756.9,64.3z"/>
		<path class="st0" d="M847.6,76c-3.5-5.3-5.1-11.5-2.2-16.9c0.8-3.5,3.3-7,6.1-9.2c1.7-1.4,3.4-2,5.7-1.9c1.1,0.1,4,0.3,5.1,1.2
			c-1.2,0.1-1.5,1.5-0.5,2.8c1.7,2.2,4.6,1.4,5.9-0.8c1.7-2.9,1-7.1-1.2-9.6c-0.6-0.6-1.3-1.2-2.1-1.7c-2.3-2.5-5.5-4.2-8.8-4.3
			c-4.7-0.1-8.9,2.6-11.7,6.3c-3.1,4.1-4.9,8.4-4.9,13.6c0,6,2.3,10.5,5,15.8c0.1,0.3,0.5,0.3,0.7,0.3C845.4,73,846.4,74.6,847.6,76
			z M840.1,58.7c-0.2-3.7,1.2-5.6,2.8-13.5c1-4.8,6.1-7.9,11.2-8.5c2.5-0.3,5,0.5,7.1,1.8c-1.8-0.5-3.6-0.7-5.1-0.4
			c-9.6,1.8-13.7,11.7-14.7,20.4c-0.2,2-0.1,3.8,0.3,5.6C840.8,62.4,840.2,60.6,840.1,58.7z"/>
		<path class="st0" d="M797.2,82.8c3-9.2-6.5-12.8-10.5-7.9c0,0-2.2,1.2-1.2,3.6c1,2.3-4.2,2.3-5.9-1.9c-1.8-4.3-5.3-14,15.8-21.5
			c17.6-6.2,34.3-1.7,47.2,19.1c1.5,1.7,2.5,3.6,3.6,5.6c2.4,3.4,4.7,7,7.7,10.3c0.5,0.5,0.9,1,1.4,1.5c5.1,3.6,11.1,5.7,17.1,4.8
			c4.2-0.7,9.1-3,8-8c-0.9-3.7-3.7-5.8-6.9-6.9c-0.2,0-0.4,0-0.5-0.1c-0.6,0-1.2-0.1-1.7-0.2c-0.3,0.1-0.7,0.1-1.1,0.1
			c-0.1,0-0.2,0-0.2,0l0,0c-0.2,0-0.4,0-0.5,0l0,0c-1.2-0.1-2.3-0.1-3.4,0.7c-1.2,0.9-2.1,2.4-2.1,4c0,2.9,3.3,5.7,5.7,3.2
			c0.9-0.9-0.7-2.1-1.6-1.2c-0.7,0.7-1.6-0.2-1.9-0.8c-0.4-0.8-0.3-1.6,0.1-2.4c0.5-0.9,1.1-1.3,1.9-1.4c0.1,0,0.2,0.1,0.4,0.1
			c2,0.2,4.2,0.4,5.9,1.6c3.5,2.3,2.8,7.1-1.2,8.1c-3.3,0.9-7.1,0.8-10.1-0.9c-13.6-7.7-20.9-26.7-26.5-32.9c0.3,0,0.7-0.4,0.4-0.8
			c-1.3-1.9-2.3-3.6-3.4-5.6c-0.9-1.6-2-3-3.4-4.1c-3-2.3-6.6-4.2-10-5.8c-6.7-3.2-13.8-4.8-21.2-4.5c-7.8,0.2-15.2,3.7-21.2,8.6
			c-3.2,2.6-6.1,5.5-8.5,8.9c-0.8,1.1-2.1,2.7-1.6,4.1c-0.6,1.2-1.2,2.4-1.5,3.6c-1.1,4.2-0.5,8.6,1.2,12.5c0.4,1.4,1.1,2.8,2.1,4
			c0.4,0.6,0.9,1.1,1.4,1.6c0.4,0.5,0.8,1,1.2,1.4c0.1,0.1,0.2,0.1,0.3,0.1C781.4,91.7,794.5,91,797.2,82.8z M773.3,52.5
			c2.6-2.8,5.6-5.4,8.8-7.5c6.1-3.9,12.4-5.9,19.7-5.7c6.9,0.2,13.3,2.1,19.4,5.2c3,1.5,6.5,3.2,9,5.5c1.6,1.5,2.5,3.3,3.5,5.2
			c0.5,1,1.1,1.8,1.7,2.7c-1.2-1.3-2.5-2.5-3.9-3.8c-12.9-11.8-26.7-13.1-37.8-10.8c-0.9-0.1-14.8,2.5-22.4,11.6
			c-0.8,0.9-1.6,1.9-2.3,3C770.1,55.9,772.7,53.2,773.3,52.5z"/>
		<path class="st0" d="M844,66.7L844,66.7c-0.3-0.3-0.6-0.5-0.8-0.6c-1.3-1.3-2.3-3.5-2.8-4.7c-1.1-2.3-2.3-4.7-2.3-7.3
			s0.6-5.4,1.6-7.8c0.9-2,3.1-4.3,5.4-4.7l0,0c0.2-0.4,0.4-0.8,0.7-1.2l0,0c-3.1-0.7-6.1-0.5-8.5,1.8c-2.2,2.1-3.2,5-3,8
			c0.2,3.4,0.5,7.4,2.2,10.4c0.9,1.6,2.1,3,3.4,4.3c0.7,0.7,1.5,1.2,2.3,1.7c0.6,0.7,1.3,1.3,2,1.6C844.1,67.6,844,67.2,844,66.7z"
			/>
		<path class="st0" d="M846.1,58c0.2-0.7,0.5-1.3,0.8-1.9c0.4-1.1,1.2-2,2.4-2.7c2.3,1.1,2.8,2.1,1.6,3c-0.3,0.3-0.1,0.7,0.2,0.8
			c0.5,0.3,1,0.3,1.4,0.1c0.1,0,0.2,0,0.4-0.1l0.1-0.1c0.9-0.4,1.6-1.3,2.1-2c1.4-2.4,0.5-4.5-1.2-6.4c0.1-0.1,0.1-0.3-0.1-0.5
			c-0.7-0.9-3.5-1.1-3.2,0.6c0.1,0.3,0.4,0.6,0.6,0.8c0.4,0.4,0.7,0.9,1,1.4c0.8,1.5,1.5,3.7,0.4,5c-0.1,0.1-0.2,0.2-0.4,0.3l0,0
			c1-1.6,0.7-4.1-1.6-4.3c-3.6-0.4-4.8,3.9-5.8,6.5c-0.1,0.4,0.2,0.7,0.5,0.7C845.5,58.9,845.8,58.5,846.1,58z"/>
	</g>
	<path d="M772.5,997.9c0.5,2.5,1.5,4.8,3.1,6.6c2.3,2.6,5.6,4.1,9.2,4.1c3.6,0,6.9-1.5,9.3-3.7c2.4-2.2,4-5.2,4.2-8.6
		c0.3-3.3-0.9-6.5-2.9-9.1c-2-2.5-5.1-4.5-8.6-5.1c-3.6-0.6-7,0.3-9.7,2.6c-2.3,1.8-3.9,4.5-4.6,7.7c-0.1,0.6-0.3,1.3-0.3,1.9
		C772.3,995.5,772.3,996.8,772.5,997.9z"/>
	<path d="M176.7,996.3c0.2,3.4,1.9,6.3,4.2,8.6c2.4,2.2,5.7,3.7,9.3,3.7s6.9-1.5,9.2-4.1c1.6-1.8,2.7-4,3.1-6.6
		c0.2-1.2,0.3-2.4,0.2-3.6c-0.1-0.7-0.2-1.3-0.3-1.9c-0.7-3.1-2.3-5.8-4.6-7.7c-2.7-2.2-6.1-3.2-9.7-2.6c-3.6,0.6-6.6,2.6-8.6,5.1
		C177.6,989.8,176.4,993,176.7,996.3z"/>
	<g>
		<g>
			<path class="st1" d="M407.2,1047.7c140.3,0,257.3,0.2,281,0.6l-1.5,3.7c-33.8-0.6-358-0.7-399.1-0.5l-1.1-3.7
				C298.8,1047.7,346.8,1047.7,407.2,1047.7z"/>
		</g>
	</g>
	<g>
		<g>
			<path class="st1" d="M407.2,28c140.3,0,257.3-0.2,281-0.6l-1.5-3.7c-33.8,0.6-358,0.7-399.1,0.5l-1.1,3.7
				C298.8,27.9,346.8,28,407.2,28z"/>
		</g>
	</g>
</g>
</svg>
