<?xml version="1.0" encoding="utf-8"?>
<!-- Generator: Adobe Illustrator 27.2.0, SVG Export Plug-In . SVG Version: 6.00 Build 0)  -->
<svg version="1.1"
	 id="svg2" xmlns:svg="http://www.w3.org/2000/svg" xmlns:dc="http://purl.org/dc/elements/1.1/" xmlns:cc="http://creativecommons.org/ns#" xmlns:rdf="http://www.w3.org/1999/02/22-rdf-syntax-ns#"
	 xmlns="http://www.w3.org/2000/svg" xmlns:xlink="http://www.w3.org/1999/xlink" x="0px" y="0px" viewBox="0 0 1161.9 1161.4"
	 style="enable-background:new 0 0 1161.9 1161.4;" xml:space="preserve">
<style type="text/css">
	.st0{fill:#100F0D;}
	.st1{fill:#211C1D;}
</style>
<g id="g10" transform="matrix(1.3333333,0,0,-1.3333333,0,1161.4267)">
	<g id="g12" transform="scale(0.1)">
		<path id="path14" d="M471.5,8318.5c13.1-6.2,24.1,2.1,24.8,9.6c0,0,21.6-33.5-2.7-60.6c-22.7-25.2-40.9-10.3-43.3-8.1
			c2.2-2.5,17.1-20.7-8-43.3c-27.1-24.3-60.6-2.7-60.6-2.7c7.5,0.6,15.8,11.7,9.6,24.8c-6.2,13.1,6.2,22.7,6.2,22.7
			c-29.2-22.3-55,27.5-51.6,55.8c3.3,27.7-0.4,47-0.5,47.6l0,0l0.1,0l0,0l0,0c0.6-0.1,19.9-3.8,47.7-0.4c28.2,3.4,78-22.5,55.7-51.6
			C448.8,8312.3,458.4,8324.7,471.5,8318.5L471.5,8318.5"/>
		<path id="path16" d="M622.2,7972.5c31.6,11.5,12.2,98.1-58.8,174.5c76.3-71,162.9-90.5,174.4-58.8c12.4,34-50.2,59.5-50.2,59.5
			c98.7-4.7,186-42.5,186-42.5c133.5-59.5,71.9-142.8,71.9-142.8c32.3,81.8-58,128.8-58,128.8c44.8-38.5,29.4-78.7-1.5-83.3
			c-30.9-4.7-21.6-24.7-23.9-47.1c-2.3-22.4-57.1-1.6-57.1-1.6c33.9-94.1,149-73.3,185.2,1.5c36.3,74.9-47.8,140.5-47.8,140.5
			c171.4-24.6,259.3-148.1,247-226.9c-12.3-78.6-77.2-117.3-119.7-101.1c-42.3,16.2-37,44.8-37,44.8c72.5-29.3,87.6,86.9,13.5,96.1
			c-74.1,9.2-120.4-120.4-13.9-173.6c106.5-53.3,233.8,85.6,165.5,230.3c-37.8,80.1-122,131.8-224.7,165.6
			c94.6-7.5,165.1,69.5,145.4,127.8c-23.8,70-91.5,63.7-104.2,27.8c-12.8-36,24.3-47.5,24.3-47.5s45.1,0,0.6-53.8
			c-34.4-41.5-90.4-42.1-114.3-40.2c-70.3,18.6-146.6,30.3-221.1,37.8c-170.2,17.2-287.2,109.8-322.8,141.3
			c-3.7,3.7-7.4,7.2-11.2,10.9c0,0,1.8-1.8,4.7-4.8c-3.1,2.9-4.9,4.7-4.9,4.7c3.7-3.8,7.3-7.5,10.9-11.2
			c31.5-35.5,124.1-152.6,141.3-322.8c7.6-74.5,19.2-150.8,37.8-221.1c2-23.8,1.3-79.9-40.2-114.3c-53.9-44.6-53.8,0.6-53.8,0.6
			s-11.5,37.1-47.5,24.3c-35.8-12.7-42.2-80.4,27.8-104.2c58.3-19.7,135.4,50.8,127.9,145.4c33.8-102.6,85.5-186.9,165.6-224.7
			c144.7-68.3,283.7,59,230.4,165.6c-53.2,106.5-182.9,60.1-173.6-14c9.3-74,125.5-59,96.2,13.5c0,0,28.5,5.4,44.7-37
			c16.2-42.5-22.4-107.3-101.1-119.7c-78.8-12.3-202.3,75.6-227,247c0,0,65.6-84.1,140.5-47.8c74.8,36.2,95.7,151.3,1.6,185.3
			c0,0,20.7-54.9-1.6-57.2c-22.4-2.3-42.4,7-47-23.9c-4.6-30.9-44.8-46.3-83.4-1.6c0,0,47.1-90.2,128.9-57.9
			c0,0-83.3-61.7-142.8,71.8c0,0-37.8,87.3-42.5,186C562.8,8022.7,588.3,7960.2,622.2,7972.5L622.2,7972.5z M450.9,8259.5
			c158.8-149.9,229.9-162.1,229.9-162.1c-34.6-2.8-121.6,57.3-132.9,65.3c-0.4,0.4-0.7,0.7-1.1,1.1c0,0,0.2-0.3,0.4-0.5
			c-0.4,0.1-0.6,0.4-0.6,0.4c0.4-0.4,0.7-0.7,1.1-1c7.9-11.3,68.1-98.2,65.3-132.8C613,8029.7,600.8,8100.7,450.9,8259.5
			L450.9,8259.5"/>
		<path id="path18" d="M1301.3,7606.4c-62-42-167.8-2.7-218.6,20.6l-0.2,0.2c0-0.1,0-0.1,0-0.1c0,0-0.1,0.1-0.2,0l0.2-0.2
			c23.3-50.8,62.5-156.7,20.6-218.6c-65.2-96.3-125.8-6.2-173.9-77.7c0,0-20.2-52.7,32.6-69.9c25.5-8.3,100.9-17.1,158.4,38.8
			c47,45.8,93.4,124.4,37,252.8c128.4-56.4,207-10,252.8,37c56,57.5,47.1,132.8,38.9,158.4c-17.1,52.9-69.9,32.6-69.9,32.6
			C1307.5,7732.3,1397.6,7671.7,1301.3,7606.4L1301.3,7606.4z M1149.6,7560.1l-0.2,0.1c0-0.1,0-0.1,0-0.1c0,0-0.1,0.1-0.2,0l0.2-0.1
			c15.4-48.6,34.9-145-21.6-217c0,0,63.3,121.7-10.7,249.3c127.6-74,249.3-10.8,249.3-10.8
			C1294.6,7525.2,1198.2,7544.7,1149.6,7560.1L1149.6,7560.1"/>
		<path id="path20" d="M1580.9,8390.1c-33.2,79.8,8.8,135.2,8.8,135.2c-32.1-70.2,21.6-194.2,21.6-194.2s-7.5,47.2,39,96.9
			c46.5,49.8,14.5,99.1-11.4,127c-25.9,28,10.3,52.3,10.3,52.3c-120.2-18.7-118.8-159.4-82.4-218.2c36.3-58.8,26-113.5,26-113.5
			S1614,8310.3,1580.9,8390.1L1580.9,8390.1"/>
		<path id="path22" d="M1288.3,7909.1c-5.3,197.6-96.2,132.3-118.2,205.1c-22,72.7-60.7,31-60.7,31s44.9,104.4,184.9,81.1
			c140.1-23.3,197.2-231.4,28.4-415.5c0,0,144.3,178.8,53,334.1c0,0,83.5-158.5-95.4-381.1c0,0,169.4,86.3,201,293.3
			c31.6,206.9-43.7,228.3,36,308.4c0,0-6.7-15.3,19.6-28c26.2-12.7,55.1-48,40.9-115.5c0,0-3,61.1-41.9,78.6
			c0,0,45.1-36.1,30.6-125.7c0,0,58.6,250.4,246.9,283.7c188.4,33.2,250.4-79.4,251.1-146s-17.4-89.3,24.2-108.6
			c0,0-118-37.6-141.1,36.8c-23.2,74.4-1,165.9-95.2,169.2c0,0,79.6,28.4,108.5-88.3c0,0,7.4,50.7-31,81.5
			c-38.4,30.8-163.2,58.3-268.5-76.4c-80-102.2-107.4-240.3-107.4-240.3s44.6,11.2,67.5,98.2c23,86.9,60.2,139.2,131,127.4
			c70.8-11.8,64.4,26.2,64.4,26.2s44.3-31.6,14.5-104.2c-29.8-72.6-154.6-66.3-205-107.8c0,0,31.2,51.7,125.2,67.6
			c0,0-81.9,26.8-148.5-84.9c0,0,110.6,68.3,229.2-0.8c118.7-69.1,116.4-237.4,7.4-274.8c-109.1-37.4-226.2,72.9-133.3,161.4
			c0,0-31.6-54.5,3.2-59.6c34.8-5,28.5,53.5,82.5,38.3c54-15.2,72,47.2,36.5,87.9c0,0,54.6-31.6,17.5-103.1
			c-37-71.5-124.5-34.4-124.5-34.4s90.4-58.4,136.6,31.2c48,92.9-54.5,169.2-155,160.1c-100.4-9-184.3-97.5-243-205.8
			c-58.7-108.3-191.6-228.2-381.5-252.3C1078.4,7657,1293.6,7711.6,1288.3,7909.1L1288.3,7909.1"/>
		<path id="path24" d="M320.6,7129.9c-79.8,33.2-135.2-8.8-135.2-8.8c70.2,32.1,194.2-21.6,194.2-21.6s-47.2,7.5-96.9-39
			c-49.8-46.5-99.1-14.5-127,11.4c-28,25.9-52.3-10.3-52.3-10.3c18.7,120.2,159.4,118.8,218.2,82.4c58.8-36.3,113.5-26,113.5-26
			S400.4,7096.7,320.6,7129.9L320.6,7129.9"/>
		<path id="path26" d="M801.6,7422.4c-197.6,5.3-132.3,96.2-205.1,118.2c-72.7,22-31,60.7-31,60.7s-104.4-44.9-81.1-185
			c23.3-140.1,231.4-197.2,415.5-28.4c0,0-178.8-144.3-334.1-53c0,0,158.5-83.5,381.1,95.4c0,0-86.3-169.4-293.3-201
			c-206.9-31.5-228.3,43.7-308.4-36c0,0,15.3,6.7,28-19.6c12.7-26.2,48-55.1,115.5-40.9c0,0-61.1,3-78.6,41.9
			c0,0,36.1-45.1,125.7-30.6c0,0-250.4-58.6-283.7-246.9c-33.2-188.4,79.4-250.4,146.1-251.1c66.7-0.7,89.3,17.4,108.6-24.2
			c0,0,37.6,118-36.8,141.2c-74.4,23.2-165.9,1-169.2,95.2c0,0-28.4-79.6,88.3-108.5c0,0-50.7-7.4-81.5,31
			c-30.8,38.5-58.3,163.2,76.4,268.5c102.2,80,240.3,107.5,240.3,107.5s-11.2-44.6-98.2-67.5c-86.9-23-139.2-60.2-127.4-131
			c11.8-70.8-26.1-64.4-26.1-64.4s31.6-44.2,104.2-14.5c72.6,29.8,66.3,154.6,107.8,205c0,0-51.7-31.2-67.6-125.2
			c0,0-26.8,81.9,84.9,148.5c0,0-68.3-110.6,0.8-229.2c69.1-118.7,237.4-116.4,274.8-7.4c37.4,109-72.9,226.2-161.4,133.4
			c0,0,54.5,31.6,59.6-3.1c5-34.8-53.5-28.5-38.3-82.5c15.2-54-47.2-72-87.9-36.5c0,0,31.6-54.6,103.1-17.5s34.4,124.5,34.4,124.5
			s58.4-90.5-31.2-136.6c-92.9-48-169.2,54.5-160.1,155c9,100.5,97.5,184.4,205.8,243c108.3,58.6,228.2,191.6,252.3,381.5
			C1053.7,7632.3,999.1,7417.2,801.6,7422.4L801.6,7422.4"/>
		<path id="path28" d="M471.5,392.2c13.1,6.2,24.1-2.1,24.8-9.6c0,0,21.6,33.5-2.7,60.6c-22.7,25.2-40.9,10.3-43.3,8.1
			c2.2,2.5,17.1,20.7-8,43.3c-27.1,24.3-60.6,2.7-60.6,2.7c7.5-0.6,15.8-11.7,9.6-24.8c-6.2-13.1,6.2-22.7,6.2-22.7
			c-29.2,22.3-55-27.5-51.6-55.8c3.3-27.7-0.4-47-0.5-47.6l0,0l0.1,0l0,0l0,0c0.6,0.1,19.9,3.8,47.7,0.4c28.2-3.4,78,22.5,55.7,51.6
			C448.8,398.3,458.4,386,471.5,392.2L471.5,392.2"/>
		<path id="path30" d="M622.2,738.2c-33.9,12.3-59.5-50.2-59.5-50.2c4.7,98.7,42.5,186,42.5,186c59.5,133.5,142.8,71.8,142.8,71.8
			c-81.8,32.3-128.9-57.9-128.9-57.9c38.6,44.7,78.8,29.3,83.4-1.6c4.6-30.9,24.7-21.6,47-23.9c22.4-2.3,1.6-57.2,1.6-57.2
			c94.1,34,73.3,149-1.6,185.3c-74.9,36.2-140.5-47.8-140.5-47.8c24.7,171.3,148.2,259.3,227,247c78.6-12.4,117.2-77.2,101.1-119.7
			c-16.2-42.4-44.7-37-44.7-37c29.3,72.6-86.9,87.6-96.2,13.5c-9.3-74,120.4-120.4,173.6-13.9c53.3,106.6-85.6,233.9-230.4,165.6
			c-80.1-37.8-131.8-122.1-165.6-224.7c7.5,94.6-69.6,165.2-127.9,145.5c-70-23.8-63.7-91.5-27.8-104.2c36-12.8,47.5,24.3,47.5,24.3
			s0,45.2,53.8,0.6c41.5-34.4,42.1-90.5,40.2-114.3c-18.6-70.3-30.3-146.6-37.8-221.1C504.7,534,412.1,417,380.6,381.4
			c-3.6-3.7-7.2-7.4-10.9-11.3c0,0,1.8,1.8,4.9,4.7c-3-3.1-4.7-4.8-4.7-4.8c3.9,3.7,7.6,7.2,11.2,10.9
			c35.5,31.5,152.5,124.1,322.8,141.3c74.5,7.6,150.8,19.2,221.1,37.8c23.8,2,79.9,1.3,114.3-40.2c44.5-53.8-0.6-53.8-0.6-53.8
			s-37.1-11.5-24.3-47.5c12.7-35.9,80.4-42.2,104.2,27.8c19.7,58.3-50.8,135.4-145.4,127.8c102.7,33.8,186.9,85.5,224.7,165.6
			c68.3,144.7-59,283.6-165.5,230.3C925.8,917,972,787.4,1046.2,796.6c74.1,9.2,59,125.4-13.5,96.1c0,0-5.4,28.5,37,44.8
			c42.4,16.2,107.4-22.4,119.7-101.1c12.3-78.8-75.6-202.3-247-226.9c0,0,84.1,65.6,47.8,140.5c-36.2,74.8-151.2,95.7-185.2,1.5
			c0,0,54.8,20.8,57.1-1.6c2.3-22.4-7-42.4,23.9-47.1c30.9-4.6,46.3-44.8,1.5-83.3c0,0,90.2,47.1,58,128.8c0,0,61.7-83.3-71.9-142.7
			c0,0-87.2-37.9-186-42.5c0,0,62.6,25.5,50.2,59.5c-11.5,31.7-98.1,12.3-174.4-58.8C634.4,640.1,653.8,726.7,622.2,738.2
			L622.2,738.2z M450.9,451.2C600.8,609.9,613,681,613,681c2.8-34.6-57.4-121.5-65.3-132.8c-0.4-0.4-0.7-0.7-1.1-1.1
			c0,0,0.2,0.2,0.6,0.4c-0.3-0.3-0.4-0.5-0.4-0.5c0.4,0.4,0.7,0.7,1.1,1.1c11.3,7.9,98.2,68.1,132.9,65.3
			C680.7,613.3,609.7,601,450.9,451.2L450.9,451.2"/>
		<path id="path32" d="M1301.3,1104.3c96.3-65.3,6.2-125.8,77.7-173.9c0,0,52.8-20.3,69.9,32.6c8.2,25.6,17.1,100.9-38.9,158.4
			c-45.8,47.1-124.4,93.5-252.8,37c56.4,128.4,10,207-37,252.8c-57.5,56-132.9,47.2-158.4,38.8c-52.8-17.1-32.6-69.8-32.6-69.8
			c48.1-71.5,108.7,18.6,173.9-77.7c42-62,2.7-167.8-20.6-218.6l-0.2-0.2c0.1,0,0.1,0,0.2,0c0,0-0.1-0.1,0-0.2l0.2,0.2
			C1133.5,1107,1239.3,1146.2,1301.3,1104.3z M1149.6,1150.6c48.6,15.4,145,34.8,216.9-21.5c0,0-121.6,63.2-249.3-10.8
			c74,127.7,10.7,249.3,10.7,249.3c56.4-72,36.9-168.4,21.6-217l-0.2-0.2c0.1,0,0.1,0,0.2,0c0,0-0.1-0.1,0-0.2L1149.6,1150.6
			L1149.6,1150.6"/>
		<path id="path34" d="M1580.9,320.6c-33.2-79.8,8.8-135.2,8.8-135.2c-32.1,70.2,21.6,194.2,21.6,194.2s-7.5-47.2,39-96.9
			c46.5-49.8,14.5-99.1-11.4-127c-25.9-28,10.3-52.3,10.3-52.3c-120.2,18.7-118.8,159.4-82.4,218.2c36.3,58.8,26,113.5,26,113.5
			S1614,400.4,1580.9,320.6L1580.9,320.6"/>
		<path id="path36" d="M1288.3,801.6c-5.3-197.6-96.2-132.3-118.2-205.1c-22-72.7-60.7-31-60.7-31s44.9-104.4,184.9-81.1
			c140.1,23.3,197.2,231.4,28.4,415.5c0,0,144.3-178.8,53-334.1c0,0,83.5,158.5-95.4,381.1c0,0,169.4-86.3,201-293.3
			c31.6-206.9-43.7-228.3,36-308.4c0,0-6.7,15.3,19.6,28c26.2,12.7,55.1,47.9,40.9,115.5c0,0-3-61.1-41.9-78.6
			c0,0,45.1,36.1,30.6,125.7c0,0,58.6-250.4,246.9-283.7c188.4-33.2,250.4,79.4,251.1,146.1c0.7,66.7-17.4,89.3,24.2,108.6
			c0,0-118,37.6-141.1-36.8c-23.2-74.4-1-165.9-95.2-169.2c0,0,79.6-28.4,108.5,88.3c0,0,7.4-50.7-31-81.5
			c-38.4-30.8-163.2-58.4-268.5,76.4c-80,102.2-107.4,240.3-107.4,240.3s44.6-11.2,67.5-98.2c23-86.9,60.2-139.2,131-127.4
			c70.8,11.8,64.4-26.1,64.4-26.1s44.3,31.6,14.5,104.2c-29.8,72.6-154.6,66.3-205,107.8c0,0,31.2-51.7,125.2-67.6
			c0,0-81.9-26.8-148.5,84.9c0,0,110.6-68.3,229.2,0.8c118.7,69.1,116.4,237.4,7.4,274.8c-109.1,37.4-226.2-72.9-133.3-161.4
			c0,0-31.6,54.6,3.2,59.6c34.8,5,28.5-53.5,82.5-38.3c54,15.2,72-47.2,36.5-87.9c0,0,54.6,31.6,17.5,103.1
			c-37,71.5-124.5,34.4-124.5,34.4s90.4,58.4,136.6-31.2c48-92.9-54.5-169.2-155-160.1c-100.4,9-184.3,97.5-243,205.8
			c-58.7,108.3-191.6,228.2-381.5,252.3C1078.4,1053.7,1293.6,999.1,1288.3,801.6L1288.3,801.6"/>
		<path id="path38" d="M320.6,1580.8c-79.8-33.2-135.2,8.9-135.2,8.9c70.2-32.1,194.2,21.6,194.2,21.6s-47.2-7.5-96.9,39
			c-49.8,46.5-99.1,14.5-127-11.4c-28-25.9-52.3,10.3-52.3,10.3c18.7-120.2,159.4-118.8,218.2-82.4c58.8,36.3,113.5,26,113.5,26
			S400.4,1614,320.6,1580.8L320.6,1580.8"/>
		<path id="path40" d="M801.6,1288.3c-197.6-5.3-132.3-96.2-205.1-118.2c-72.7-22-31-60.7-31-60.7s-104.4,44.9-81.1,185
			c23.3,140.1,231.4,197.2,415.5,28.4c0,0-178.8,144.3-334.1,53c0,0,158.5,83.5,381.1-95.4c0,0-86.3,169.4-293.3,201
			c-206.9,31.5-228.3-43.8-308.4,36c0,0,15.3-6.7,28,19.6c12.7,26.2,48,55.1,115.5,40.9c0,0-61.1-3-78.6-41.9
			c0,0,36.1,45.1,125.7,30.6c0,0-250.4,58.6-283.7,246.9c-33.2,188.4,79.4,250.4,146.1,251.1c66.7,0.7,89.3-17.4,108.6,24.2
			c0,0,37.6-118-36.8-141.2c-74.4-23.2-165.9-1-169.2-95.2c0,0-28.4,79.6,88.3,108.5c0,0-50.7,7.4-81.5-31
			c-30.8-38.5-58.3-163.2,76.4-268.6c102.2-80,240.3-107.4,240.3-107.4s-11.2,44.6-98.2,67.5c-86.9,23-139.2,60.2-127.4,131
			c11.8,70.8-26.1,64.4-26.1,64.4s31.6,44.3,104.2,14.5c72.6-29.8,66.3-154.6,107.8-205c0,0-51.7,31.2-67.6,125.2
			c0,0-26.8-81.9,84.9-148.5c0,0-68.3,110.6,0.8,229.2c69.1,118.7,237.4,116.4,274.8,7.4c37.4-109-72.9-226.2-161.4-133.3
			c0,0,54.5-31.6,59.6,3.2c5,34.8-53.5,28.5-38.3,82.5c15.2,54-47.2,72-87.9,36.5c0,0,31.6,54.6,103.1,17.5
			c71.5-37.1,34.4-124.5,34.4-124.5s58.4,90.4-31.2,136.6c-92.9,48-169.2-54.5-160.1-155c9-100.4,97.5-184.3,205.8-243
			c108.3-58.6,228.2-191.6,252.3-381.5C1053.7,1078.4,999.1,1293.5,801.6,1288.3L801.6,1288.3"/>
		<path id="path42" d="M8242.9,8318.5c-13.1-6.2-24.1,2.1-24.8,9.6c0,0-21.6-33.5,2.7-60.6c22.7-25.2,40.9-10.3,43.3-8.1
			c-2.2-2.5-17-20.7,8.1-43.3c27.1-24.3,60.6-2.7,60.6-2.7c-7.5,0.6-15.9,11.7-9.7,24.8c6.2,13.1-6.2,22.7-6.2,22.7
			c29.2-22.3,55.1,27.5,51.6,55.8c-3.3,27.7,0.4,47,0.5,47.6v0v0v0v0c-0.7-0.1-20-3.8-47.7-0.4c-28.2,3.4-78-22.5-55.7-51.6
			C8265.6,8312.3,8256,8324.7,8242.9,8318.5L8242.9,8318.5"/>
		<path id="path44" d="M8092.2,7972.5c33.9-12.3,59.4,50.2,59.4,50.2c-4.7-98.7-42.5-186-42.5-186
			c-59.5-133.5-142.7-71.8-142.7-71.8c81.8-32.3,128.8,57.9,128.8,57.9c-38.6-44.8-78.7-29.3-83.3,1.6
			c-4.7,30.9-24.7,21.6-47.1,23.9c-22.3,2.3-1.6,57.2-1.6,57.2c-94.1-34-73.3-149,1.6-185.3c74.8-36.2,140.5,47.8,140.5,47.8
			c-24.7-171.3-148.2-259.3-227-247c-78.6,12.4-117.2,77.2-101,119.7c16.2,42.4,44.7,37,44.7,37c-29.3-72.5,86.9-87.5,96.1-13.5
			c9.3,74-120.4,120.4-173.6,14c-53.3-106.6,85.6-233.9,230.3-165.6c80.1,37.8,131.8,122.1,165.7,224.7
			c-7.6-94.6,69.5-165.2,127.8-145.4c70.1,23.8,63.7,91.5,27.8,104.2c-35.9,12.8-47.5-24.3-47.5-24.3s0.1-45.2-53.8-0.6
			c-41.5,34.4-42.1,90.5-40.2,114.3c18.7,70.3,30.3,146.5,37.9,221.1c17.2,170.2,109.8,287.2,141.3,322.8c3.6,3.7,7.2,7.4,10.9,11.2
			c0,0-1.8-1.8-4.9-4.7c3,3.1,4.7,4.8,4.7,4.8c-3.8-3.7-7.5-7.2-11.2-10.9c-35.6-31.5-152.6-124.1-322.8-141.3
			c-74.5-7.6-150.8-19.2-221.1-37.8c-23.8-2-79.9-1.3-114.2,40.2c-44.6,53.8,0.5,53.8,0.5,53.8s37.1,11.5,24.4,47.5
			c-12.7,35.8-80.4,42.2-104.2-27.8c-19.7-58.3,50.7-135.4,145.4-127.8c-102.7-33.8-186.9-85.5-224.7-165.6
			c-68.3-144.7,59-283.6,165.5-230.3c106.5,53.2,60.2,182.8-13.9,173.6c-74.1-9.2-59-125.4,13.5-96.1c0,0,5.4-28.5-37-44.8
			c-42.4-16.2-107.3,22.5-119.7,101.1c-12.3,78.8,75.7,202.3,247.1,226.9c0,0-84.2-65.6-47.9-140.5c36.2-74.8,151.3-95.7,185.2-1.5
			c0,0-54.8-20.8-57.1,1.6c-2.3,22.4,7,42.4-23.9,47.1c-30.9,4.6-46.3,44.8-1.6,83.3c0,0-90.2-47.1-57.9-128.8
			c0,0-61.7,83.3,71.8,142.8c0,0,87.3,37.9,186,42.5c0,0-62.6-25.5-50.2-59.5c11.5-31.7,98.1-12.2,174.4,58.8
			C8079.9,8070.6,8060.5,7984,8092.2,7972.5z M8263.5,8259.5c-149.9-158.8-162.1-229.9-162.1-229.9c-2.8,34.6,57.4,121.5,65.3,132.8
			c0.4,0.4,0.7,0.7,1.1,1c0,0-0.3-0.2-0.6-0.4c0.2,0.3,0.4,0.5,0.4,0.5c-0.4-0.4-0.7-0.7-1.1-1.1c-11.2-7.9-98.2-68.1-132.9-65.3
			C8033.6,8097.4,8104.7,8109.7,8263.5,8259.5L8263.5,8259.5"/>
		<path id="path46" d="M7413.1,7606.4c-96.3,65.3-6.2,125.8-77.7,173.9c0,0-52.8,20.3-69.9-32.6c-8.2-25.6-17.1-100.9,38.9-158.4
			c45.8-47.1,124.4-93.5,252.8-37c-56.5-128.4-10.1-207,37-252.8c57.5-56,132.8-47.1,158.4-38.8c52.8,17.1,32.6,69.9,32.6,69.9
			c-48.1,71.5-108.7-18.6-173.9,77.7c-42,62-2.7,167.8,20.5,218.6l0.3,0.2c-0.1,0-0.2,0-0.2,0c0,0,0.1,0.1,0,0.1l-0.2-0.2
			C7580.9,7603.7,7475.1,7564.5,7413.1,7606.4L7413.1,7606.4z M7564.8,7560.1c-48.6-15.4-145-34.9-216.9,21.5
			c0,0,121.6-63.2,249.3,10.8c-74-127.6-10.7-249.3-10.7-249.3c-56.4,72-37,168.4-21.6,217l0.2,0.1
			C7565,7560.1,7564.9,7560.1,7564.8,7560.1c0.1,0,0.2,0.1,0.1,0.2L7564.8,7560.1L7564.8,7560.1"/>
		<path id="path48" d="M7133.5,8390.1c33.2,79.8-8.8,135.2-8.8,135.2c32.1-70.2-21.6-194.2-21.6-194.2s7.5,47.2-39,96.9
			c-46.5,49.8-14.5,99.1,11.3,127c25.9,28-10.2,52.3-10.2,52.3c120.2-18.7,118.8-159.4,82.4-218.2c-36.3-58.8-26-113.5-26-113.5
			S7100.4,8310.3,7133.5,8390.1L7133.5,8390.1"/>
		<path id="path50" d="M7426,7909.1c5.4,197.6,96.3,132.3,118.2,205.1c22,72.7,60.7,31,60.7,31s-44.9,104.4-185,81.1
			c-140.1-23.3-197.2-231.4-28.4-415.5c0,0-144.3,178.8-53,334.1c0,0-83.5-158.5,95.4-381.1c0,0-169.4,86.3-200.9,293.3
			c-31.6,206.9,43.7,228.3-36.1,308.4c0,0,6.7-15.3-19.6-28c-26.2-12.7-55.1-48-40.8-115.5c0,0,3,61.1,41.8,78.6
			c0,0-45.1-36.1-30.6-125.7c0,0-58.6,250.4-246.9,283.7c-188.4,33.2-250.4-79.4-251.1-146c-0.7-66.7,17.4-89.3-24.2-108.6
			c0,0,118-37.6,141.1,36.8c23.2,74.4,1,165.9,95.2,169.2c0,0-79.6,28.4-108.5-88.3c0,0-7.4,50.7,31,81.5
			c38.5,30.8,163.2,58.3,268.5-76.4c80-102.2,107.4-240.3,107.4-240.3s-44.6,11.2-67.5,98.2c-23,86.9-60.2,139.2-131,127.4
			c-70.8-11.8-64.4,26.2-64.4,26.2s-44.3-31.6-14.5-104.2c29.8-72.6,154.6-66.3,205-107.8c0,0-31.2,51.7-125.2,67.6
			c0,0,81.9,26.8,148.5-84.9c0,0-110.6,68.3-229.2-0.8c-118.7-69.1-116.4-237.4-7.4-274.8c109-37.4,226.2,72.9,133.3,161.4
			c0,0,31.6-54.5-3.2-59.6c-34.8-5-28.5,53.5-82.5,38.3c-54-15.2-72,47.2-36.5,87.9c0,0-54.6-31.6-17.5-103.1
			c37-71.5,124.5-34.4,124.5-34.4s-90.5-58.4-136.6,31.2c-48,92.9,54.5,169.2,155,160.1c100.5-9,184.4-97.5,243-205.8
			c58.7-108.3,191.6-228.2,381.5-252.3C7635.9,7657,7420.8,7711.6,7426,7909.1L7426,7909.1"/>
		<path id="path52" d="M8393.8,7129.9c79.8,33.2,135.1-8.8,135.1-8.8c-70.2,32.1-194.2-21.6-194.2-21.6s47.2,7.5,96.9-39
			c49.8-46.5,99.1-14.5,127,11.4c28,25.9,52.3-10.3,52.3-10.3c-18.6,120.2-159.3,118.8-218.2,82.4c-58.8-36.3-113.5-26-113.5-26
			S8314,7096.7,8393.8,7129.9L8393.8,7129.9"/>
		<path id="path54" d="M7912.7,7422.4c197.6,5.3,132.4,96.2,205.2,118.2c72.7,22,31,60.7,31,60.7s104.4-44.9,81.1-185
			c-23.4-140.1-231.4-197.2-415.5-28.4c0,0,178.8-144.3,334.1-53c0,0-158.6-83.5-381.2,95.4c0,0,86.4-169.4,293.4-201
			c206.9-31.5,228.2,43.7,308.4-36c0,0-15.3,6.7-28-19.6c-12.7-26.2-48-55.1-115.5-40.9c0,0,61.1,3,78.6,41.9
			c0,0-36.1-45.1-125.7-30.6c0,0,250.4-58.6,283.7-246.9c33.2-188.4-79.4-250.4-146-251.1c-66.7-0.7-89.3,17.4-108.6-24.2
			c0,0-37.7,118,36.8,141.2c74.4,23.2,165.8,1,169.2,95.2c0,0,28.4-79.6-88.3-108.5c0,0,50.7-7.4,81.5,31
			c30.7,38.5,58.3,163.2-76.4,268.5c-102.3,80-240.3,107.5-240.3,107.5s11.3-44.6,98.2-67.5c86.9-23,139.2-60.2,127.4-131
			c-11.8-70.8,26.2-64.4,26.2-64.4s-31.7-44.2-104.3-14.5c-72.6,29.8-66.2,154.6-107.7,205c0,0,51.7-31.2,67.5-125.2
			c0,0,26.8,81.9-84.9,148.5c0,0,68.3-110.6-0.8-229.2c-69-118.7-237.4-116.4-274.8-7.4c-37.4,109,72.8,226.2,161.4,133.4
			c0,0-54.5,31.6-59.6-3.1c-5-34.8,53.5-28.5,38.3-82.5c-15.2-54,47.3-72,87.9-36.5c0,0-31.6-54.6-103.1-17.5
			c-71.5,37-34.4,124.5-34.4,124.5s-58.4-90.5,31.1-136.6c92.9-48,169.2,54.5,160.2,155s-97.5,184.4-205.8,243
			c-108.4,58.6-228.2,191.6-252.3,381.5C7660.7,7632.3,7715.2,7417.2,7912.7,7422.4L7912.7,7422.4"/>
		<path id="path56" d="M8242.9,392.2c-13.1,6.2-24.1-2.1-24.8-9.6c0,0-21.6,33.5,2.7,60.6c22.7,25.2,40.9,10.3,43.3,8.1
			c-2.2,2.5-17,20.7,8.1,43.3c27.1,24.3,60.6,2.7,60.6,2.7c-7.5-0.6-15.9-11.7-9.7-24.8c6.2-13.1-6.2-22.7-6.2-22.7
			c29.2,22.3,55.1-27.5,51.6-55.8c-3.3-27.7,0.4-47,0.5-47.6v0v0v0v0c-0.7,0.1-20,3.8-47.7,0.4c-28.2-3.4-78,22.5-55.7,51.6
			C8265.6,398.3,8256,386,8242.9,392.2L8242.9,392.2"/>
		<path id="path58" d="M8092.2,738.2c-31.7-11.5-12.3-98.1,58.7-174.5c-76.3,71.1-162.9,90.5-174.4,58.8
			c-12.4-34,50.2-59.5,50.2-59.5c-98.7,4.7-186,42.5-186,42.5c-133.5,59.5-71.8,142.7-71.8,142.7c-32.3-81.8,57.9-128.8,57.9-128.8
			c-44.7,38.5-29.3,78.7,1.6,83.3c30.9,4.7,21.6,24.7,23.9,47.1c2.3,22.4,57.1,1.6,57.1,1.6c-33.9,94.1-149,73.3-185.2-1.5
			c-36.3-74.9,47.9-140.5,47.9-140.5c-171.4,24.6-259.4,148.1-247.1,226.9c12.4,78.6,77.3,117.3,119.7,101.1
			c42.4-16.2,37-44.8,37-44.8c-72.5,29.3-87.6-86.9-13.5-96.1c74.1-9.2,120.4,120.4,13.9,173.6c-106.5,53.3-233.8-85.6-165.5-230.3
			c37.8-80.1,122-131.8,224.7-165.6c-94.7,7.6-165.1-69.5-145.4-127.8c23.8-70,91.5-63.7,104.2-27.8c12.7,36-24.4,47.5-24.4,47.5
			s-45.1,0-0.5,53.8c34.3,41.5,90.4,42.1,114.2,40.2c70.3-18.6,146.6-30.3,221.1-37.8c170.2-17.2,287.2-109.8,322.8-141.3
			c3.7-3.7,7.4-7.2,11.2-10.9c0,0-1.7,1.8-4.7,4.8c3.1-2.9,4.9-4.7,4.9-4.7c-3.7,3.8-7.3,7.5-10.9,11.3
			c-31.5,35.5-124.1,152.6-141.3,322.8c-7.6,74.5-19.2,150.8-37.9,221.1c-1.9,23.8-1.3,79.9,40.2,114.3c53.9,44.6,53.8-0.6,53.8-0.6
			s11.6-37.1,47.5-24.3c35.9,12.7,42.3,80.4-27.8,104.2c-58.3,19.7-135.4-50.8-127.8-145.5c-33.9,102.6-85.6,186.9-165.7,224.7
			c-144.7,68.3-283.6-59-230.3-165.6c53.2-106.5,182.9-60.1,173.6,13.9c-9.2,74-125.4,59-96.1-13.5c0,0-28.5-5.3-44.7,37
			c-16.2,42.5,22.4,107.3,101,119.7c78.8,12.3,202.3-75.7,227-247c0,0-65.7,84.1-140.5,47.8c-74.9-36.2-95.7-151.3-1.6-185.3
			c0,0-20.7,54.9,1.6,57.2c22.4,2.3,42.4-7,47.1,23.9c4.6,30.9,44.7,46.3,83.3,1.6c0,0-47,90.3-128.8,57.9c0,0,83.2,61.7,142.7-71.8
			c0,0,37.8-87.3,42.5-186C8151.6,688,8126.1,750.5,8092.2,738.2L8092.2,738.2z M8263.5,451.2c-158.8,149.9-229.9,162.1-229.9,162.1
			c34.7,2.8,121.7-57.3,132.9-65.3c0.4-0.4,0.7-0.7,1.1-1.1c0,0-0.2,0.3-0.4,0.5c0.3-0.1,0.6-0.4,0.6-0.4c-0.4,0.4-0.7,0.7-1.1,1.1
			c-7.9,11.3-68.1,98.2-65.3,132.8C8101.4,681,8113.6,609.9,8263.5,451.2L8263.5,451.2"/>
		<path id="path60" d="M7413.1,1104.3c62,42,167.8,2.7,218.6-20.6l0.2-0.2c0.1,0.1,0,0.1,0,0.2c0,0,0.1-0.1,0.2,0l-0.3,0.2
			c-23.2,50.8-62.5,156.7-20.5,218.6c65.2,96.3,125.8,6.2,173.9,77.7c0,0,20.2,52.7-32.6,69.8c-25.6,8.3-100.9,17.1-158.4-38.8
			c-47.1-45.8-93.5-124.4-37-252.8c-128.4,56.4-207,10-252.8-37c-56-57.5-47.1-132.8-38.9-158.4c17.1-52.9,69.9-32.6,69.9-32.6
			C7406.9,978.4,7316.8,1039,7413.1,1104.3L7413.1,1104.3z M7564.8,1150.6l0.1-0.2C7565,1150.6,7564.9,1150.6,7564.8,1150.6
			c0.1,0,0.2-0.1,0.3,0l-0.2,0.2c-15.4,48.6-34.8,145,21.6,217c0,0-63.3-121.7,10.7-249.3c-127.7,74-249.3,10.8-249.3,10.8
			C7419.8,1185.5,7516.2,1166,7564.8,1150.6L7564.8,1150.6"/>
		<path id="path62" d="M7133.5,320.6c33.2-79.8-8.8-135.2-8.8-135.2c32.1,70.2-21.6,194.2-21.6,194.2s7.5-47.2-39-96.9
			c-46.5-49.8-14.5-99.1,11.3-127c25.9-28-10.2-52.3-10.2-52.3c120.2,18.7,118.8,159.4,82.4,218.2c-36.3,58.8-26,113.5-26,113.5
			S7100.4,400.4,7133.5,320.6L7133.5,320.6"/>
		<path id="path64" d="M7426,801.6c5.4-197.6,96.3-132.3,118.2-205.1c22-72.7,60.7-31,60.7-31s-44.9-104.4-185-81.1
			c-140.1,23.3-197.2,231.4-28.4,415.5c0,0-144.3-178.8-53-334.1c0,0-83.5,158.5,95.4,381.1c0,0-169.4-86.3-200.9-293.3
			c-31.6-206.9,43.7-228.3-36.1-308.4c0,0,6.7,15.3-19.6,28c-26.2,12.7-55.1,47.9-40.8,115.5c0,0,3-61.1,41.8-78.6
			c0,0-45.1,36.1-30.6,125.7c0,0-58.6-250.4-246.9-283.7c-188.4-33.2-250.4,79.4-251.1,146.1c-0.7,66.7,17.4,89.3-24.2,108.6
			c0,0,118,37.6,141.1-36.8c23.2-74.4,1-165.9,95.2-169.2c0,0-79.6-28.4-108.5,88.3c0,0-7.4-50.7,31-81.5
			c38.5-30.8,163.2-58.4,268.5,76.4c80,102.2,107.4,240.3,107.4,240.3s-44.6-11.2-67.5-98.2c-23-86.9-60.2-139.2-131-127.4
			c-70.8,11.8-64.4-26.1-64.4-26.1s-44.3,31.6-14.5,104.2c29.8,72.6,154.6,66.3,205,107.8c0,0-31.2-51.7-125.2-67.6
			c0,0,81.9-26.8,148.5,84.9c0,0-110.6-68.3-229.2,0.8c-118.7,69.1-116.4,237.4-7.4,274.8c109,37.4,226.2-72.9,133.3-161.4
			c0,0,31.6,54.6-3.2,59.6c-34.8,5-28.5-53.5-82.5-38.3c-54,15.2-72-47.2-36.5-87.9c0,0-54.6,31.6-17.5,103.1
			c37,71.5,124.5,34.4,124.5,34.4s-90.5,58.4-136.6-31.2c-48-92.9,54.5-169.2,155-160.1c100.5,9,184.4,97.5,243,205.8
			c58.7,108.3,191.6,228.2,381.5,252.3C7635.9,1053.7,7420.8,999.1,7426,801.6L7426,801.6"/>
		<path id="path66" d="M8393.8,1580.8c79.8-33.2,135.1,8.9,135.1,8.9c-70.2-32.1-194.2,21.6-194.2,21.6s47.2-7.5,96.9,39
			c49.8,46.5,99.1,14.5,127-11.4c28-25.9,52.3,10.3,52.3,10.3c-18.6-120.2-159.3-118.8-218.2-82.4c-58.8,36.3-113.5,26-113.5,26
			S8314,1614,8393.8,1580.8L8393.8,1580.8"/>
		<path id="path68" d="M7912.7,1288.3c197.6-5.3,132.4-96.2,205.2-118.2c72.7-22,31-60.7,31-60.7s104.4,44.9,81.1,185
			c-23.4,140.1-231.4,197.2-415.5,28.4c0,0,178.8,144.3,334.1,53c0,0-158.6,83.5-381.2-95.4c0,0,86.4,169.4,293.4,201
			c206.9,31.5,228.2-43.8,308.4,36c0,0-15.3-6.7-28,19.6c-12.7,26.2-48,55.1-115.5,40.9c0,0,61.1-3,78.6-41.9
			c0,0-36.1,45.1-125.7,30.6c0,0,250.4,58.6,283.7,246.9c33.2,188.4-79.4,250.4-146,251.1c-66.7,0.7-89.3-17.4-108.6,24.2
			c0,0-37.7-118,36.8-141.2c74.4-23.2,165.8-1,169.2-95.2c0,0,28.4,79.6-88.3,108.5c0,0,50.7,7.4,81.5-31
			c30.7-38.5,58.3-163.2-76.4-268.6c-102.3-80-240.3-107.4-240.3-107.4s11.3,44.6,98.2,67.5c86.9,23,139.2,60.2,127.4,131
			c-11.8,70.8,26.2,64.4,26.2,64.4s-31.7,44.3-104.3,14.5c-72.6-29.8-66.2-154.6-107.7-205c0,0,51.7,31.2,67.5,125.2
			c0,0,26.8-81.9-84.9-148.5c0,0,68.3,110.6-0.8,229.2c-69,118.7-237.4,116.4-274.8,7.4c-37.4-109,72.8-226.2,161.4-133.3
			c0,0-54.5-31.6-59.6,3.2c-5,34.8,53.5,28.5,38.3,82.5c-15.2,54,47.3,72,87.9,36.5c0,0-31.6,54.6-103.1,17.5
			c-71.5-37.1-34.4-124.5-34.4-124.5s-58.4,90.4,31.1,136.6c92.9,48,169.2-54.5,160.2-155c-9-100.4-97.5-184.3-205.8-243
			c-108.4-58.6-228.2-191.6-252.3-381.5C7660.7,1078.4,7715.2,1293.5,7912.7,1288.3L7912.7,1288.3"/>
		<path id="path70" class="st0" d="M6658.5,8196.9h-4605v34.7h4605V8196.9"/>
		<path id="path72" class="st0" d="M515.7,6688.2V2032.8H481v4655.4H515.7"/>
		<path id="path74" class="st0" d="M6666.5,479.8H2052.3v34.7h4614.3V479.8"/>
		<path id="path76" class="st0" d="M8233.1,6685.1V2029.7h-34.7v4655.4H8233.1"/>
		<path id="path78" class="st1" d="M7044,0c-39.3,0-74,23.6-88.4,60.2c-10.8,27.3-8.3,57.9,6.5,83c-3.2,6.1-6.1,12.3-8.7,18.6
			c-11.5-3.4-23.3-6.2-35.1-8.2c-28.3-5-55.8-7.5-81.8-7.5c-176.2,0-275.8,116-285.9,233.7H2163.8C2153.6,262,2054,146,1877.9,146
			c-26,0-53.5,2.5-81.8,7.5c-11.8,2.1-23.6,4.9-35.1,8.2c-2.5-6.2-5.4-12.4-8.7-18.6c14.8-25.1,17.2-55.7,6.5-83
			C1744.4,23.6,1709.7,0,1670.4,0c-4.9,0-9.8,0.4-14.6,1.1l-21.9,3.4c-76,11.8-135,55.4-166,122.8c-25.3,54.9-25.3,109-20.4,146.3
			l-0.8,0.8c-51.8,52.1-64.4,99-66.9,133.4c-21.7-10.7-44.8-18.1-69-22.2c-37.8-6.3-73.8-6.5-109.8,0.4
			c-30.1-58-85.2-93.7-145.5-93.7c-61.5,0-116,37.4-135.6,92.9c-8.1,22.8-10.3,46.4-6.7,69c-58.8-13.5-124.2-23.9-199.4-31.5
			c-37-3.7-73.9-12.2-109.8-25.1c-2.5-24.7-10.8-49.1-23.8-69.3l-7.8-12.1c-18.3-28.4-49.9-44.8-83.9-43.6
			c-32.2-20-73-29.6-107.9-25.2c-7.2,0.9-17,0.5-18.4,0.3c-15.5-2.7-29.3-1.8-42.9,2l-8.8,2.5c-31.6,8.9-56,33-65.4,64.4
			c-5.8,19.4-5.1,40.5,1.8,59.5c-0.1,1.9-0.3,3.9-0.5,6c-4.3,35.1,5.1,74.9,25.1,107.3c-1.5,33.7,15,65.6,43.5,84l12.3,7.9
			c7.5,4.9,33.8,20.5,70.1,24.1c12.8,35.6,21.1,72.2,24.8,108.9c7.6,74.9,17.9,140.3,31.5,199.3c-22.3-3.6-46.1-1.4-69,6.7
			c-55.9,19.8-93.3,74.7-92.9,136.6c0.4,61.3,35.3,114.9,93.8,144.7c-6.4,34.4-6.5,71-0.1,109.2c4,24.2,11.5,47.3,22.3,69
			c-49.6,3.7-91.2,24.7-133.4,66.6l-1,1c-12.5-1.6-25.2-2.5-37.8-2.5c-122.7,0-213.5,74.1-231.3,188.7l-3.4,22
			c-6.9,44.2,17.4,86.6,59.1,103c27.1,10.7,58.3,8.1,83.2-6.6c6.1,3.2,12.3,6,18.5,8.5c-3.4,11.6-6.2,23.4-8.3,35.3
			c-25.1,142.1,17.4,229.4,57.4,277.6c42.8,51.6,105.8,84.9,170,90.2v4383.1c-64.3,5.5-127.3,38.7-170,90.2
			c-40,48.2-82.4,135.4-57.4,277.5c2.1,11.9,4.9,23.8,8.3,35.3c-6.2,2.5-12.4,5.4-18.5,8.5c-24.9-14.6-56-17.2-83.1-6.5
			c-41.6,16.4-65.9,58.8-59.1,103l3.4,22c17.8,114.7,108.6,188.8,231.2,188.8c12.5,0,25.2-0.8,37.8-2.5l0.9,0.9
			c42.4,42.1,84.1,63.2,133.5,66.8c-10.8,21.6-18.2,44.8-22.3,69c-6.4,38.1-6.3,74.8,0.1,109.2c-58.5,29.9-93.5,83.4-93.9,144.7
			c-0.4,61.9,36.9,116.8,92.8,136.6c22.9,8.1,46.7,10.3,69,6.8c-13.5,58.7-23.8,124.1-31.5,199.3c-3.7,36.7-12.1,73.4-24.8,109
			c-34.4,3.4-60.1,17.6-69.9,23.9l-12.6,8.1c-28.5,18.4-44.9,50.3-43.5,84c-20,32.4-29.4,72.3-25.1,107.6c0.2,1.4,0.3,2.8,0.4,4.2
			c-6.9,18.2-8,38.5-3.2,57.3c8.3,32.4,33.4,58.3,65.5,67.6l9.3,2.7c13.6,4,28,4.8,41.8,2.6l2.3-0.4c0.7-0.1,10.5-0.6,18.5,0.3
			c35.5,4.3,75.6-5.4,107.6-25.2c33.8,1.4,65.6-15.1,83.9-43.5l7.9-12.2c13.1-20,21.5-44.4,24-69.3c35.8-12.9,72.6-21.3,109.5-25
			c74.9-7.6,140.4-17.9,199.4-31.5c-3.7,22.6-1.4,46.2,6.7,69c19.7,55.5,74.1,92.8,135.6,92.8c60.4,0,115.5-35.7,145.5-93.7
			c35.8,6.9,71.7,6.7,109.7,0.4c24.2-4,47.3-11.5,68.9-22.2c2.5,34.5,15,81.3,66.7,133.3l1,1c-5,37.2-5,91.3,20.4,146.3
			c31.1,67.4,90,111,166,122.8l21.9,3.4c4.8,0.8,9.8,1.1,14.6,1.1c39.3,0,73.9-23.6,88.4-60.2c10.8-27.3,8.3-57.9-6.5-83
			c3.2-6.1,6.1-12.3,8.7-18.6c11.5,3.4,23.3,6.2,35.1,8.2c28.3,5,55.8,7.5,81.8,7.5c175.7,0,275.4-115.7,285.8-233.1h4387
			c10.5,117.4,110.2,233.1,285.8,233.1c26,0,53.5-2.5,81.8-7.5c11.8-2.1,23.6-4.9,35.1-8.2c2.5,6.2,5.4,12.4,8.7,18.6
			c-14.8,25.1-17.2,55.7-6.5,83c14.4,36.6,49.1,60.2,88.4,60.2c4.9,0,9.8-0.4,14.6-1.1l21.9-3.4c76-11.8,135-55.4,166-122.8
			c25.3-55,25.4-109,20.4-146.3l0.8-0.8c51.8-52,64.3-98.9,66.8-133.4c21.7,10.7,44.8,18.2,69,22.2c38.1,6.3,74,6.5,109.7-0.4
			c30.1,58,85.2,93.7,145.6,93.7c61.4,0,115.9-37.3,135.6-92.8c8.1-22.8,10.3-46.4,6.6-69c58.8,13.5,124.2,23.9,199.4,31.5
			c37,3.7,73.9,12.2,109.6,25.1c2.5,25,11.1,49.5,24.3,69.8l7.5,11.6c18.3,28.4,50.2,45,83.9,43.5c32.1,19.8,72.1,29.5,107.6,25.2
			c7.9-1,17.4-0.5,18.8-0.3c10.2,1.8,20.8,1.9,30.8,0.4c5.8-0.7,11.9-2.1,17.8-4.1l7.1-2.4c29.9-10,52.8-34.1,61.3-64.5
			c5.3-18.9,4.7-38.6-1.8-57.1c0.1-2,0.2-4.3,0.5-6.6c4.3-35.1-5.1-75-25.1-107.3c1.5-33.7-15-65.6-43.4-84l-12.3-7.9
			c-9.9-6.3-35.7-20.7-70.2-24.1c-12.8-35.6-21.1-72.2-24.8-108.9c-7.6-74.9-17.9-140.3-31.5-199.4c22.4,3.6,46.2,1.4,69-6.7
			c55.9-19.8,93.3-74.7,92.9-136.6c-0.4-61.3-35.4-114.9-93.9-144.7c6.4-34.4,6.5-71.1,0.1-109.2c-4-24.2-11.5-47.3-22.2-69
			c49.5-3.7,91.2-24.7,133.3-66.6l1.1-1c12.5,1.6,25.2,2.5,37.7,2.5c122.7,0,213.5-74.1,231.3-188.8l3.4-22
			c6.8-44.2-17.4-86.6-59.1-103c-27.2-10.7-58.3-8.1-83.1,6.5c-6.1-3.2-12.3-6-18.5-8.5c3.4-11.6,6.2-23.4,8.3-35.3
			c25.1-142.1-17.4-229.4-57.4-277.5c-42.9-51.7-106-85-170.3-90.2v-4383c64.4-5.4,127.5-38.6,170.3-90.2
			c40-48.2,82.5-135.5,57.4-277.5c-2.1-11.9-4.9-23.7-8.3-35.4c6.1-2.5,12.3-5.3,18.3-8.4c24.9,14.7,55.9,17.4,83.2,6.7
			c41.7-16.4,66.1-58.7,59.2-103.1l-3.4-22.2c-17.8-114.7-108.6-188.8-231.3-188.8c-12.5,0-25.2,0.8-37.8,2.5l-0.8-0.9
			c-42.4-42.2-84.1-63.2-133.5-66.8c10.7-21.7,18.2-44.8,22.2-69c6.4-38.1,6.3-74.8-0.1-109.2c58.5-29.8,93.5-83.4,93.9-144.7
			c0.4-61.9-37-116.8-92.9-136.6c-22.8-8.1-46.6-10.3-69-6.8c13.5-58.6,23.8-124,31.5-199.3c3.7-36.7,12-73.4,24.8-109
			c36.4-3.6,63.1-19.5,70.8-24.5l11.7-7.5c28.5-18.4,44.9-50.3,43.4-84c20.1-32.4,29.4-72.3,25.1-107.6c-0.3-2.8-0.5-5.3-0.6-7.6
			c6.3-18.7,6.6-39.3,0.8-58.3c-8.9-29-31.3-52.1-60-62l-6.5-2.2c-8.4-2.9-17.1-4.6-25.7-5c-7-0.7-16.1-0.3-24,1.1
			c-0.7,0-10.6,0.6-18.6-0.4c-5.3-0.7-11.2-1-17.2-1c-30.7,0-63.4,9.5-90.3,26.3c-33.9-1.2-65.6,15.1-83.9,43.6l-7.9,12.2
			c-12.9,20.1-21.3,44.5-23.7,69.2c-35.9,12.9-72.8,21.4-109.8,25.1c-74.8,7.6-140.3,17.9-199.4,31.5c3.7-22.6,1.5-46.1-6.7-69
			c-19.6-55.5-74.1-92.8-135.5-92.8c-60.4,0-115.5,35.7-145.6,93.7c-35.7-6.9-72-6.7-109.7-0.4c-24.2,4-47.3,11.5-69,22.2
			c-2.4-34.5-15-81.3-66.7-133.3l-0.9-0.9c5-37.3,4.9-91.3-20.4-146.3c-31-67.4-90-111-166-122.8l-21.9-3.4
			C7053.8,0.4,7048.9,0,7044,0z M6965.7,186.7l3.2-9.3c3.5-9.9,8-19.9,13.5-29.7l3-5.4l-3.5-5.1c-13.9-20.5-16.8-46.6-7.7-69.7
			C6985.6,38.7,7013,20,7044,20c3.9,0,7.7,0.3,11.5,0.9l22,3.4c69.2,10.7,122.8,50.3,151,111.4c24.4,53,23.2,105.3,18,139.9l-0.8,5
			l8.1,8c54.6,54.9,61.5,101.3,61.4,135.5l-0.1,17.4l15.1-8.7c23.6-13.7,49.4-23,76.6-27.5c38-6.4,74-6.1,110,1.7l7.8,1.7l3.3-7.2
			c25.8-55.1,76-89.3,131-89.3c52.9,0,99.9,31.9,116.7,79.5c8.6,24.4,9.6,49.6,2.6,72.9l-4.9,16.7l16.9-4.1
			c62.3-15.2,131.7-26.6,212.4-34.7c40.7-4.1,81.3-13.7,120.6-28.5l6.1-2.3l0.4-6.5c1.4-23.6,8.9-47,21.2-66.1l7.8-12.2
			c14.9-23.2,41.3-36.4,68.9-34.2l3.4,0.3l2.8-1.9c24-15.5,54.7-24.8,82.3-24.8c5.1,0,10.3,0.3,14.8,0.9c10.1,1.2,21.7,0.5,23.7,0.3
			c7.3-1.3,13.5-1.6,19.8-0.9c7.2,0.4,14.1,1.7,20.7,4l6.5,2.2c22.7,7.8,40.4,26.1,47.4,48.9c4.7,15.4,4.3,32.3-1.1,47.4l-0.7,1.7
			l0.1,1.8c0,3.3,0.2,7.2,0.7,11.4c3.9,31.8-4.9,68.1-23.7,97.1l-1.9,2.9l0.3,3.4c2.2,27.6-10.9,54-34.2,69l-11.7,7.5
			c-7.1,4.7-32.9,19.9-67.6,21.8l-6.5,0.4l-2.3,6.1c-14.6,39.1-24.1,79.4-28.2,119.9c-8.3,81.1-19.6,150.5-34.7,212.2l-4.2,16.9
			l16.7-4.9c22.8-6.7,48.4-5.9,72.9,2.8c48,17,79.9,64.2,79.6,117.6c-0.4,55.8-33.8,104.4-89.4,130.1l-7.3,3.4l1.7,7.8
			c7.4,34.1,7.9,70.9,1.5,109.4c-4.5,27.2-13.8,53-27.6,76.6l-8.8,15h17.4c51.3,0,93.1,19,135.9,61.6l7.9,7.9l5-0.7
			c13.1-1.9,26.6-2.9,39.8-2.9c112.3,0,195.3,67.4,211.5,171.8l3.5,22.2c5.4,35-13.9,68.4-46.8,81.4c-23.1,9-49.5,5.9-69.8-7.9
			l-5.1-3.5l-5.4,3c-9.7,5.4-19.6,9.8-29.5,13.2l-9.4,3.2l3.1,9.4c4.5,13.7,8,27.8,10.5,41.8c23.7,134.5-15.7,216.3-53,261.3
			c-41.5,49.9-103.3,81.1-165.4,83.6l-9.6,0.4v4421.1l9.6,0.4c62,2.4,123.8,33.6,165.4,83.6c37.3,44.9,76.7,126.7,53,261.3
			c-2.5,14.1-6,28.1-10.5,41.7l-3,9.4l9.3,3.2c9.9,3.4,19.9,7.9,29.6,13.4l5.4,3l5.1-3.5c20.3-13.8,46.8-16.8,69.8-7.8
			c32.9,13,52,46.4,46.6,81.3l-3.4,22c-16.2,104.4-99.2,171.8-211.5,171.8c-13.2,0-26.6-1-39.8-2.9l-5-0.7l-8.1,8.1
			c-42.7,42.5-84.4,61.4-135.2,61.4H8273l8.3,15c13.8,23.6,23.1,49.4,27.6,76.6c6.4,38.5,5.9,75.3-1.5,109.4l-1.7,7.8l7.3,3.4
			c55.6,25.7,89,74.3,89.4,130.1c0.3,53.4-31.7,100.7-79.6,117.6c-24.5,8.7-50.1,9.5-72.9,2.8l-16.6-4.9l4.1,16.9
			c15.2,62.2,26.5,131.6,34.7,212.2c4.1,40.5,13.6,80.8,28.2,119.9l2.3,6.1l6.5,0.4c33.1,1.8,57.9,15.6,67.1,21.4l12.2,7.9
			c23.3,15,36.4,41.4,34.2,69l-0.3,3.4l1.9,2.8c18.7,29,27.6,65.2,23.8,96.9c-0.5,3.8-0.7,7.3-0.8,10.4v2l0.6,1.8
			c5.7,15.1,6.4,31.2,2,46.6c-6.7,24-24.8,43-48.4,50.9l-7,2.4c-4.7,1.5-9.5,2.7-14.3,3.3c-8.5,1.3-16.6,1.2-24.6-0.3l-0.1,0
			c-1.9-0.4-5.2-0.7-10.9-0.7c-4.5,0-9,0.3-13.6,0.8c-31.6,3.8-68.8-5.6-97.1-23.9l-2.9-1.8l-3.4,0.3c-27.5,2.2-54-11-68.9-34.2
			l-7.5-11.7c-12.6-19.3-20.2-42.9-21.6-66.7l-0.4-6.5l-6.1-2.3c-39.2-14.8-79.8-24.3-120.6-28.4c-81-8.2-150.5-19.6-212.3-34.8
			l-17-4.2l5,16.7c7,23.3,6.1,48.5-2.6,72.9c-16.8,47.6-63.8,79.5-116.7,79.5c-54.9,0-105.1-34.2-131-89.3l-3.3-7.2l-7.8,1.7
			c-36,7.9-71.7,8.1-109.9,1.8c-27.3-4.5-53.1-13.8-76.7-27.5l-15.1-8.7l0.1,17.4c0.1,34.3-6.8,80.7-61.6,135.7l-7.9,7.9l0.8,5
			c5.2,34.6,6.4,87-18,140c-28.2,61.1-81.8,100.7-151,111.4l-22,3.4c-3.8,0.6-7.7,0.9-11.5,0.9c-31,0-58.4-18.7-69.8-47.5
			c-9.1-23.1-6.2-49.1,7.7-69.7l3.5-5.1l-3-5.4c-5.5-9.8-10-19.8-13.5-29.7l-3.2-9.2l-9.3,3c-13.5,4.4-27.5,7.9-41.5,10.4
			c-27.1,4.8-53.5,7.2-78.3,7.2c-167.9,0-261.2-112.5-266.5-223.5l-0.5-9.5H2144.8l-0.5,9.5c-5.3,111.1-98.6,223.5-266.5,223.5
			c-24.8,0-51.2-2.4-78.3-7.2c-14-2.5-28-6-41.5-10.4l-9.3-3l-3.2,9.2c-3.5,9.9-8,19.9-13.5,29.7l-3,5.4l3.5,5.1
			c13.9,20.5,16.8,46.6,7.7,69.7c-11.4,28.9-38.8,47.5-69.8,47.5c-3.9,0-7.8-0.3-11.6-0.9l-21.9-3.4
			c-69.1-10.7-122.7-50.3-150.9-111.4c-24.4-53-23.3-105.3-18-139.9l0.8-5l-8-8.1c-54.6-54.9-61.5-101.3-61.4-135.5l0.1-17.4
			l-15.1,8.8c-23.6,13.7-49.4,23-76.7,27.5c-38.2,6.4-73.8,6.1-109.9-1.8l-7.8-1.7l-3.4,7.2c-25.8,55.1-76,89.3-130.9,89.3
			c-53,0-99.9-31.9-116.7-79.5c-8.7-24.4-9.6-49.6-2.6-72.9l5-16.7l-16.9,4.1c-62.2,15.2-131.7,26.5-212.4,34.7
			c-40.7,4.1-81.3,13.7-120.5,28.4l-6.1,2.3l-0.4,6.5c-1.3,23.7-8.9,47.1-21.3,66.1l-7.9,12.3c-14.9,23.2-41.2,36.4-68.9,34.2
			l-3.4-0.3l-2.9,1.8c-28.3,18.3-65.6,27.7-97.1,23.9c-10.4-1.2-22.6-0.4-23.8-0.3l-2.6,0.4c-10.8,1.8-22.3,1.1-33-2l-9.3-2.7
			c-25.3-7.4-45.1-27.8-51.7-53.4c-4-15.5-2.8-32.2,3.2-47l0.8-2.1l-0.1-2.2c-0.1-2.4-0.3-4.9-0.6-7.7c-3.9-31.8,5-68.1,23.8-97.2
			l1.8-2.8l-0.3-3.4c-2.2-27.6,10.9-54,34.2-69l12.5-8.1c9.1-5.8,33.8-19.5,66.8-21.2l6.5-0.4l2.3-6.1
			c14.6-39.1,24.1-79.4,28.2-119.9c8.2-81,19.6-150.4,34.7-212.2l4.1-16.9l-16.7,4.9c-22.7,6.7-48.3,6-73-2.8
			c-47.9-17-79.9-64.2-79.5-117.6c0.4-55.8,33.8-104.4,89.4-130.1l7.3-3.4l-1.7-7.8c-7.4-34.1-7.9-70.9-1.5-109.4
			c4.5-27.3,13.8-53.1,27.6-76.6l8.8-15h-17.4c-51.3,0-93-19-135.8-61.6l-7.9-7.9l-5,0.7c-13.2,2-26.6,2.9-39.9,2.9
			c-112.3,0-195.3-67.4-211.5-171.8l-3.4-21.9c-5.4-34.9,13.8-68.4,46.6-81.3c23-9,49.4-6,69.7,7.8l5.1,3.5l5.4-3
			c9.7-5.4,19.7-9.9,29.6-13.4l9.3-3.2l-3.1-9.4c-4.4-13.6-8-27.6-10.5-41.8c-23.7-134.5,15.8-216.3,53.1-261.2
			c41.3-49.8,103.1-81,165.1-83.6l9.6-0.4V2144.8l-9.6-0.4c-61.9-2.5-123.6-33.7-165-83.6c-37.3-44.9-76.8-126.7-53.1-261.3
			c2.5-14.2,6-28.2,10.5-41.8l3.1-9.4l-9.3-3.2c-9.9-3.4-19.9-7.9-29.6-13.3l-5.4-3l-5.1,3.5c-20.3,13.8-46.9,16.8-69.8,7.8
			c-32.9-12.9-52.1-46.4-46.6-81.3l3.4-22c16.2-104.4,99.2-171.8,211.5-171.8c13.3,0,26.7,1,39.8,2.9l5,0.7l8.1-8.1
			c42.7-42.5,84.4-61.4,135.2-61.4h17.4l-8.3-15c-13.8-23.6-23.1-49.4-27.6-76.6c-6.4-38.5-5.9-75.3,1.5-109.4l1.7-7.8l-7.3-3.4
			c-55.6-25.7-89-74.3-89.4-130.2c-0.3-53.4,31.6-100.6,79.5-117.6c24.6-8.7,50.2-9.5,72.9-2.7l16.7,4.9l-4.1-16.9
			c-15.1-62.2-26.5-131.6-34.7-212.2c-4.1-40.5-13.6-80.8-28.2-119.9l-2.3-6.1l-6.5-0.4c-35.6-1.9-62-18.1-67-21.4l-12.4-8
			c-23.2-15-36.3-41.4-34.1-69l0.3-3.4l-1.8-2.8c-18.8-29-27.7-65.2-23.8-96.9c0.4-3.5,0.6-6.7,0.7-9.6l0.1-2.1l-0.8-1.9
			c-6-15.4-6.7-32.7-2-48.6c7.4-24.8,26.7-43.9,51.6-50.9l8.8-2.5c10.8-3,22.3-3.6,33.6-1.6l0,0c2,0.4,5.3,0.8,11.3,0.8
			c4.5,0,9.1-0.3,13.4-0.8c31.3-4,69,5.5,97.4,23.9l2.9,1.8l3.4-0.3c27.8-2.2,54,11,68.9,34.2l7.8,12.1
			c12.3,19.1,19.8,42.6,21.2,66.2l0.4,6.5l6.1,2.3c39.4,14.8,80,24.4,120.7,28.5c81,8.2,150.5,19.6,212.3,34.8l17,4.2l-5-16.7
			c-6.9-23.3-6-48.5,2.6-72.9c16.8-47.5,63.7-79.5,116.8-79.6c54.9,0,105.1,34.2,130.9,89.3l3.4,7.2l7.8-1.7
			c36.2-7.9,71.9-8.1,109.9-1.8c27.3,4.6,53.1,13.8,76.7,27.5l15.1,8.7l0-17.4c-0.1-34.3,6.8-80.7,61.5-135.7l7.9-7.9l-0.8-5
			c-5.2-34.6-6.4-87,18-140c28.2-61.1,81.8-100.7,150.9-111.4l21.9-3.4c3.8-0.6,7.7-0.9,11.5-0.9c31,0,58.4,18.7,69.8,47.6
			c9.1,23.1,6.2,49.1-7.7,69.7l-3.5,5.1l3,5.4c5.5,9.8,10,19.7,13.5,29.7l3.2,9.3l9.3-3.1c13.5-4.4,27.5-7.9,41.5-10.4
			c27.2-4.8,53.5-7.2,78.3-7.2c168.4,0,261.5,112.8,266.5,224.2l0.4,9.6h4424.7l0.4-9.6c5-111.4,98.2-224.2,266.5-224.2
			c24.8,0,51.2,2.4,78.3,7.2c14,2.5,28,6,41.5,10.4L6965.7,186.7z M6785.6,574.3l-31.7,11.3c-27.8,9.9-60.6,12.9-95.3,9l-1.1-0.1
			h-4601l-0.5,0.1c-35.6,3.9-67.6,0.9-95.5-9l-31.7-11.3l20.4,26.8c39,51.2,57.1,113.7,50.9,176c-8.2,82.9-59.7,150.3-134.6,176
			c-22.9,7.9-46.8,11.8-70.9,11.8c-85.1,0-161.8-48.5-190.7-120.6c-8.8-22-12.7-44.8-11.4-67.8l1.8-32.7l-19.8,26.1
			c-15.5,20.5-30.4,43.9-44.3,69.6c-8,14.8-17.3,29.9-27.6,44.8l-4.1,6l4.4,5.8c9.6,12.6,17,26.9,22,42.5
			c16.1,50.1,22.1,156.7-57.7,238.7c-54.1,55.6-121.4,85.7-194.6,87l-9.7,0.2l-0.2,9.6c-1.3,73.2-31.3,140.4-86.9,194.5
			c-57.5,55.9-124,67.6-169.7,67.6c-24.8,0-49.4-3.6-69.2-10c-16.1-5.2-30.5-12.6-42.8-22l-5.7-4.4l-6,4.1
			c-14.4,9.9-29,18.8-43.2,26.5c-25.8,14-49.3,28.9-69.7,44.4l-26.2,19.8l32.8-1.9c2.9-0.2,5.8-0.2,8.7-0.2
			c54.3,0,105.3,27.8,139.9,76.3c40.4,56.6,50.9,130.2,28.1,196.8c-28.3,82.5-106.6,135.7-199.4,135.7c-54.2,0-108.3-18.5-152.4-52
			l-26.5-20.1l11,31.4c8.5,24.3,11.8,51.8,10,81.9l0,4624.9c1.9,30.9-1.5,58.6-10,83l-11,31.4l26.5-20.2
			c44.2-33.6,98.3-52.1,152.5-52.1c92.8,0,171.1,53.3,199.4,135.8c22.8,66.5,12.3,140.1-28.1,196.8c-36.5,51.1-91.6,79.4-148.6,76
			l-32.8-1.9l26.2,19.8c20.5,15.5,43.9,30.5,69.7,44.4c14.2,7.7,28.7,16.6,43.2,26.5l6,4.1l5.7-4.4c12.2-9.4,26.6-16.7,42.6-21.9
			c20-6.5,44.6-10.1,69.3-10.1c45.7,0,112.2,11.7,169.7,67.6c55.6,54.1,85.6,121.3,86.9,194.4l0.2,9.6l9.7,0.2
			c73.1,1.2,140.4,31.4,194.6,87.2c79.8,82,73.8,188.8,57.6,238.9c-5,15.5-12.4,29.8-21.9,42.3l-4.4,5.8l4.1,6
			c10.2,14.9,19.5,29.9,27.5,44.7c13.9,25.7,28.8,49.1,44.3,69.6l19.8,26.1l-1.8-32.7c-1.3-22.9,2.6-45.7,11.4-67.8
			c28.9-72.1,105.5-120.6,190.7-120.6c24.1,0,48,4,70.9,11.8c74.8,25.7,126.4,93.2,134.6,176c6.1,62.3-12,124.8-51,176l-20.4,26.8
			l31.7-11.3c20-7.1,42.1-10.7,65.9-10.7c11.2,0,23.4,0.8,35.2,2.4l1.3,0.1l4588.8,0l0.6-0.1c37.8-4.9,72.1-2.2,101.7,8.3l31.7,11.3
			l-20.4-26.8c-39-51.1-57.1-113.6-51-176c8.2-82.9,59.8-150.3,134.7-176.1c22.8-7.8,46.7-11.8,70.8-11.8
			c85.1,0,161.8,48.5,190.6,120.6c8.8,22.1,12.7,44.9,11.4,67.8l-1.8,32.7l19.8-26.1c15.5-20.4,30.4-43.8,44.3-69.6
			c8-14.8,17.3-29.8,27.6-44.7l4.1-6l-4.4-5.8c-9.5-12.6-17-26.9-22-42.5c-16.1-50.1-22.1-156.7,57.7-238.7
			c54.1-55.6,121.4-85.7,194.6-87l9.7-0.2l0.1-9.6c1.3-73.2,31.4-140.4,87-194.5c57.4-55.9,123.9-67.6,169.6-67.6
			c24.8,0,49.4,3.6,69.2,10c16.1,5.2,30.5,12.6,42.8,22l5.7,4.4l6-4.1c14.3-9.8,28.9-18.8,43.1-26.5c25.8-14,49.3-28.9,69.8-44.4
			l26.1-19.8l-32.7,1.9c-2.9,0.2-5.8,0.2-8.7,0.2c-54.3,0-105.3-27.8-139.9-76.3c-40.5-56.6-51-130.2-28.1-196.8
			c28.3-82.5,106.6-135.7,199.4-135.7c54.2,0,108.4,18.5,152.5,52.1l26.6,20.2l-11.1-31.5c-8-22.7-11.5-48.2-10.4-76V2036.9
			c-1.1-28.2,2.4-53.9,10.5-76.6l11.1-31.6l-26.6,20.3c-44.2,33.7-98.4,52.2-152.6,52.2c-92.8,0-171.1-53.3-199.4-135.8
			c-22.9-66.5-12.3-140.1,28.1-196.7c34.6-48.5,85.6-76.3,139.9-76.3c2.9,0,5.8,0.1,8.7,0.2l32.7,1.9l-26.1-19.8
			c-20.5-15.5-43.9-30.4-69.8-44.4c-14.1-7.7-28.6-16.6-43.1-26.5l-6-4.1l-5.7,4.4c-12.3,9.4-26.6,16.7-42.6,21.9
			c-20,6.5-44.6,10.1-69.4,10.1c-45.7,0-112.2-11.7-169.6-67.6c-55.6-54.1-85.7-121.4-87-194.5l-0.1-9.6l-9.7-0.2
			c-73.2-1.3-140.5-31.4-194.6-87c-79.8-82-73.8-188.8-57.6-238.9c5-15.5,12.4-29.7,21.9-42.3l4.4-5.8l-4.1-6
			c-10.3-14.8-19.5-29.9-27.6-44.7c-13.9-25.8-28.8-49.2-44.3-69.6l-19.8-26.1l1.8,32.7c1.3,22.9-2.6,45.7-11.4,67.8
			c-28.9,72.2-105.5,120.6-190.6,120.6c-24.1,0-47.9-4-70.9-11.8c-74.8-25.7-126.4-93.2-134.6-176c-6.1-62.3,12-124.8,51-176
			L6785.6,574.3z M1794.7,984.9c26.3,0,52.3-4.3,77.3-12.9c82.4-28.3,139.1-102.2,148-193c5.7-58.3-8.1-116.7-39.2-167.1
			c23.7,4.8,49.2,5.6,76.7,2.6H6657c26.9,2.9,53,2.1,76.6-2.6c-31.1,50.4-44.9,108.8-39.2,167.1c9,90.8,65.7,164.7,148,193
			c25,8.6,51,12.9,77.3,12.9c93.2,0,177.3-53.5,209.2-133.2c6-15,9.9-30.3,11.8-45.7c8.8,13.4,17.4,27.8,25.7,43
			c7.4,13.5,15.6,27.2,24.7,40.7c-8.8,12.9-15.8,27.1-20.8,42.4c-17.5,54.4-24,170.2,62.4,259c55.5,57.1,124.1,89,199,92.8
			c3.7,74.8,35.6,143.5,92.7,199c62.3,60.6,134.2,73.3,183.6,73.3c26.8,0,53.6-3.9,75.5-11c15.8-5.1,30.1-12.1,42.7-20.8
			c13.1,8.7,26.3,16.6,39.1,23.6c15.3,8.3,29.7,16.9,43.2,25.8c-52.9,6.2-101.4,35.8-135.4,83.5c-44.2,61.9-55.7,142.2-30.8,214.8
			c31.2,90.7,116.9,149.3,218.4,149.3c49.5,0,98.9-14.3,141.8-40.6c-3.5,17.8-4.9,36.8-4.2,56.7V6674c-0.7,19.6,0.7,38.4,4.2,56.1
			c-42.9-26.3-92.3-40.6-141.8-40.6c-101.5,0-187.2,58.6-218.3,149.2c-25,72.7-13.5,153,30.7,214.9c34,47.6,82.5,77.3,135.3,83.5
			c-13.4,8.9-27.8,17.5-43.1,25.8c-12.9,7-26,14.9-39.1,23.6c-12.7-8.8-27.1-15.8-42.8-20.9c-21.8-7.1-48.5-11-75.4-11
			c-49.4,0-121.3,12.7-183.6,73.3c-57,55.5-89,124.1-92.7,199c-74.9,3.7-143.5,35.7-199,92.8c-86.4,88.8-79.9,204.5-62.5,258.8
			c5,15.4,12,29.7,20.9,42.6c-9.1,13.6-17.4,27.2-24.7,40.7c-8.3,15.3-16.9,29.7-25.7,43c-1.9-15.5-5.8-30.8-11.8-45.7
			c-31.9-79.6-116-133.2-209.2-133.2c-26.4,0-52.4,4.3-77.3,12.9c-82.4,28.3-139.1,102.2-148.1,193c-5.7,58.3,8.1,116.7,39.2,167.1
			c-25.5-5.1-53.4-5.7-83.2-1.9l-4586.9,0c-12.4-1.6-25.2-2.4-37.1-2.4c-15.8,0-31,1.5-45.5,4.4c31.1-50.4,44.9-108.8,39.2-167.1
			c-8.9-90.8-65.7-164.7-148-193c-25-8.6-51-12.9-77.4-12.9c-93.2,0-177.3,53.5-209.2,133.2c-6,15-9.9,30.2-11.8,45.7
			c-8.8-13.4-17.4-27.8-25.7-43c-7.3-13.5-15.6-27.1-24.7-40.7c8.8-12.9,15.8-27.1,20.8-42.4c17.5-54.4,24.1-170.2-62.3-259
			c-55.7-57.2-124.3-89.2-199.1-92.9c-3.7-74.8-35.6-143.4-92.7-198.9c-62.3-60.6-134.2-73.3-183.6-73.3c-26.8,0-53.6,3.9-75.5,11
			c-15.7,5.1-30,12.1-42.7,20.8c-13.1-8.7-26.2-16.6-39.1-23.6c-15.3-8.3-29.7-16.9-43.1-25.8c52.8-6.2,101.3-35.8,135.3-83.5
			c44.2-61.9,55.7-142.2,30.7-214.9c-31.1-90.7-116.8-149.3-218.3-149.3c-49.5,0-98.9,14.3-141.8,40.6c3.9-19.7,5.2-40.9,3.8-63.3
			l0-4623.7c1.4-21.8,0.1-42.7-3.8-62.3c42.9,26.3,92.3,40.5,141.8,40.5c101.5,0,187.2-58.6,218.3-149.3
			c24.9-72.7,13.4-153-30.7-214.8c-34-47.6-82.5-77.3-135.3-83.5c13.4-8.9,27.8-17.5,43.1-25.8c12.9-7,26-14.9,39.1-23.6
			c12.7,8.7,27.1,15.7,42.8,20.8c21.8,7.1,48.5,11,75.4,11c49.4,0,121.3-12.7,183.6-73.3c57.1-55.5,89-124.2,92.7-199
			c74.9-3.7,143.6-35.7,199.1-92.8c86.4-88.8,79.9-204.4,62.4-258.8c-5-15.4-12-29.7-20.9-42.6c9.1-13.6,17.4-27.3,24.7-40.8
			c8.2-15.2,16.8-29.6,25.7-43c1.9,15.5,5.8,30.8,11.8,45.7C1617.3,931.4,1701.4,984.9,1794.7,984.9"/>
	</g>
</g>
</svg>
